G04 #@! TF.GenerationSoftware,KiCad,Pcbnew,(5.0.0)*
G04 #@! TF.CreationDate,2019-04-26T12:00:10-04:00*
G04 #@! TF.ProjectId,StrainGauge2,53747261696E4761756765322E6B6963,rev?*
G04 #@! TF.SameCoordinates,Original*
G04 #@! TF.FileFunction,Legend,Top*
G04 #@! TF.FilePolarity,Positive*
%FSLAX46Y46*%
G04 Gerber Fmt 4.6, Leading zero omitted, Abs format (unit mm)*
G04 Created by KiCad (PCBNEW (5.0.0)) date 04/26/19 12:00:10*
%MOMM*%
%LPD*%
G01*
G04 APERTURE LIST*
%ADD10C,0.090000*%
%ADD11C,0.070000*%
%ADD12C,0.100000*%
%ADD13C,0.200000*%
%ADD14C,0.125000*%
%ADD15C,0.500000*%
%ADD16C,0.120000*%
%ADD17C,0.071120*%
%ADD18C,0.150000*%
%ADD19C,0.152400*%
%ADD20C,0.127000*%
%ADD21C,0.080000*%
%ADD22C,0.114300*%
%ADD23C,0.092000*%
%ADD24C,0.095000*%
G04 APERTURE END LIST*
D10*
X286932142Y-126683571D02*
X286960714Y-126655000D01*
X287017857Y-126626428D01*
X287160714Y-126626428D01*
X287217857Y-126655000D01*
X287246428Y-126683571D01*
X287275000Y-126740714D01*
X287275000Y-126797857D01*
X287246428Y-126883571D01*
X286903571Y-127226428D01*
X287275000Y-127226428D01*
X287532142Y-126997857D02*
X287989285Y-126997857D01*
X288617857Y-127169285D02*
X288589285Y-127197857D01*
X288503571Y-127226428D01*
X288446428Y-127226428D01*
X288360714Y-127197857D01*
X288303571Y-127140714D01*
X288275000Y-127083571D01*
X288246428Y-126969285D01*
X288246428Y-126883571D01*
X288275000Y-126769285D01*
X288303571Y-126712142D01*
X288360714Y-126655000D01*
X288446428Y-126626428D01*
X288503571Y-126626428D01*
X288589285Y-126655000D01*
X288617857Y-126683571D01*
X288875000Y-127226428D02*
X288875000Y-126626428D01*
X289132142Y-127226428D02*
X289132142Y-126912142D01*
X289103571Y-126855000D01*
X289046428Y-126826428D01*
X288960714Y-126826428D01*
X288903571Y-126855000D01*
X288875000Y-126883571D01*
X289675000Y-127226428D02*
X289675000Y-126912142D01*
X289646428Y-126855000D01*
X289589285Y-126826428D01*
X289475000Y-126826428D01*
X289417857Y-126855000D01*
X289675000Y-127197857D02*
X289617857Y-127226428D01*
X289475000Y-127226428D01*
X289417857Y-127197857D01*
X289389285Y-127140714D01*
X289389285Y-127083571D01*
X289417857Y-127026428D01*
X289475000Y-126997857D01*
X289617857Y-126997857D01*
X289675000Y-126969285D01*
X289960714Y-126826428D02*
X289960714Y-127226428D01*
X289960714Y-126883571D02*
X289989285Y-126855000D01*
X290046428Y-126826428D01*
X290132142Y-126826428D01*
X290189285Y-126855000D01*
X290217857Y-126912142D01*
X290217857Y-127226428D01*
X290503571Y-126826428D02*
X290503571Y-127226428D01*
X290503571Y-126883571D02*
X290532142Y-126855000D01*
X290589285Y-126826428D01*
X290675000Y-126826428D01*
X290732142Y-126855000D01*
X290760714Y-126912142D01*
X290760714Y-127226428D01*
X291275000Y-127197857D02*
X291217857Y-127226428D01*
X291103571Y-127226428D01*
X291046428Y-127197857D01*
X291017857Y-127140714D01*
X291017857Y-126912142D01*
X291046428Y-126855000D01*
X291103571Y-126826428D01*
X291217857Y-126826428D01*
X291275000Y-126855000D01*
X291303571Y-126912142D01*
X291303571Y-126969285D01*
X291017857Y-127026428D01*
X291646428Y-127226428D02*
X291589285Y-127197857D01*
X291560714Y-127140714D01*
X291560714Y-126626428D01*
X284760714Y-128187857D02*
X284846428Y-128216428D01*
X284989285Y-128216428D01*
X285046428Y-128187857D01*
X285075000Y-128159285D01*
X285103571Y-128102142D01*
X285103571Y-128045000D01*
X285075000Y-127987857D01*
X285046428Y-127959285D01*
X284989285Y-127930714D01*
X284875000Y-127902142D01*
X284817857Y-127873571D01*
X284789285Y-127845000D01*
X284760714Y-127787857D01*
X284760714Y-127730714D01*
X284789285Y-127673571D01*
X284817857Y-127645000D01*
X284875000Y-127616428D01*
X285017857Y-127616428D01*
X285103571Y-127645000D01*
X285275000Y-127816428D02*
X285503571Y-127816428D01*
X285360714Y-127616428D02*
X285360714Y-128130714D01*
X285389285Y-128187857D01*
X285446428Y-128216428D01*
X285503571Y-128216428D01*
X285703571Y-128216428D02*
X285703571Y-127816428D01*
X285703571Y-127930714D02*
X285732142Y-127873571D01*
X285760714Y-127845000D01*
X285817857Y-127816428D01*
X285875000Y-127816428D01*
X286332142Y-128216428D02*
X286332142Y-127902142D01*
X286303571Y-127845000D01*
X286246428Y-127816428D01*
X286132142Y-127816428D01*
X286075000Y-127845000D01*
X286332142Y-128187857D02*
X286275000Y-128216428D01*
X286132142Y-128216428D01*
X286075000Y-128187857D01*
X286046428Y-128130714D01*
X286046428Y-128073571D01*
X286075000Y-128016428D01*
X286132142Y-127987857D01*
X286275000Y-127987857D01*
X286332142Y-127959285D01*
X286617857Y-128216428D02*
X286617857Y-127816428D01*
X286617857Y-127616428D02*
X286589285Y-127645000D01*
X286617857Y-127673571D01*
X286646428Y-127645000D01*
X286617857Y-127616428D01*
X286617857Y-127673571D01*
X286903571Y-127816428D02*
X286903571Y-128216428D01*
X286903571Y-127873571D02*
X286932142Y-127845000D01*
X286989285Y-127816428D01*
X287075000Y-127816428D01*
X287132142Y-127845000D01*
X287160714Y-127902142D01*
X287160714Y-128216428D01*
X288217857Y-127645000D02*
X288160714Y-127616428D01*
X288075000Y-127616428D01*
X287989285Y-127645000D01*
X287932142Y-127702142D01*
X287903571Y-127759285D01*
X287875000Y-127873571D01*
X287875000Y-127959285D01*
X287903571Y-128073571D01*
X287932142Y-128130714D01*
X287989285Y-128187857D01*
X288075000Y-128216428D01*
X288132142Y-128216428D01*
X288217857Y-128187857D01*
X288246428Y-128159285D01*
X288246428Y-127959285D01*
X288132142Y-127959285D01*
X288760714Y-128216428D02*
X288760714Y-127902142D01*
X288732142Y-127845000D01*
X288675000Y-127816428D01*
X288560714Y-127816428D01*
X288503571Y-127845000D01*
X288760714Y-128187857D02*
X288703571Y-128216428D01*
X288560714Y-128216428D01*
X288503571Y-128187857D01*
X288475000Y-128130714D01*
X288475000Y-128073571D01*
X288503571Y-128016428D01*
X288560714Y-127987857D01*
X288703571Y-127987857D01*
X288760714Y-127959285D01*
X289303571Y-127816428D02*
X289303571Y-128216428D01*
X289046428Y-127816428D02*
X289046428Y-128130714D01*
X289075000Y-128187857D01*
X289132142Y-128216428D01*
X289217857Y-128216428D01*
X289275000Y-128187857D01*
X289303571Y-128159285D01*
X289846428Y-127816428D02*
X289846428Y-128302142D01*
X289817857Y-128359285D01*
X289789285Y-128387857D01*
X289732142Y-128416428D01*
X289646428Y-128416428D01*
X289589285Y-128387857D01*
X289846428Y-128187857D02*
X289789285Y-128216428D01*
X289675000Y-128216428D01*
X289617857Y-128187857D01*
X289589285Y-128159285D01*
X289560714Y-128102142D01*
X289560714Y-127930714D01*
X289589285Y-127873571D01*
X289617857Y-127845000D01*
X289675000Y-127816428D01*
X289789285Y-127816428D01*
X289846428Y-127845000D01*
X290360714Y-128187857D02*
X290303571Y-128216428D01*
X290189285Y-128216428D01*
X290132142Y-128187857D01*
X290103571Y-128130714D01*
X290103571Y-127902142D01*
X290132142Y-127845000D01*
X290189285Y-127816428D01*
X290303571Y-127816428D01*
X290360714Y-127845000D01*
X290389285Y-127902142D01*
X290389285Y-127959285D01*
X290103571Y-128016428D01*
X291446428Y-128159285D02*
X291417857Y-128187857D01*
X291332142Y-128216428D01*
X291275000Y-128216428D01*
X291189285Y-128187857D01*
X291132142Y-128130714D01*
X291103571Y-128073571D01*
X291075000Y-127959285D01*
X291075000Y-127873571D01*
X291103571Y-127759285D01*
X291132142Y-127702142D01*
X291189285Y-127645000D01*
X291275000Y-127616428D01*
X291332142Y-127616428D01*
X291417857Y-127645000D01*
X291446428Y-127673571D01*
X291703571Y-128216428D02*
X291703571Y-127816428D01*
X291703571Y-127616428D02*
X291675000Y-127645000D01*
X291703571Y-127673571D01*
X291732142Y-127645000D01*
X291703571Y-127616428D01*
X291703571Y-127673571D01*
X291989285Y-128216428D02*
X291989285Y-127816428D01*
X291989285Y-127930714D02*
X292017857Y-127873571D01*
X292046428Y-127845000D01*
X292103571Y-127816428D01*
X292160714Y-127816428D01*
X292617857Y-128187857D02*
X292560714Y-128216428D01*
X292446428Y-128216428D01*
X292389285Y-128187857D01*
X292360714Y-128159285D01*
X292332142Y-128102142D01*
X292332142Y-127930714D01*
X292360714Y-127873571D01*
X292389285Y-127845000D01*
X292446428Y-127816428D01*
X292560714Y-127816428D01*
X292617857Y-127845000D01*
X293132142Y-127816428D02*
X293132142Y-128216428D01*
X292875000Y-127816428D02*
X292875000Y-128130714D01*
X292903571Y-128187857D01*
X292960714Y-128216428D01*
X293046428Y-128216428D01*
X293103571Y-128187857D01*
X293132142Y-128159285D01*
X293417857Y-128216428D02*
X293417857Y-127816428D01*
X293417857Y-127616428D02*
X293389285Y-127645000D01*
X293417857Y-127673571D01*
X293446428Y-127645000D01*
X293417857Y-127616428D01*
X293417857Y-127673571D01*
X293617857Y-127816428D02*
X293846428Y-127816428D01*
X293703571Y-127616428D02*
X293703571Y-128130714D01*
X293732142Y-128187857D01*
X293789285Y-128216428D01*
X293846428Y-128216428D01*
D11*
X290637142Y-145482857D02*
X290665714Y-145397142D01*
X290694285Y-145368571D01*
X290751428Y-145340000D01*
X290837142Y-145340000D01*
X290894285Y-145368571D01*
X290922857Y-145397142D01*
X290951428Y-145454285D01*
X290951428Y-145682857D01*
X290351428Y-145682857D01*
X290351428Y-145482857D01*
X290380000Y-145425714D01*
X290408571Y-145397142D01*
X290465714Y-145368571D01*
X290522857Y-145368571D01*
X290580000Y-145397142D01*
X290608571Y-145425714D01*
X290637142Y-145482857D01*
X290637142Y-145682857D01*
X290780000Y-145111428D02*
X290780000Y-144825714D01*
X290951428Y-145168571D02*
X290351428Y-144968571D01*
X290951428Y-144768571D01*
X290351428Y-144654285D02*
X290351428Y-144311428D01*
X290951428Y-144482857D02*
X290351428Y-144482857D01*
X290351428Y-144197142D02*
X290351428Y-143854285D01*
X290951428Y-144025714D02*
X290351428Y-144025714D01*
X290722857Y-143654285D02*
X290722857Y-143197142D01*
X290951428Y-143425714D02*
X290494285Y-143425714D01*
D12*
X294029285Y-144712857D02*
X294029285Y-145070000D01*
X294386428Y-145105714D01*
X294350714Y-145070000D01*
X294315000Y-144998571D01*
X294315000Y-144820000D01*
X294350714Y-144748571D01*
X294386428Y-144712857D01*
X294457857Y-144677142D01*
X294636428Y-144677142D01*
X294707857Y-144712857D01*
X294743571Y-144748571D01*
X294779285Y-144820000D01*
X294779285Y-144998571D01*
X294743571Y-145070000D01*
X294707857Y-145105714D01*
X294029285Y-144462857D02*
X294779285Y-144212857D01*
X294029285Y-143962857D01*
X290205000Y-142221428D02*
X290169285Y-142292857D01*
X290169285Y-142400000D01*
X290205000Y-142507142D01*
X290276428Y-142578571D01*
X290347857Y-142614285D01*
X290490714Y-142650000D01*
X290597857Y-142650000D01*
X290740714Y-142614285D01*
X290812142Y-142578571D01*
X290883571Y-142507142D01*
X290919285Y-142400000D01*
X290919285Y-142328571D01*
X290883571Y-142221428D01*
X290847857Y-142185714D01*
X290597857Y-142185714D01*
X290597857Y-142328571D01*
X290919285Y-141864285D02*
X290169285Y-141864285D01*
X290919285Y-141435714D01*
X290169285Y-141435714D01*
X290919285Y-141078571D02*
X290169285Y-141078571D01*
X290169285Y-140900000D01*
X290205000Y-140792857D01*
X290276428Y-140721428D01*
X290347857Y-140685714D01*
X290490714Y-140650000D01*
X290597857Y-140650000D01*
X290740714Y-140685714D01*
X290812142Y-140721428D01*
X290883571Y-140792857D01*
X290919285Y-140900000D01*
X290919285Y-141078571D01*
D13*
X288690000Y-132180000D02*
X288690000Y-132020000D01*
X287880000Y-132180000D02*
X288690000Y-132180000D01*
X287880000Y-132020000D02*
X287880000Y-132180000D01*
X288680000Y-132020000D02*
X287880000Y-132020000D01*
D10*
X285328571Y-132910000D02*
X285614285Y-132910000D01*
X285271428Y-133081428D02*
X285471428Y-132481428D01*
X285671428Y-133081428D01*
X285871428Y-133081428D02*
X285871428Y-132481428D01*
X286014285Y-132481428D01*
X286100000Y-132510000D01*
X286157142Y-132567142D01*
X286185714Y-132624285D01*
X286214285Y-132738571D01*
X286214285Y-132824285D01*
X286185714Y-132938571D01*
X286157142Y-132995714D01*
X286100000Y-133052857D01*
X286014285Y-133081428D01*
X285871428Y-133081428D01*
X286442857Y-133052857D02*
X286528571Y-133081428D01*
X286671428Y-133081428D01*
X286728571Y-133052857D01*
X286757142Y-133024285D01*
X286785714Y-132967142D01*
X286785714Y-132910000D01*
X286757142Y-132852857D01*
X286728571Y-132824285D01*
X286671428Y-132795714D01*
X286557142Y-132767142D01*
X286500000Y-132738571D01*
X286471428Y-132710000D01*
X286442857Y-132652857D01*
X286442857Y-132595714D01*
X286471428Y-132538571D01*
X286500000Y-132510000D01*
X286557142Y-132481428D01*
X286700000Y-132481428D01*
X286785714Y-132510000D01*
X287357142Y-133081428D02*
X287014285Y-133081428D01*
X287185714Y-133081428D02*
X287185714Y-132481428D01*
X287128571Y-132567142D01*
X287071428Y-132624285D01*
X287014285Y-132652857D01*
X287585714Y-132538571D02*
X287614285Y-132510000D01*
X287671428Y-132481428D01*
X287814285Y-132481428D01*
X287871428Y-132510000D01*
X287900000Y-132538571D01*
X287928571Y-132595714D01*
X287928571Y-132652857D01*
X287900000Y-132738571D01*
X287557142Y-133081428D01*
X287928571Y-133081428D01*
X288214285Y-133081428D02*
X288328571Y-133081428D01*
X288385714Y-133052857D01*
X288414285Y-133024285D01*
X288471428Y-132938571D01*
X288500000Y-132824285D01*
X288500000Y-132595714D01*
X288471428Y-132538571D01*
X288442857Y-132510000D01*
X288385714Y-132481428D01*
X288271428Y-132481428D01*
X288214285Y-132510000D01*
X288185714Y-132538571D01*
X288157142Y-132595714D01*
X288157142Y-132738571D01*
X288185714Y-132795714D01*
X288214285Y-132824285D01*
X288271428Y-132852857D01*
X288385714Y-132852857D01*
X288442857Y-132824285D01*
X288471428Y-132795714D01*
X288500000Y-132738571D01*
X288728571Y-132538571D02*
X288757142Y-132510000D01*
X288814285Y-132481428D01*
X288957142Y-132481428D01*
X289014285Y-132510000D01*
X289042857Y-132538571D01*
X289071428Y-132595714D01*
X289071428Y-132652857D01*
X289042857Y-132738571D01*
X288700000Y-133081428D01*
X289071428Y-133081428D01*
X266484285Y-144201428D02*
X266827142Y-144201428D01*
X266655714Y-144801428D02*
X266655714Y-144201428D01*
X267027142Y-144801428D02*
X267027142Y-144201428D01*
X267255714Y-144201428D01*
X267312857Y-144230000D01*
X267341428Y-144258571D01*
X267370000Y-144315714D01*
X267370000Y-144401428D01*
X267341428Y-144458571D01*
X267312857Y-144487142D01*
X267255714Y-144515714D01*
X267027142Y-144515714D01*
X267598571Y-144772857D02*
X267684285Y-144801428D01*
X267827142Y-144801428D01*
X267884285Y-144772857D01*
X267912857Y-144744285D01*
X267941428Y-144687142D01*
X267941428Y-144630000D01*
X267912857Y-144572857D01*
X267884285Y-144544285D01*
X267827142Y-144515714D01*
X267712857Y-144487142D01*
X267655714Y-144458571D01*
X267627142Y-144430000D01*
X267598571Y-144372857D01*
X267598571Y-144315714D01*
X267627142Y-144258571D01*
X267655714Y-144230000D01*
X267712857Y-144201428D01*
X267855714Y-144201428D01*
X267941428Y-144230000D01*
X268455714Y-144201428D02*
X268341428Y-144201428D01*
X268284285Y-144230000D01*
X268255714Y-144258571D01*
X268198571Y-144344285D01*
X268170000Y-144458571D01*
X268170000Y-144687142D01*
X268198571Y-144744285D01*
X268227142Y-144772857D01*
X268284285Y-144801428D01*
X268398571Y-144801428D01*
X268455714Y-144772857D01*
X268484285Y-144744285D01*
X268512857Y-144687142D01*
X268512857Y-144544285D01*
X268484285Y-144487142D01*
X268455714Y-144458571D01*
X268398571Y-144430000D01*
X268284285Y-144430000D01*
X268227142Y-144458571D01*
X268198571Y-144487142D01*
X268170000Y-144544285D01*
X268712857Y-144201428D02*
X269084285Y-144201428D01*
X268884285Y-144430000D01*
X268970000Y-144430000D01*
X269027142Y-144458571D01*
X269055714Y-144487142D01*
X269084285Y-144544285D01*
X269084285Y-144687142D01*
X269055714Y-144744285D01*
X269027142Y-144772857D01*
X268970000Y-144801428D01*
X268798571Y-144801428D01*
X268741428Y-144772857D01*
X268712857Y-144744285D01*
X269455714Y-144201428D02*
X269512857Y-144201428D01*
X269570000Y-144230000D01*
X269598571Y-144258571D01*
X269627142Y-144315714D01*
X269655714Y-144430000D01*
X269655714Y-144572857D01*
X269627142Y-144687142D01*
X269598571Y-144744285D01*
X269570000Y-144772857D01*
X269512857Y-144801428D01*
X269455714Y-144801428D01*
X269398571Y-144772857D01*
X269370000Y-144744285D01*
X269341428Y-144687142D01*
X269312857Y-144572857D01*
X269312857Y-144430000D01*
X269341428Y-144315714D01*
X269370000Y-144258571D01*
X269398571Y-144230000D01*
X269455714Y-144201428D01*
X270027142Y-144201428D02*
X270084285Y-144201428D01*
X270141428Y-144230000D01*
X270170000Y-144258571D01*
X270198571Y-144315714D01*
X270227142Y-144430000D01*
X270227142Y-144572857D01*
X270198571Y-144687142D01*
X270170000Y-144744285D01*
X270141428Y-144772857D01*
X270084285Y-144801428D01*
X270027142Y-144801428D01*
X269970000Y-144772857D01*
X269941428Y-144744285D01*
X269912857Y-144687142D01*
X269884285Y-144572857D01*
X269884285Y-144430000D01*
X269912857Y-144315714D01*
X269941428Y-144258571D01*
X269970000Y-144230000D01*
X270027142Y-144201428D01*
X270798571Y-144801428D02*
X270455714Y-144801428D01*
X270627142Y-144801428D02*
X270627142Y-144201428D01*
X270570000Y-144287142D01*
X270512857Y-144344285D01*
X270455714Y-144372857D01*
D13*
X277550000Y-129140000D02*
X278460000Y-129140000D01*
X277980000Y-128770000D02*
X277980000Y-128700000D01*
X278000000Y-130530000D02*
X278000000Y-129530000D01*
D12*
X279976666Y-127633333D02*
X279276666Y-127633333D01*
X279243333Y-126800000D02*
X280143333Y-127400000D01*
X279276666Y-126433333D02*
X279276666Y-126300000D01*
X279310000Y-126233333D01*
X279376666Y-126166666D01*
X279510000Y-126133333D01*
X279743333Y-126133333D01*
X279876666Y-126166666D01*
X279943333Y-126233333D01*
X279976666Y-126300000D01*
X279976666Y-126433333D01*
X279943333Y-126500000D01*
X279876666Y-126566666D01*
X279743333Y-126600000D01*
X279510000Y-126600000D01*
X279376666Y-126566666D01*
X279310000Y-126500000D01*
X279276666Y-126433333D01*
D13*
X265900000Y-132000000D02*
X265900000Y-125500000D01*
X272400000Y-132000000D02*
X265900000Y-132000000D01*
X272400000Y-125500000D02*
X272400000Y-132000000D01*
X265900000Y-125500000D02*
X272400000Y-125500000D01*
D14*
X282254285Y-131504761D02*
X281587619Y-131504761D01*
X282159047Y-131504761D02*
X282206666Y-131552380D01*
X282254285Y-131647619D01*
X282254285Y-131790476D01*
X282206666Y-131885714D01*
X282111428Y-131933333D01*
X281587619Y-131933333D01*
X281587619Y-132980952D02*
X282063809Y-132647619D01*
X281587619Y-132409523D02*
X282587619Y-132409523D01*
X282587619Y-132790476D01*
X282540000Y-132885714D01*
X282492380Y-132933333D01*
X282397142Y-132980952D01*
X282254285Y-132980952D01*
X282159047Y-132933333D01*
X282111428Y-132885714D01*
X282063809Y-132790476D01*
X282063809Y-132409523D01*
X282111428Y-133742857D02*
X282111428Y-133409523D01*
X281587619Y-133409523D02*
X282587619Y-133409523D01*
X282587619Y-133885714D01*
X282587619Y-134742857D02*
X282587619Y-134266666D01*
X282111428Y-134219047D01*
X282159047Y-134266666D01*
X282206666Y-134361904D01*
X282206666Y-134600000D01*
X282159047Y-134695238D01*
X282111428Y-134742857D01*
X282016190Y-134790476D01*
X281778095Y-134790476D01*
X281682857Y-134742857D01*
X281635238Y-134695238D01*
X281587619Y-134600000D01*
X281587619Y-134361904D01*
X281635238Y-134266666D01*
X281682857Y-134219047D01*
X282492380Y-135171428D02*
X282540000Y-135219047D01*
X282587619Y-135314285D01*
X282587619Y-135552380D01*
X282540000Y-135647619D01*
X282492380Y-135695238D01*
X282397142Y-135742857D01*
X282301904Y-135742857D01*
X282159047Y-135695238D01*
X281587619Y-135123809D01*
X281587619Y-135742857D01*
D12*
X294689285Y-137692857D02*
X294724523Y-137728571D01*
X294759761Y-137835714D01*
X294759761Y-137907142D01*
X294724523Y-138014285D01*
X294654047Y-138085714D01*
X294583571Y-138121428D01*
X294442619Y-138157142D01*
X294336904Y-138157142D01*
X294195952Y-138121428D01*
X294125476Y-138085714D01*
X294055000Y-138014285D01*
X294019761Y-137907142D01*
X294019761Y-137835714D01*
X294055000Y-137728571D01*
X294090238Y-137692857D01*
X294759761Y-137371428D02*
X294019761Y-137371428D01*
X294372142Y-137371428D02*
X294372142Y-136942857D01*
X294759761Y-136942857D02*
X294019761Y-136942857D01*
X294090238Y-136621428D02*
X294055000Y-136585714D01*
X294019761Y-136514285D01*
X294019761Y-136335714D01*
X294055000Y-136264285D01*
X294090238Y-136228571D01*
X294160714Y-136192857D01*
X294231190Y-136192857D01*
X294336904Y-136228571D01*
X294759761Y-136657142D01*
X294759761Y-136192857D01*
X294564285Y-131892857D02*
X294599523Y-131928571D01*
X294634761Y-132035714D01*
X294634761Y-132107142D01*
X294599523Y-132214285D01*
X294529047Y-132285714D01*
X294458571Y-132321428D01*
X294317619Y-132357142D01*
X294211904Y-132357142D01*
X294070952Y-132321428D01*
X294000476Y-132285714D01*
X293930000Y-132214285D01*
X293894761Y-132107142D01*
X293894761Y-132035714D01*
X293930000Y-131928571D01*
X293965238Y-131892857D01*
X294634761Y-131571428D02*
X293894761Y-131571428D01*
X294247142Y-131571428D02*
X294247142Y-131142857D01*
X294634761Y-131142857D02*
X293894761Y-131142857D01*
X294634761Y-130392857D02*
X294634761Y-130821428D01*
X294634761Y-130607142D02*
X293894761Y-130607142D01*
X294000476Y-130678571D01*
X294070952Y-130750000D01*
X294106190Y-130821428D01*
D13*
X270243607Y-139655000D02*
G75*
G03X270243607Y-139655000I-223607J0D01*
G01*
X275033113Y-137010000D02*
G75*
G03X275033113Y-137010000I-403113J0D01*
G01*
D12*
X280000000Y-129816666D02*
X280033333Y-129850000D01*
X280066666Y-129950000D01*
X280066666Y-130016666D01*
X280033333Y-130116666D01*
X279966666Y-130183333D01*
X279900000Y-130216666D01*
X279766666Y-130250000D01*
X279666666Y-130250000D01*
X279533333Y-130216666D01*
X279466666Y-130183333D01*
X279400000Y-130116666D01*
X279366666Y-130016666D01*
X279366666Y-129950000D01*
X279400000Y-129850000D01*
X279433333Y-129816666D01*
X280066666Y-129183333D02*
X280066666Y-129516666D01*
X279366666Y-129516666D01*
X280066666Y-128950000D02*
X279366666Y-128950000D01*
X280066666Y-128550000D02*
X279666666Y-128850000D01*
X279366666Y-128550000D02*
X279766666Y-128950000D01*
X293875000Y-142491428D02*
X293839285Y-142562857D01*
X293839285Y-142670000D01*
X293875000Y-142777142D01*
X293946428Y-142848571D01*
X294017857Y-142884285D01*
X294160714Y-142920000D01*
X294267857Y-142920000D01*
X294410714Y-142884285D01*
X294482142Y-142848571D01*
X294553571Y-142777142D01*
X294589285Y-142670000D01*
X294589285Y-142598571D01*
X294553571Y-142491428D01*
X294517857Y-142455714D01*
X294267857Y-142455714D01*
X294267857Y-142598571D01*
X294589285Y-142134285D02*
X293839285Y-142134285D01*
X294589285Y-141705714D01*
X293839285Y-141705714D01*
X294589285Y-141348571D02*
X293839285Y-141348571D01*
X293839285Y-141170000D01*
X293875000Y-141062857D01*
X293946428Y-140991428D01*
X294017857Y-140955714D01*
X294160714Y-140920000D01*
X294267857Y-140920000D01*
X294410714Y-140955714D01*
X294482142Y-140991428D01*
X294553571Y-141062857D01*
X294589285Y-141170000D01*
X294589285Y-141348571D01*
X269199285Y-137921428D02*
X269949285Y-137671428D01*
X269199285Y-137421428D01*
X269949285Y-137171428D02*
X269199285Y-137171428D01*
X269949285Y-136814285D02*
X269199285Y-136814285D01*
X269949285Y-136385714D01*
X269199285Y-136385714D01*
D15*
X269900000Y-127673000D02*
X269320000Y-127673000D01*
D16*
G04 #@! TO.C,P5*
X294845000Y-139720000D02*
X297505000Y-139720000D01*
X294845000Y-132040000D02*
X294845000Y-139720000D01*
X297505000Y-132040000D02*
X297505000Y-139720000D01*
X294845000Y-132040000D02*
X297505000Y-132040000D01*
X294845000Y-130770000D02*
X294845000Y-129440000D01*
X294845000Y-129440000D02*
X296175000Y-129440000D01*
D17*
G04 #@! TO.C,R11*
X293531000Y-131988420D02*
X293531000Y-132496420D01*
X292769000Y-131988420D02*
X293531000Y-131988420D01*
X292769000Y-132496420D02*
X292769000Y-131988420D01*
X293531000Y-133512420D02*
X293531000Y-133004420D01*
X292769000Y-133512420D02*
X293531000Y-133512420D01*
X292769000Y-133004420D02*
X292769000Y-133512420D01*
G04 #@! TO.C,R6*
X293095580Y-133719000D02*
X292587580Y-133719000D01*
X292587580Y-133719000D02*
X292587580Y-134481000D01*
X292587580Y-134481000D02*
X293095580Y-134481000D01*
X293603580Y-133719000D02*
X294111580Y-133719000D01*
X294111580Y-133719000D02*
X294111580Y-134481000D01*
X294111580Y-134481000D02*
X293603580Y-134481000D01*
D16*
G04 #@! TO.C,P3*
X297320000Y-140640000D02*
X294660000Y-140640000D01*
X297320000Y-143240000D02*
X297320000Y-140640000D01*
X294660000Y-143240000D02*
X294660000Y-140640000D01*
X297320000Y-143240000D02*
X294660000Y-143240000D01*
X297320000Y-144510000D02*
X297320000Y-145840000D01*
X297320000Y-145840000D02*
X295990000Y-145840000D01*
D17*
G04 #@! TO.C,R5*
X278676000Y-141909000D02*
X278168000Y-141909000D01*
X278168000Y-141909000D02*
X278168000Y-142671000D01*
X278168000Y-142671000D02*
X278676000Y-142671000D01*
X279184000Y-141909000D02*
X279692000Y-141909000D01*
X279692000Y-141909000D02*
X279692000Y-142671000D01*
X279692000Y-142671000D02*
X279184000Y-142671000D01*
D16*
G04 #@! TO.C,U5*
X274250000Y-143870000D02*
X276150000Y-143870000D01*
X275650000Y-141550000D02*
X274250000Y-141550000D01*
G04 #@! TO.C,D4*
X290020000Y-140880000D02*
X289020000Y-140880000D01*
X289020000Y-140880000D02*
X289020000Y-142980000D01*
X290020000Y-140880000D02*
X290020000Y-142980000D01*
D17*
G04 #@! TO.C,C18*
X288506000Y-143629000D02*
X287998000Y-143629000D01*
X287998000Y-143629000D02*
X287998000Y-144391000D01*
X287998000Y-144391000D02*
X288506000Y-144391000D01*
X289014000Y-143629000D02*
X289522000Y-143629000D01*
X289522000Y-143629000D02*
X289522000Y-144391000D01*
X289522000Y-144391000D02*
X289014000Y-144391000D01*
G04 #@! TO.C,R10*
X286726000Y-143629000D02*
X286218000Y-143629000D01*
X286218000Y-143629000D02*
X286218000Y-144391000D01*
X286218000Y-144391000D02*
X286726000Y-144391000D01*
X287234000Y-143629000D02*
X287742000Y-143629000D01*
X287742000Y-143629000D02*
X287742000Y-144391000D01*
X287742000Y-144391000D02*
X287234000Y-144391000D01*
G04 #@! TO.C,C16*
X285004000Y-144401000D02*
X285512000Y-144401000D01*
X285512000Y-144401000D02*
X285512000Y-143639000D01*
X285512000Y-143639000D02*
X285004000Y-143639000D01*
X284496000Y-144401000D02*
X283988000Y-144401000D01*
X283988000Y-144401000D02*
X283988000Y-143639000D01*
X283988000Y-143639000D02*
X284496000Y-143639000D01*
G04 #@! TO.C,R9*
X281759000Y-142444000D02*
X281759000Y-142952000D01*
X281759000Y-142952000D02*
X282521000Y-142952000D01*
X282521000Y-142952000D02*
X282521000Y-142444000D01*
X281759000Y-141936000D02*
X281759000Y-141428000D01*
X281759000Y-141428000D02*
X282521000Y-141428000D01*
X282521000Y-141428000D02*
X282521000Y-141936000D01*
G04 #@! TO.C,C17*
X287109000Y-141274000D02*
X287109000Y-141782000D01*
X287109000Y-141782000D02*
X287871000Y-141782000D01*
X287871000Y-141782000D02*
X287871000Y-141274000D01*
X287109000Y-140766000D02*
X287109000Y-140258000D01*
X287109000Y-140258000D02*
X287871000Y-140258000D01*
X287871000Y-140258000D02*
X287871000Y-140766000D01*
D16*
G04 #@! TO.C,D3*
X284340000Y-140550000D02*
X284340000Y-139550000D01*
X284340000Y-139550000D02*
X282240000Y-139550000D01*
X284340000Y-140550000D02*
X282240000Y-140550000D01*
D17*
G04 #@! TO.C,C22*
X282181000Y-137516000D02*
X282181000Y-137008000D01*
X282181000Y-137008000D02*
X281419000Y-137008000D01*
X281419000Y-137008000D02*
X281419000Y-137516000D01*
X282181000Y-138024000D02*
X282181000Y-138532000D01*
X282181000Y-138532000D02*
X281419000Y-138532000D01*
X281419000Y-138532000D02*
X281419000Y-138024000D01*
G04 #@! TO.C,R7*
X279184000Y-143651000D02*
X279692000Y-143651000D01*
X279692000Y-143651000D02*
X279692000Y-142889000D01*
X279692000Y-142889000D02*
X279184000Y-142889000D01*
X278676000Y-143651000D02*
X278168000Y-143651000D01*
X278168000Y-143651000D02*
X278168000Y-142889000D01*
X278168000Y-142889000D02*
X278676000Y-142889000D01*
G04 #@! TO.C,C14*
X276929000Y-143354000D02*
X276929000Y-143862000D01*
X276929000Y-143862000D02*
X277691000Y-143862000D01*
X277691000Y-143862000D02*
X277691000Y-143354000D01*
X276929000Y-142846000D02*
X276929000Y-142338000D01*
X276929000Y-142338000D02*
X277691000Y-142338000D01*
X277691000Y-142338000D02*
X277691000Y-142846000D01*
G04 #@! TO.C,C15*
X272654000Y-144641000D02*
X273162000Y-144641000D01*
X273162000Y-144641000D02*
X273162000Y-143879000D01*
X273162000Y-143879000D02*
X272654000Y-143879000D01*
X272146000Y-144641000D02*
X271638000Y-144641000D01*
X271638000Y-144641000D02*
X271638000Y-143879000D01*
X271638000Y-143879000D02*
X272146000Y-143879000D01*
D16*
G04 #@! TO.C,U2*
X284610000Y-137620000D02*
X284610000Y-137195000D01*
X288910000Y-133320000D02*
X288910000Y-133745000D01*
X284610000Y-133320000D02*
X284610000Y-133745000D01*
X288910000Y-137620000D02*
X288485000Y-137620000D01*
X288910000Y-133320000D02*
X288485000Y-133320000D01*
X284610000Y-133320000D02*
X285035000Y-133320000D01*
X284610000Y-137620000D02*
X285035000Y-137620000D01*
D17*
G04 #@! TO.C,C5*
X289509000Y-133704000D02*
X289509000Y-134212000D01*
X289509000Y-134212000D02*
X290271000Y-134212000D01*
X290271000Y-134212000D02*
X290271000Y-133704000D01*
X289509000Y-133196000D02*
X289509000Y-132688000D01*
X289509000Y-132688000D02*
X290271000Y-132688000D01*
X290271000Y-132688000D02*
X290271000Y-133196000D01*
G04 #@! TO.C,C3*
X289219000Y-138164000D02*
X289219000Y-138672000D01*
X289219000Y-138672000D02*
X289981000Y-138672000D01*
X289981000Y-138672000D02*
X289981000Y-138164000D01*
X289219000Y-137656000D02*
X289219000Y-137148000D01*
X289219000Y-137148000D02*
X289981000Y-137148000D01*
X289981000Y-137148000D02*
X289981000Y-137656000D01*
G04 #@! TO.C,C13*
X284211000Y-136806000D02*
X284211000Y-136298000D01*
X284211000Y-136298000D02*
X283449000Y-136298000D01*
X283449000Y-136298000D02*
X283449000Y-136806000D01*
X284211000Y-137314000D02*
X284211000Y-137822000D01*
X284211000Y-137822000D02*
X283449000Y-137822000D01*
X283449000Y-137822000D02*
X283449000Y-137314000D01*
G04 #@! TO.C,C12*
X283221000Y-136806000D02*
X283221000Y-136298000D01*
X283221000Y-136298000D02*
X282459000Y-136298000D01*
X282459000Y-136298000D02*
X282459000Y-136806000D01*
X283221000Y-137314000D02*
X283221000Y-137822000D01*
X283221000Y-137822000D02*
X282459000Y-137822000D01*
X282459000Y-137822000D02*
X282459000Y-137314000D01*
G04 #@! TO.C,C8*
X286516000Y-130189000D02*
X286008000Y-130189000D01*
X286008000Y-130189000D02*
X286008000Y-130951000D01*
X286008000Y-130951000D02*
X286516000Y-130951000D01*
X287024000Y-130189000D02*
X287532000Y-130189000D01*
X287532000Y-130189000D02*
X287532000Y-130951000D01*
X287532000Y-130951000D02*
X287024000Y-130951000D01*
G04 #@! TO.C,C10*
X290981000Y-131386000D02*
X290981000Y-130878000D01*
X290981000Y-130878000D02*
X290219000Y-130878000D01*
X290219000Y-130878000D02*
X290219000Y-131386000D01*
X290981000Y-131894000D02*
X290981000Y-132402000D01*
X290981000Y-132402000D02*
X290219000Y-132402000D01*
X290219000Y-132402000D02*
X290219000Y-131894000D01*
G04 #@! TO.C,C7*
X286516000Y-131139000D02*
X286008000Y-131139000D01*
X286008000Y-131139000D02*
X286008000Y-131901000D01*
X286008000Y-131901000D02*
X286516000Y-131901000D01*
X287024000Y-131139000D02*
X287532000Y-131139000D01*
X287532000Y-131139000D02*
X287532000Y-131901000D01*
X287532000Y-131901000D02*
X287024000Y-131901000D01*
D18*
G04 #@! TO.C,U1*
X266670000Y-140525000D02*
X266670000Y-142975000D01*
X269970000Y-139800000D02*
X269970000Y-142975000D01*
D17*
G04 #@! TO.C,L1*
X268186000Y-138589000D02*
X267678000Y-138589000D01*
X267678000Y-138589000D02*
X267678000Y-139351000D01*
X267678000Y-139351000D02*
X268186000Y-139351000D01*
X268694000Y-138589000D02*
X269202000Y-138589000D01*
X269202000Y-138589000D02*
X269202000Y-139351000D01*
X269202000Y-139351000D02*
X268694000Y-139351000D01*
G04 #@! TO.C,C21*
X273689000Y-138854000D02*
X273689000Y-139362000D01*
X273689000Y-139362000D02*
X274451000Y-139362000D01*
X274451000Y-139362000D02*
X274451000Y-138854000D01*
X273689000Y-138346000D02*
X273689000Y-137838000D01*
X273689000Y-137838000D02*
X274451000Y-137838000D01*
X274451000Y-137838000D02*
X274451000Y-138346000D01*
D16*
G04 #@! TO.C,F1*
X277470000Y-128250000D02*
X277470000Y-128750000D01*
X278530000Y-128750000D02*
X278530000Y-128250000D01*
D17*
G04 #@! TO.C,C34*
X275459000Y-129294000D02*
X275459000Y-129802000D01*
X275459000Y-129802000D02*
X276221000Y-129802000D01*
X276221000Y-129802000D02*
X276221000Y-129294000D01*
X275459000Y-128786000D02*
X275459000Y-128278000D01*
X275459000Y-128278000D02*
X276221000Y-128278000D01*
X276221000Y-128278000D02*
X276221000Y-128786000D01*
G04 #@! TO.C,C33*
X273346000Y-129069000D02*
X272838000Y-129069000D01*
X272838000Y-129069000D02*
X272838000Y-129831000D01*
X272838000Y-129831000D02*
X273346000Y-129831000D01*
X273854000Y-129069000D02*
X274362000Y-129069000D01*
X274362000Y-129069000D02*
X274362000Y-129831000D01*
X274362000Y-129831000D02*
X273854000Y-129831000D01*
D19*
G04 #@! TO.C,P2*
X282770000Y-130830000D02*
X280230000Y-130830000D01*
X280230000Y-130830000D02*
X280230000Y-125750000D01*
X280230000Y-125750000D02*
X282770000Y-125750000D01*
X282770000Y-125750000D02*
X282770000Y-130830000D01*
D16*
G04 #@! TO.C,D2*
X280990000Y-137950000D02*
X279990000Y-137950000D01*
X279990000Y-137950000D02*
X279990000Y-140050000D01*
X280990000Y-137950000D02*
X280990000Y-140050000D01*
D17*
G04 #@! TO.C,C11*
X285694000Y-139171000D02*
X286202000Y-139171000D01*
X286202000Y-139171000D02*
X286202000Y-138409000D01*
X286202000Y-138409000D02*
X285694000Y-138409000D01*
X285186000Y-139171000D02*
X284678000Y-139171000D01*
X284678000Y-139171000D02*
X284678000Y-138409000D01*
X284678000Y-138409000D02*
X285186000Y-138409000D01*
G04 #@! TO.C,C6*
X289881000Y-131416000D02*
X289881000Y-130908000D01*
X289881000Y-130908000D02*
X289119000Y-130908000D01*
X289119000Y-130908000D02*
X289119000Y-131416000D01*
X289881000Y-131924000D02*
X289881000Y-132432000D01*
X289881000Y-132432000D02*
X289119000Y-132432000D01*
X289119000Y-132432000D02*
X289119000Y-131924000D01*
G04 #@! TO.C,C2*
X270659000Y-142704000D02*
X270659000Y-143212000D01*
X270659000Y-143212000D02*
X271421000Y-143212000D01*
X271421000Y-143212000D02*
X271421000Y-142704000D01*
X270659000Y-142196000D02*
X270659000Y-141688000D01*
X270659000Y-141688000D02*
X271421000Y-141688000D01*
X271421000Y-141688000D02*
X271421000Y-142196000D01*
G04 #@! TO.C,C1*
X271759000Y-142714000D02*
X271759000Y-143222000D01*
X271759000Y-143222000D02*
X272521000Y-143222000D01*
X272521000Y-143222000D02*
X272521000Y-142714000D01*
X271759000Y-142206000D02*
X271759000Y-141698000D01*
X271759000Y-141698000D02*
X272521000Y-141698000D01*
X272521000Y-141698000D02*
X272521000Y-142206000D01*
G04 #@! TO.C,R4*
X292231000Y-133396420D02*
X292231000Y-132888420D01*
X292231000Y-132888420D02*
X291469000Y-132888420D01*
X291469000Y-132888420D02*
X291469000Y-133396420D01*
X292231000Y-133904420D02*
X292231000Y-134412420D01*
X292231000Y-134412420D02*
X291469000Y-134412420D01*
X291469000Y-134412420D02*
X291469000Y-133904420D01*
G04 #@! TO.C,R3*
X292519473Y-136053892D02*
X293027473Y-136053892D01*
X293027473Y-136053892D02*
X293027473Y-135291892D01*
X293027473Y-135291892D02*
X292519473Y-135291892D01*
X292011473Y-136053892D02*
X291503473Y-136053892D01*
X291503473Y-136053892D02*
X291503473Y-135291892D01*
X291503473Y-135291892D02*
X292011473Y-135291892D01*
G04 #@! TO.C,R2*
X292206000Y-137995580D02*
X292206000Y-137487580D01*
X292206000Y-137487580D02*
X291444000Y-137487580D01*
X291444000Y-137487580D02*
X291444000Y-137995580D01*
X292206000Y-138503580D02*
X292206000Y-139011580D01*
X292206000Y-139011580D02*
X291444000Y-139011580D01*
X291444000Y-139011580D02*
X291444000Y-138503580D01*
G04 #@! TO.C,R1*
X292519893Y-137128892D02*
X293027893Y-137128892D01*
X293027893Y-137128892D02*
X293027893Y-136366892D01*
X293027893Y-136366892D02*
X292519893Y-136366892D01*
X292011893Y-137128892D02*
X291503893Y-137128892D01*
X291503893Y-137128892D02*
X291503893Y-136366892D01*
X291503893Y-136366892D02*
X292011893Y-136366892D01*
D16*
G04 #@! TO.C,D1*
X279740000Y-137950000D02*
X278740000Y-137950000D01*
X278740000Y-137950000D02*
X278740000Y-140050000D01*
X279740000Y-137950000D02*
X279740000Y-140050000D01*
D19*
G04 #@! TO.C,P1*
X293650000Y-145720000D02*
X291110000Y-145720000D01*
X291110000Y-145720000D02*
X291110000Y-140640000D01*
X291110000Y-140640000D02*
X293650000Y-140640000D01*
X293650000Y-140640000D02*
X293650000Y-145720000D01*
D20*
G04 #@! TO.C,L4*
X273313000Y-139255000D02*
X271027000Y-139255000D01*
X271027000Y-139255000D02*
X271027000Y-137985000D01*
X271027000Y-137985000D02*
X273313000Y-137985000D01*
X273313000Y-137985000D02*
X273313000Y-139255000D01*
D18*
G04 #@! TO.C,X1*
X272500000Y-134050000D02*
X272500000Y-134100000D01*
X272500000Y-134050000D02*
X272500000Y-134000000D01*
X270500000Y-134050000D02*
X270500000Y-134100000D01*
X270500000Y-134050000D02*
X270500000Y-134000000D01*
X271500000Y-134850000D02*
X271650000Y-134850000D01*
X271500000Y-134850000D02*
X271350000Y-134850000D01*
X271500000Y-133250000D02*
X271650000Y-133250000D01*
X271500000Y-133250000D02*
X271350000Y-133250000D01*
D17*
G04 #@! TO.C,C28*
X275831000Y-140296000D02*
X275831000Y-139788000D01*
X275831000Y-139788000D02*
X275069000Y-139788000D01*
X275069000Y-139788000D02*
X275069000Y-140296000D01*
X275831000Y-140804000D02*
X275831000Y-141312000D01*
X275831000Y-141312000D02*
X275069000Y-141312000D01*
X275069000Y-141312000D02*
X275069000Y-140804000D01*
G04 #@! TO.C,C26*
X273454000Y-140581000D02*
X273962000Y-140581000D01*
X273962000Y-140581000D02*
X273962000Y-139819000D01*
X273962000Y-139819000D02*
X273454000Y-139819000D01*
X272946000Y-140581000D02*
X272438000Y-140581000D01*
X272438000Y-140581000D02*
X272438000Y-139819000D01*
X272438000Y-139819000D02*
X272946000Y-139819000D01*
G04 #@! TO.C,C24*
X270181000Y-133946000D02*
X270181000Y-133438000D01*
X270181000Y-133438000D02*
X269419000Y-133438000D01*
X269419000Y-133438000D02*
X269419000Y-133946000D01*
X270181000Y-134454000D02*
X270181000Y-134962000D01*
X270181000Y-134962000D02*
X269419000Y-134962000D01*
X269419000Y-134962000D02*
X269419000Y-134454000D01*
G04 #@! TO.C,C25*
X272819000Y-134354000D02*
X272819000Y-134862000D01*
X272819000Y-134862000D02*
X273581000Y-134862000D01*
X273581000Y-134862000D02*
X273581000Y-134354000D01*
X272819000Y-133846000D02*
X272819000Y-133338000D01*
X272819000Y-133338000D02*
X273581000Y-133338000D01*
X273581000Y-133338000D02*
X273581000Y-133846000D01*
G04 #@! TO.C,C29*
X277231000Y-140296000D02*
X277231000Y-139788000D01*
X277231000Y-139788000D02*
X276469000Y-139788000D01*
X276469000Y-139788000D02*
X276469000Y-140296000D01*
X277231000Y-140804000D02*
X277231000Y-141312000D01*
X277231000Y-141312000D02*
X276469000Y-141312000D01*
X276469000Y-141312000D02*
X276469000Y-140804000D01*
D18*
G04 #@! TO.C,A1*
X266645000Y-126673000D02*
X271445000Y-126673000D01*
X271445000Y-126673000D02*
X271445000Y-128673000D01*
X271345000Y-128673000D02*
X266645000Y-128673000D01*
X266645000Y-128673000D02*
X266645000Y-126673000D01*
X271445000Y-128673000D02*
X271345000Y-128673000D01*
D17*
G04 #@! TO.C,L6*
X272654000Y-128081000D02*
X273162000Y-128081000D01*
X273162000Y-128081000D02*
X273162000Y-127319000D01*
X273162000Y-127319000D02*
X272654000Y-127319000D01*
X272146000Y-128081000D02*
X271638000Y-128081000D01*
X271638000Y-128081000D02*
X271638000Y-127319000D01*
X271638000Y-127319000D02*
X272146000Y-127319000D01*
G04 #@! TO.C,L5*
X274381000Y-127846000D02*
X274381000Y-127338000D01*
X274381000Y-127338000D02*
X273619000Y-127338000D01*
X273619000Y-127338000D02*
X273619000Y-127846000D01*
X274381000Y-128354000D02*
X274381000Y-128862000D01*
X274381000Y-128862000D02*
X273619000Y-128862000D01*
X273619000Y-128862000D02*
X273619000Y-128354000D01*
G04 #@! TO.C,C30*
X275854000Y-128081000D02*
X276362000Y-128081000D01*
X276362000Y-128081000D02*
X276362000Y-127319000D01*
X276362000Y-127319000D02*
X275854000Y-127319000D01*
X275346000Y-128081000D02*
X274838000Y-128081000D01*
X274838000Y-128081000D02*
X274838000Y-127319000D01*
X274838000Y-127319000D02*
X275346000Y-127319000D01*
G04 #@! TO.C,L3*
X271926000Y-136889000D02*
X271418000Y-136889000D01*
X271418000Y-136889000D02*
X271418000Y-137651000D01*
X271418000Y-137651000D02*
X271926000Y-137651000D01*
X272434000Y-136889000D02*
X272942000Y-136889000D01*
X272942000Y-136889000D02*
X272942000Y-137651000D01*
X272942000Y-137651000D02*
X272434000Y-137651000D01*
D20*
G04 #@! TO.C,C23*
X273643000Y-136635000D02*
X271357000Y-136635000D01*
X271357000Y-136635000D02*
X271357000Y-135365000D01*
X271357000Y-135365000D02*
X273643000Y-135365000D01*
X273643000Y-135365000D02*
X273643000Y-136635000D01*
D18*
G04 #@! TO.C,U3*
X274675000Y-130875000D02*
X275275000Y-130875000D01*
X280925000Y-137125000D02*
X280325000Y-137125000D01*
X280925000Y-130875000D02*
X280325000Y-130875000D01*
X274675000Y-137125000D02*
X274675000Y-136525000D01*
X280925000Y-137125000D02*
X280925000Y-136525000D01*
X280925000Y-130875000D02*
X280925000Y-131475000D01*
X274675000Y-130875000D02*
X274675000Y-131475000D01*
D16*
G04 #@! TO.C,X2*
X274950000Y-139650000D02*
X277350000Y-139650000D01*
X277350000Y-139650000D02*
X277350000Y-138050000D01*
X277350000Y-138050000D02*
X274950000Y-138050000D01*
G04 #@! TO.C,C9*
X287810000Y-130810000D02*
X287810000Y-131310000D01*
X288750000Y-131310000D02*
X288750000Y-130810000D01*
D18*
G04 #@! TO.C,U6*
X285835000Y-141015000D02*
X283685000Y-141015000D01*
X286660000Y-143265000D02*
X283685000Y-143265000D01*
D12*
G04 #@! TO.C,Q1*
X288590000Y-143080000D02*
X288590000Y-142380000D01*
X288460000Y-143155000D02*
X287460000Y-143155000D01*
G04 #@! TO.C,R11*
D17*
X292969057Y-132918988D02*
X292867457Y-132752074D01*
X292794885Y-132918988D02*
X292794885Y-132568468D01*
X292911000Y-132568468D01*
X292940028Y-132585160D01*
X292954542Y-132601851D01*
X292969057Y-132635234D01*
X292969057Y-132685308D01*
X292954542Y-132718691D01*
X292940028Y-132735382D01*
X292911000Y-132752074D01*
X292794885Y-132752074D01*
X293259342Y-132918988D02*
X293085171Y-132918988D01*
X293172257Y-132918988D02*
X293172257Y-132568468D01*
X293143228Y-132618542D01*
X293114200Y-132651925D01*
X293085171Y-132668617D01*
X293549628Y-132918988D02*
X293375457Y-132918988D01*
X293462542Y-132918988D02*
X293462542Y-132568468D01*
X293433514Y-132618542D01*
X293404485Y-132651925D01*
X293375457Y-132668617D01*
G04 #@! TO.C,R6*
X293498148Y-134165800D02*
X293331234Y-134267400D01*
X293498148Y-134339971D02*
X293147628Y-134339971D01*
X293147628Y-134223857D01*
X293164320Y-134194828D01*
X293181011Y-134180314D01*
X293214394Y-134165800D01*
X293264468Y-134165800D01*
X293297851Y-134180314D01*
X293314542Y-134194828D01*
X293331234Y-134223857D01*
X293331234Y-134339971D01*
X293147628Y-133904542D02*
X293147628Y-133962600D01*
X293164320Y-133991628D01*
X293181011Y-134006142D01*
X293231085Y-134035171D01*
X293297851Y-134049685D01*
X293431382Y-134049685D01*
X293464765Y-134035171D01*
X293481457Y-134020657D01*
X293498148Y-133991628D01*
X293498148Y-133933571D01*
X293481457Y-133904542D01*
X293464765Y-133890028D01*
X293431382Y-133875514D01*
X293347925Y-133875514D01*
X293314542Y-133890028D01*
X293297851Y-133904542D01*
X293281160Y-133933571D01*
X293281160Y-133991628D01*
X293297851Y-134020657D01*
X293314542Y-134035171D01*
X293347925Y-134049685D01*
G04 #@! TO.C,P3*
D18*
X300252380Y-143348095D02*
X299252380Y-143348095D01*
X299252380Y-142967142D01*
X299300000Y-142871904D01*
X299347619Y-142824285D01*
X299442857Y-142776666D01*
X299585714Y-142776666D01*
X299680952Y-142824285D01*
X299728571Y-142871904D01*
X299776190Y-142967142D01*
X299776190Y-143348095D01*
X299252380Y-142443333D02*
X299252380Y-141824285D01*
X299633333Y-142157619D01*
X299633333Y-142014761D01*
X299680952Y-141919523D01*
X299728571Y-141871904D01*
X299823809Y-141824285D01*
X300061904Y-141824285D01*
X300157142Y-141871904D01*
X300204761Y-141919523D01*
X300252380Y-142014761D01*
X300252380Y-142300476D01*
X300204761Y-142395714D01*
X300157142Y-142443333D01*
G04 #@! TO.C,R5*
D17*
X279108568Y-142370800D02*
X278941654Y-142472400D01*
X279108568Y-142544971D02*
X278758048Y-142544971D01*
X278758048Y-142428857D01*
X278774740Y-142399828D01*
X278791431Y-142385314D01*
X278824814Y-142370800D01*
X278874888Y-142370800D01*
X278908271Y-142385314D01*
X278924962Y-142399828D01*
X278941654Y-142428857D01*
X278941654Y-142544971D01*
X278758048Y-142095028D02*
X278758048Y-142240171D01*
X278924962Y-142254685D01*
X278908271Y-142240171D01*
X278891580Y-142211142D01*
X278891580Y-142138571D01*
X278908271Y-142109542D01*
X278924962Y-142095028D01*
X278958345Y-142080514D01*
X279041802Y-142080514D01*
X279075185Y-142095028D01*
X279091877Y-142109542D01*
X279108568Y-142138571D01*
X279108568Y-142211142D01*
X279091877Y-142240171D01*
X279075185Y-142254685D01*
G04 #@! TO.C,U5*
D10*
X273589047Y-142456190D02*
X273589047Y-142860952D01*
X273612857Y-142908571D01*
X273636666Y-142932380D01*
X273684285Y-142956190D01*
X273779523Y-142956190D01*
X273827142Y-142932380D01*
X273850952Y-142908571D01*
X273874761Y-142860952D01*
X273874761Y-142456190D01*
X274350952Y-142456190D02*
X274112857Y-142456190D01*
X274089047Y-142694285D01*
X274112857Y-142670476D01*
X274160476Y-142646666D01*
X274279523Y-142646666D01*
X274327142Y-142670476D01*
X274350952Y-142694285D01*
X274374761Y-142741904D01*
X274374761Y-142860952D01*
X274350952Y-142908571D01*
X274327142Y-142932380D01*
X274279523Y-142956190D01*
X274160476Y-142956190D01*
X274112857Y-142932380D01*
X274089047Y-142908571D01*
G04 #@! TO.C,D4*
D12*
X289150952Y-142456190D02*
X289150952Y-141956190D01*
X289270000Y-141956190D01*
X289341428Y-141980000D01*
X289389047Y-142027619D01*
X289412857Y-142075238D01*
X289436666Y-142170476D01*
X289436666Y-142241904D01*
X289412857Y-142337142D01*
X289389047Y-142384761D01*
X289341428Y-142432380D01*
X289270000Y-142456190D01*
X289150952Y-142456190D01*
X289865238Y-142122857D02*
X289865238Y-142456190D01*
X289746190Y-141932380D02*
X289627142Y-142289523D01*
X289936666Y-142289523D01*
G04 #@! TO.C,C18*
D17*
X288935185Y-144205942D02*
X288951877Y-144220457D01*
X288968568Y-144264000D01*
X288968568Y-144293028D01*
X288951877Y-144336571D01*
X288918494Y-144365600D01*
X288885111Y-144380114D01*
X288818345Y-144394628D01*
X288768271Y-144394628D01*
X288701505Y-144380114D01*
X288668122Y-144365600D01*
X288634740Y-144336571D01*
X288618048Y-144293028D01*
X288618048Y-144264000D01*
X288634740Y-144220457D01*
X288651431Y-144205942D01*
X288968568Y-143915657D02*
X288968568Y-144089828D01*
X288968568Y-144002742D02*
X288618048Y-144002742D01*
X288668122Y-144031771D01*
X288701505Y-144060800D01*
X288718197Y-144089828D01*
X288768271Y-143741485D02*
X288751580Y-143770514D01*
X288734888Y-143785028D01*
X288701505Y-143799542D01*
X288684814Y-143799542D01*
X288651431Y-143785028D01*
X288634740Y-143770514D01*
X288618048Y-143741485D01*
X288618048Y-143683428D01*
X288634740Y-143654400D01*
X288651431Y-143639885D01*
X288684814Y-143625371D01*
X288701505Y-143625371D01*
X288734888Y-143639885D01*
X288751580Y-143654400D01*
X288768271Y-143683428D01*
X288768271Y-143741485D01*
X288784962Y-143770514D01*
X288801654Y-143785028D01*
X288835037Y-143799542D01*
X288901802Y-143799542D01*
X288935185Y-143785028D01*
X288951877Y-143770514D01*
X288968568Y-143741485D01*
X288968568Y-143683428D01*
X288951877Y-143654400D01*
X288935185Y-143639885D01*
X288901802Y-143625371D01*
X288835037Y-143625371D01*
X288801654Y-143639885D01*
X288784962Y-143654400D01*
X288768271Y-143683428D01*
G04 #@! TO.C,R10*
X287188568Y-144205942D02*
X287021654Y-144307542D01*
X287188568Y-144380114D02*
X286838048Y-144380114D01*
X286838048Y-144264000D01*
X286854740Y-144234971D01*
X286871431Y-144220457D01*
X286904814Y-144205942D01*
X286954888Y-144205942D01*
X286988271Y-144220457D01*
X287004962Y-144234971D01*
X287021654Y-144264000D01*
X287021654Y-144380114D01*
X287188568Y-143915657D02*
X287188568Y-144089828D01*
X287188568Y-144002742D02*
X286838048Y-144002742D01*
X286888122Y-144031771D01*
X286921505Y-144060800D01*
X286938197Y-144089828D01*
X286838048Y-143726971D02*
X286838048Y-143697942D01*
X286854740Y-143668914D01*
X286871431Y-143654400D01*
X286904814Y-143639885D01*
X286971580Y-143625371D01*
X287055037Y-143625371D01*
X287121802Y-143639885D01*
X287155185Y-143654400D01*
X287171877Y-143668914D01*
X287188568Y-143697942D01*
X287188568Y-143726971D01*
X287171877Y-143756000D01*
X287155185Y-143770514D01*
X287121802Y-143785028D01*
X287055037Y-143799542D01*
X286971580Y-143799542D01*
X286904814Y-143785028D01*
X286871431Y-143770514D01*
X286854740Y-143756000D01*
X286838048Y-143726971D01*
G04 #@! TO.C,C16*
X284875185Y-144175942D02*
X284891877Y-144190457D01*
X284908568Y-144234000D01*
X284908568Y-144263028D01*
X284891877Y-144306571D01*
X284858494Y-144335600D01*
X284825111Y-144350114D01*
X284758345Y-144364628D01*
X284708271Y-144364628D01*
X284641505Y-144350114D01*
X284608122Y-144335600D01*
X284574740Y-144306571D01*
X284558048Y-144263028D01*
X284558048Y-144234000D01*
X284574740Y-144190457D01*
X284591431Y-144175942D01*
X284908568Y-143885657D02*
X284908568Y-144059828D01*
X284908568Y-143972742D02*
X284558048Y-143972742D01*
X284608122Y-144001771D01*
X284641505Y-144030800D01*
X284658197Y-144059828D01*
X284558048Y-143624400D02*
X284558048Y-143682457D01*
X284574740Y-143711485D01*
X284591431Y-143726000D01*
X284641505Y-143755028D01*
X284708271Y-143769542D01*
X284841802Y-143769542D01*
X284875185Y-143755028D01*
X284891877Y-143740514D01*
X284908568Y-143711485D01*
X284908568Y-143653428D01*
X284891877Y-143624400D01*
X284875185Y-143609885D01*
X284841802Y-143595371D01*
X284758345Y-143595371D01*
X284724962Y-143609885D01*
X284708271Y-143624400D01*
X284691580Y-143653428D01*
X284691580Y-143711485D01*
X284708271Y-143740514D01*
X284724962Y-143755028D01*
X284758345Y-143769542D01*
G04 #@! TO.C,R9*
X282089200Y-142298568D02*
X281987600Y-142131654D01*
X281915028Y-142298568D02*
X281915028Y-141948048D01*
X282031142Y-141948048D01*
X282060171Y-141964740D01*
X282074685Y-141981431D01*
X282089200Y-142014814D01*
X282089200Y-142064888D01*
X282074685Y-142098271D01*
X282060171Y-142114962D01*
X282031142Y-142131654D01*
X281915028Y-142131654D01*
X282234342Y-142298568D02*
X282292400Y-142298568D01*
X282321428Y-142281877D01*
X282335942Y-142265185D01*
X282364971Y-142215111D01*
X282379485Y-142148345D01*
X282379485Y-142014814D01*
X282364971Y-141981431D01*
X282350457Y-141964740D01*
X282321428Y-141948048D01*
X282263371Y-141948048D01*
X282234342Y-141964740D01*
X282219828Y-141981431D01*
X282205314Y-142014814D01*
X282205314Y-142098271D01*
X282219828Y-142131654D01*
X282234342Y-142148345D01*
X282263371Y-142165037D01*
X282321428Y-142165037D01*
X282350457Y-142148345D01*
X282364971Y-142131654D01*
X282379485Y-142098271D01*
G04 #@! TO.C,C17*
X287334057Y-141145185D02*
X287319542Y-141161877D01*
X287276000Y-141178568D01*
X287246971Y-141178568D01*
X287203428Y-141161877D01*
X287174400Y-141128494D01*
X287159885Y-141095111D01*
X287145371Y-141028345D01*
X287145371Y-140978271D01*
X287159885Y-140911505D01*
X287174400Y-140878122D01*
X287203428Y-140844740D01*
X287246971Y-140828048D01*
X287276000Y-140828048D01*
X287319542Y-140844740D01*
X287334057Y-140861431D01*
X287624342Y-141178568D02*
X287450171Y-141178568D01*
X287537257Y-141178568D02*
X287537257Y-140828048D01*
X287508228Y-140878122D01*
X287479200Y-140911505D01*
X287450171Y-140928197D01*
X287725942Y-140828048D02*
X287929142Y-140828048D01*
X287798514Y-141178568D01*
G04 #@! TO.C,D3*
D12*
X283216190Y-140419047D02*
X282716190Y-140419047D01*
X282716190Y-140300000D01*
X282740000Y-140228571D01*
X282787619Y-140180952D01*
X282835238Y-140157142D01*
X282930476Y-140133333D01*
X283001904Y-140133333D01*
X283097142Y-140157142D01*
X283144761Y-140180952D01*
X283192380Y-140228571D01*
X283216190Y-140300000D01*
X283216190Y-140419047D01*
X282716190Y-139966666D02*
X282716190Y-139657142D01*
X282906666Y-139823809D01*
X282906666Y-139752380D01*
X282930476Y-139704761D01*
X282954285Y-139680952D01*
X283001904Y-139657142D01*
X283120952Y-139657142D01*
X283168571Y-139680952D01*
X283192380Y-139704761D01*
X283216190Y-139752380D01*
X283216190Y-139895238D01*
X283192380Y-139942857D01*
X283168571Y-139966666D01*
G04 #@! TO.C,C22*
D17*
X281584057Y-137895185D02*
X281569542Y-137911877D01*
X281526000Y-137928568D01*
X281496971Y-137928568D01*
X281453428Y-137911877D01*
X281424400Y-137878494D01*
X281409885Y-137845111D01*
X281395371Y-137778345D01*
X281395371Y-137728271D01*
X281409885Y-137661505D01*
X281424400Y-137628122D01*
X281453428Y-137594740D01*
X281496971Y-137578048D01*
X281526000Y-137578048D01*
X281569542Y-137594740D01*
X281584057Y-137611431D01*
X281700171Y-137611431D02*
X281714685Y-137594740D01*
X281743714Y-137578048D01*
X281816285Y-137578048D01*
X281845314Y-137594740D01*
X281859828Y-137611431D01*
X281874342Y-137644814D01*
X281874342Y-137678197D01*
X281859828Y-137728271D01*
X281685657Y-137928568D01*
X281874342Y-137928568D01*
X281990457Y-137611431D02*
X282004971Y-137594740D01*
X282034000Y-137578048D01*
X282106571Y-137578048D01*
X282135600Y-137594740D01*
X282150114Y-137611431D01*
X282164628Y-137644814D01*
X282164628Y-137678197D01*
X282150114Y-137728271D01*
X281975942Y-137928568D01*
X282164628Y-137928568D01*
G04 #@! TO.C,R7*
X279118568Y-143330800D02*
X278951654Y-143432400D01*
X279118568Y-143504971D02*
X278768048Y-143504971D01*
X278768048Y-143388857D01*
X278784740Y-143359828D01*
X278801431Y-143345314D01*
X278834814Y-143330800D01*
X278884888Y-143330800D01*
X278918271Y-143345314D01*
X278934962Y-143359828D01*
X278951654Y-143388857D01*
X278951654Y-143504971D01*
X278768048Y-143229200D02*
X278768048Y-143026000D01*
X279118568Y-143156628D01*
G04 #@! TO.C,C14*
X277154057Y-143225185D02*
X277139542Y-143241877D01*
X277096000Y-143258568D01*
X277066971Y-143258568D01*
X277023428Y-143241877D01*
X276994400Y-143208494D01*
X276979885Y-143175111D01*
X276965371Y-143108345D01*
X276965371Y-143058271D01*
X276979885Y-142991505D01*
X276994400Y-142958122D01*
X277023428Y-142924740D01*
X277066971Y-142908048D01*
X277096000Y-142908048D01*
X277139542Y-142924740D01*
X277154057Y-142941431D01*
X277444342Y-143258568D02*
X277270171Y-143258568D01*
X277357257Y-143258568D02*
X277357257Y-142908048D01*
X277328228Y-142958122D01*
X277299200Y-142991505D01*
X277270171Y-143008197D01*
X277705600Y-143024888D02*
X277705600Y-143258568D01*
X277633028Y-142891357D02*
X277560457Y-143141728D01*
X277749142Y-143141728D01*
G04 #@! TO.C,C15*
X272525185Y-144415942D02*
X272541877Y-144430457D01*
X272558568Y-144474000D01*
X272558568Y-144503028D01*
X272541877Y-144546571D01*
X272508494Y-144575600D01*
X272475111Y-144590114D01*
X272408345Y-144604628D01*
X272358271Y-144604628D01*
X272291505Y-144590114D01*
X272258122Y-144575600D01*
X272224740Y-144546571D01*
X272208048Y-144503028D01*
X272208048Y-144474000D01*
X272224740Y-144430457D01*
X272241431Y-144415942D01*
X272558568Y-144125657D02*
X272558568Y-144299828D01*
X272558568Y-144212742D02*
X272208048Y-144212742D01*
X272258122Y-144241771D01*
X272291505Y-144270800D01*
X272308197Y-144299828D01*
X272208048Y-143849885D02*
X272208048Y-143995028D01*
X272374962Y-144009542D01*
X272358271Y-143995028D01*
X272341580Y-143966000D01*
X272341580Y-143893428D01*
X272358271Y-143864400D01*
X272374962Y-143849885D01*
X272408345Y-143835371D01*
X272491802Y-143835371D01*
X272525185Y-143849885D01*
X272541877Y-143864400D01*
X272558568Y-143893428D01*
X272558568Y-143966000D01*
X272541877Y-143995028D01*
X272525185Y-144009542D01*
G04 #@! TO.C,U2*
D11*
X286342857Y-137901428D02*
X286342857Y-138387142D01*
X286371428Y-138444285D01*
X286400000Y-138472857D01*
X286457142Y-138501428D01*
X286571428Y-138501428D01*
X286628571Y-138472857D01*
X286657142Y-138444285D01*
X286685714Y-138387142D01*
X286685714Y-137901428D01*
X286942857Y-137958571D02*
X286971428Y-137930000D01*
X287028571Y-137901428D01*
X287171428Y-137901428D01*
X287228571Y-137930000D01*
X287257142Y-137958571D01*
X287285714Y-138015714D01*
X287285714Y-138072857D01*
X287257142Y-138158571D01*
X286914285Y-138501428D01*
X287285714Y-138501428D01*
G04 #@! TO.C,C5*
D17*
X289809200Y-133585185D02*
X289794685Y-133601877D01*
X289751142Y-133618568D01*
X289722114Y-133618568D01*
X289678571Y-133601877D01*
X289649542Y-133568494D01*
X289635028Y-133535111D01*
X289620514Y-133468345D01*
X289620514Y-133418271D01*
X289635028Y-133351505D01*
X289649542Y-133318122D01*
X289678571Y-133284740D01*
X289722114Y-133268048D01*
X289751142Y-133268048D01*
X289794685Y-133284740D01*
X289809200Y-133301431D01*
X290084971Y-133268048D02*
X289939828Y-133268048D01*
X289925314Y-133434962D01*
X289939828Y-133418271D01*
X289968857Y-133401580D01*
X290041428Y-133401580D01*
X290070457Y-133418271D01*
X290084971Y-133434962D01*
X290099485Y-133468345D01*
X290099485Y-133551802D01*
X290084971Y-133585185D01*
X290070457Y-133601877D01*
X290041428Y-133618568D01*
X289968857Y-133618568D01*
X289939828Y-133601877D01*
X289925314Y-133585185D01*
G04 #@! TO.C,C3*
X289589200Y-138075185D02*
X289574685Y-138091877D01*
X289531142Y-138108568D01*
X289502114Y-138108568D01*
X289458571Y-138091877D01*
X289429542Y-138058494D01*
X289415028Y-138025111D01*
X289400514Y-137958345D01*
X289400514Y-137908271D01*
X289415028Y-137841505D01*
X289429542Y-137808122D01*
X289458571Y-137774740D01*
X289502114Y-137758048D01*
X289531142Y-137758048D01*
X289574685Y-137774740D01*
X289589200Y-137791431D01*
X289690800Y-137758048D02*
X289879485Y-137758048D01*
X289777885Y-137891580D01*
X289821428Y-137891580D01*
X289850457Y-137908271D01*
X289864971Y-137924962D01*
X289879485Y-137958345D01*
X289879485Y-138041802D01*
X289864971Y-138075185D01*
X289850457Y-138091877D01*
X289821428Y-138108568D01*
X289734342Y-138108568D01*
X289705314Y-138091877D01*
X289690800Y-138075185D01*
G04 #@! TO.C,C13*
X283614057Y-137195185D02*
X283599542Y-137211877D01*
X283556000Y-137228568D01*
X283526971Y-137228568D01*
X283483428Y-137211877D01*
X283454400Y-137178494D01*
X283439885Y-137145111D01*
X283425371Y-137078345D01*
X283425371Y-137028271D01*
X283439885Y-136961505D01*
X283454400Y-136928122D01*
X283483428Y-136894740D01*
X283526971Y-136878048D01*
X283556000Y-136878048D01*
X283599542Y-136894740D01*
X283614057Y-136911431D01*
X283904342Y-137228568D02*
X283730171Y-137228568D01*
X283817257Y-137228568D02*
X283817257Y-136878048D01*
X283788228Y-136928122D01*
X283759200Y-136961505D01*
X283730171Y-136978197D01*
X284005942Y-136878048D02*
X284194628Y-136878048D01*
X284093028Y-137011580D01*
X284136571Y-137011580D01*
X284165600Y-137028271D01*
X284180114Y-137044962D01*
X284194628Y-137078345D01*
X284194628Y-137161802D01*
X284180114Y-137195185D01*
X284165600Y-137211877D01*
X284136571Y-137228568D01*
X284049485Y-137228568D01*
X284020457Y-137211877D01*
X284005942Y-137195185D01*
G04 #@! TO.C,C12*
X282624057Y-137185185D02*
X282609542Y-137201877D01*
X282566000Y-137218568D01*
X282536971Y-137218568D01*
X282493428Y-137201877D01*
X282464400Y-137168494D01*
X282449885Y-137135111D01*
X282435371Y-137068345D01*
X282435371Y-137018271D01*
X282449885Y-136951505D01*
X282464400Y-136918122D01*
X282493428Y-136884740D01*
X282536971Y-136868048D01*
X282566000Y-136868048D01*
X282609542Y-136884740D01*
X282624057Y-136901431D01*
X282914342Y-137218568D02*
X282740171Y-137218568D01*
X282827257Y-137218568D02*
X282827257Y-136868048D01*
X282798228Y-136918122D01*
X282769200Y-136951505D01*
X282740171Y-136968197D01*
X283030457Y-136901431D02*
X283044971Y-136884740D01*
X283074000Y-136868048D01*
X283146571Y-136868048D01*
X283175600Y-136884740D01*
X283190114Y-136901431D01*
X283204628Y-136934814D01*
X283204628Y-136968197D01*
X283190114Y-137018271D01*
X283015942Y-137218568D01*
X283204628Y-137218568D01*
G04 #@! TO.C,C8*
X286915185Y-130660800D02*
X286931877Y-130675314D01*
X286948568Y-130718857D01*
X286948568Y-130747885D01*
X286931877Y-130791428D01*
X286898494Y-130820457D01*
X286865111Y-130834971D01*
X286798345Y-130849485D01*
X286748271Y-130849485D01*
X286681505Y-130834971D01*
X286648122Y-130820457D01*
X286614740Y-130791428D01*
X286598048Y-130747885D01*
X286598048Y-130718857D01*
X286614740Y-130675314D01*
X286631431Y-130660800D01*
X286748271Y-130486628D02*
X286731580Y-130515657D01*
X286714888Y-130530171D01*
X286681505Y-130544685D01*
X286664814Y-130544685D01*
X286631431Y-130530171D01*
X286614740Y-130515657D01*
X286598048Y-130486628D01*
X286598048Y-130428571D01*
X286614740Y-130399542D01*
X286631431Y-130385028D01*
X286664814Y-130370514D01*
X286681505Y-130370514D01*
X286714888Y-130385028D01*
X286731580Y-130399542D01*
X286748271Y-130428571D01*
X286748271Y-130486628D01*
X286764962Y-130515657D01*
X286781654Y-130530171D01*
X286815037Y-130544685D01*
X286881802Y-130544685D01*
X286915185Y-130530171D01*
X286931877Y-130515657D01*
X286948568Y-130486628D01*
X286948568Y-130428571D01*
X286931877Y-130399542D01*
X286915185Y-130385028D01*
X286881802Y-130370514D01*
X286815037Y-130370514D01*
X286781654Y-130385028D01*
X286764962Y-130399542D01*
X286748271Y-130428571D01*
G04 #@! TO.C,C10*
X290429057Y-130765185D02*
X290414542Y-130781877D01*
X290371000Y-130798568D01*
X290341971Y-130798568D01*
X290298428Y-130781877D01*
X290269400Y-130748494D01*
X290254885Y-130715111D01*
X290240371Y-130648345D01*
X290240371Y-130598271D01*
X290254885Y-130531505D01*
X290269400Y-130498122D01*
X290298428Y-130464740D01*
X290341971Y-130448048D01*
X290371000Y-130448048D01*
X290414542Y-130464740D01*
X290429057Y-130481431D01*
X290719342Y-130798568D02*
X290545171Y-130798568D01*
X290632257Y-130798568D02*
X290632257Y-130448048D01*
X290603228Y-130498122D01*
X290574200Y-130531505D01*
X290545171Y-130548197D01*
X290908028Y-130448048D02*
X290937057Y-130448048D01*
X290966085Y-130464740D01*
X290980600Y-130481431D01*
X290995114Y-130514814D01*
X291009628Y-130581580D01*
X291009628Y-130665037D01*
X290995114Y-130731802D01*
X290980600Y-130765185D01*
X290966085Y-130781877D01*
X290937057Y-130798568D01*
X290908028Y-130798568D01*
X290879000Y-130781877D01*
X290864485Y-130765185D01*
X290849971Y-130731802D01*
X290835457Y-130665037D01*
X290835457Y-130581580D01*
X290849971Y-130514814D01*
X290864485Y-130481431D01*
X290879000Y-130464740D01*
X290908028Y-130448048D01*
G04 #@! TO.C,C7*
X286905185Y-131550800D02*
X286921877Y-131565314D01*
X286938568Y-131608857D01*
X286938568Y-131637885D01*
X286921877Y-131681428D01*
X286888494Y-131710457D01*
X286855111Y-131724971D01*
X286788345Y-131739485D01*
X286738271Y-131739485D01*
X286671505Y-131724971D01*
X286638122Y-131710457D01*
X286604740Y-131681428D01*
X286588048Y-131637885D01*
X286588048Y-131608857D01*
X286604740Y-131565314D01*
X286621431Y-131550800D01*
X286588048Y-131449200D02*
X286588048Y-131246000D01*
X286938568Y-131376628D01*
G04 #@! TO.C,U1*
D21*
X266241428Y-140247142D02*
X266727142Y-140247142D01*
X266784285Y-140218571D01*
X266812857Y-140190000D01*
X266841428Y-140132857D01*
X266841428Y-140018571D01*
X266812857Y-139961428D01*
X266784285Y-139932857D01*
X266727142Y-139904285D01*
X266241428Y-139904285D01*
X266841428Y-139304285D02*
X266841428Y-139647142D01*
X266841428Y-139475714D02*
X266241428Y-139475714D01*
X266327142Y-139532857D01*
X266384285Y-139590000D01*
X266412857Y-139647142D01*
G04 #@! TO.C,L1*
D17*
X267598568Y-139020800D02*
X267598568Y-139165942D01*
X267248048Y-139165942D01*
X267598568Y-138759542D02*
X267598568Y-138933714D01*
X267598568Y-138846628D02*
X267248048Y-138846628D01*
X267298122Y-138875657D01*
X267331505Y-138904685D01*
X267348197Y-138933714D01*
G04 #@! TO.C,C21*
X273874057Y-138745185D02*
X273859542Y-138761877D01*
X273816000Y-138778568D01*
X273786971Y-138778568D01*
X273743428Y-138761877D01*
X273714400Y-138728494D01*
X273699885Y-138695111D01*
X273685371Y-138628345D01*
X273685371Y-138578271D01*
X273699885Y-138511505D01*
X273714400Y-138478122D01*
X273743428Y-138444740D01*
X273786971Y-138428048D01*
X273816000Y-138428048D01*
X273859542Y-138444740D01*
X273874057Y-138461431D01*
X273990171Y-138461431D02*
X274004685Y-138444740D01*
X274033714Y-138428048D01*
X274106285Y-138428048D01*
X274135314Y-138444740D01*
X274149828Y-138461431D01*
X274164342Y-138494814D01*
X274164342Y-138528197D01*
X274149828Y-138578271D01*
X273975657Y-138778568D01*
X274164342Y-138778568D01*
X274454628Y-138778568D02*
X274280457Y-138778568D01*
X274367542Y-138778568D02*
X274367542Y-138428048D01*
X274338514Y-138478122D01*
X274309485Y-138511505D01*
X274280457Y-138528197D01*
G04 #@! TO.C,F1*
D12*
X277843333Y-127064285D02*
X277676666Y-127064285D01*
X277676666Y-127326190D02*
X277676666Y-126826190D01*
X277914761Y-126826190D01*
X278367142Y-127326190D02*
X278081428Y-127326190D01*
X278224285Y-127326190D02*
X278224285Y-126826190D01*
X278176666Y-126897619D01*
X278129047Y-126945238D01*
X278081428Y-126969047D01*
G04 #@! TO.C,C34*
D17*
X275644057Y-129165185D02*
X275629542Y-129181877D01*
X275586000Y-129198568D01*
X275556971Y-129198568D01*
X275513428Y-129181877D01*
X275484400Y-129148494D01*
X275469885Y-129115111D01*
X275455371Y-129048345D01*
X275455371Y-128998271D01*
X275469885Y-128931505D01*
X275484400Y-128898122D01*
X275513428Y-128864740D01*
X275556971Y-128848048D01*
X275586000Y-128848048D01*
X275629542Y-128864740D01*
X275644057Y-128881431D01*
X275745657Y-128848048D02*
X275934342Y-128848048D01*
X275832742Y-128981580D01*
X275876285Y-128981580D01*
X275905314Y-128998271D01*
X275919828Y-129014962D01*
X275934342Y-129048345D01*
X275934342Y-129131802D01*
X275919828Y-129165185D01*
X275905314Y-129181877D01*
X275876285Y-129198568D01*
X275789200Y-129198568D01*
X275760171Y-129181877D01*
X275745657Y-129165185D01*
X276195600Y-128964888D02*
X276195600Y-129198568D01*
X276123028Y-128831357D02*
X276050457Y-129081728D01*
X276239142Y-129081728D01*
G04 #@! TO.C,C33*
X273714057Y-130275185D02*
X273699542Y-130291877D01*
X273656000Y-130308568D01*
X273626971Y-130308568D01*
X273583428Y-130291877D01*
X273554400Y-130258494D01*
X273539885Y-130225111D01*
X273525371Y-130158345D01*
X273525371Y-130108271D01*
X273539885Y-130041505D01*
X273554400Y-130008122D01*
X273583428Y-129974740D01*
X273626971Y-129958048D01*
X273656000Y-129958048D01*
X273699542Y-129974740D01*
X273714057Y-129991431D01*
X273815657Y-129958048D02*
X274004342Y-129958048D01*
X273902742Y-130091580D01*
X273946285Y-130091580D01*
X273975314Y-130108271D01*
X273989828Y-130124962D01*
X274004342Y-130158345D01*
X274004342Y-130241802D01*
X273989828Y-130275185D01*
X273975314Y-130291877D01*
X273946285Y-130308568D01*
X273859200Y-130308568D01*
X273830171Y-130291877D01*
X273815657Y-130275185D01*
X274105942Y-129958048D02*
X274294628Y-129958048D01*
X274193028Y-130091580D01*
X274236571Y-130091580D01*
X274265600Y-130108271D01*
X274280114Y-130124962D01*
X274294628Y-130158345D01*
X274294628Y-130241802D01*
X274280114Y-130275185D01*
X274265600Y-130291877D01*
X274236571Y-130308568D01*
X274149485Y-130308568D01*
X274120457Y-130291877D01*
X274105942Y-130275185D01*
G04 #@! TO.C,D2*
D12*
X280120952Y-139526190D02*
X280120952Y-139026190D01*
X280240000Y-139026190D01*
X280311428Y-139050000D01*
X280359047Y-139097619D01*
X280382857Y-139145238D01*
X280406666Y-139240476D01*
X280406666Y-139311904D01*
X280382857Y-139407142D01*
X280359047Y-139454761D01*
X280311428Y-139502380D01*
X280240000Y-139526190D01*
X280120952Y-139526190D01*
X280597142Y-139073809D02*
X280620952Y-139050000D01*
X280668571Y-139026190D01*
X280787619Y-139026190D01*
X280835238Y-139050000D01*
X280859047Y-139073809D01*
X280882857Y-139121428D01*
X280882857Y-139169047D01*
X280859047Y-139240476D01*
X280573333Y-139526190D01*
X280882857Y-139526190D01*
G04 #@! TO.C,C11*
D17*
X285575185Y-138985942D02*
X285591877Y-139000457D01*
X285608568Y-139044000D01*
X285608568Y-139073028D01*
X285591877Y-139116571D01*
X285558494Y-139145600D01*
X285525111Y-139160114D01*
X285458345Y-139174628D01*
X285408271Y-139174628D01*
X285341505Y-139160114D01*
X285308122Y-139145600D01*
X285274740Y-139116571D01*
X285258048Y-139073028D01*
X285258048Y-139044000D01*
X285274740Y-139000457D01*
X285291431Y-138985942D01*
X285608568Y-138695657D02*
X285608568Y-138869828D01*
X285608568Y-138782742D02*
X285258048Y-138782742D01*
X285308122Y-138811771D01*
X285341505Y-138840800D01*
X285358197Y-138869828D01*
X285608568Y-138405371D02*
X285608568Y-138579542D01*
X285608568Y-138492457D02*
X285258048Y-138492457D01*
X285308122Y-138521485D01*
X285341505Y-138550514D01*
X285358197Y-138579542D01*
G04 #@! TO.C,C6*
X289474200Y-130795185D02*
X289459685Y-130811877D01*
X289416142Y-130828568D01*
X289387114Y-130828568D01*
X289343571Y-130811877D01*
X289314542Y-130778494D01*
X289300028Y-130745111D01*
X289285514Y-130678345D01*
X289285514Y-130628271D01*
X289300028Y-130561505D01*
X289314542Y-130528122D01*
X289343571Y-130494740D01*
X289387114Y-130478048D01*
X289416142Y-130478048D01*
X289459685Y-130494740D01*
X289474200Y-130511431D01*
X289735457Y-130478048D02*
X289677400Y-130478048D01*
X289648371Y-130494740D01*
X289633857Y-130511431D01*
X289604828Y-130561505D01*
X289590314Y-130628271D01*
X289590314Y-130761802D01*
X289604828Y-130795185D01*
X289619342Y-130811877D01*
X289648371Y-130828568D01*
X289706428Y-130828568D01*
X289735457Y-130811877D01*
X289749971Y-130795185D01*
X289764485Y-130761802D01*
X289764485Y-130678345D01*
X289749971Y-130644962D01*
X289735457Y-130628271D01*
X289706428Y-130611580D01*
X289648371Y-130611580D01*
X289619342Y-130628271D01*
X289604828Y-130644962D01*
X289590314Y-130678345D01*
G04 #@! TO.C,C2*
X271019200Y-142535185D02*
X271004685Y-142551877D01*
X270961142Y-142568568D01*
X270932114Y-142568568D01*
X270888571Y-142551877D01*
X270859542Y-142518494D01*
X270845028Y-142485111D01*
X270830514Y-142418345D01*
X270830514Y-142368271D01*
X270845028Y-142301505D01*
X270859542Y-142268122D01*
X270888571Y-142234740D01*
X270932114Y-142218048D01*
X270961142Y-142218048D01*
X271004685Y-142234740D01*
X271019200Y-142251431D01*
X271135314Y-142251431D02*
X271149828Y-142234740D01*
X271178857Y-142218048D01*
X271251428Y-142218048D01*
X271280457Y-142234740D01*
X271294971Y-142251431D01*
X271309485Y-142284814D01*
X271309485Y-142318197D01*
X271294971Y-142368271D01*
X271120800Y-142568568D01*
X271309485Y-142568568D01*
G04 #@! TO.C,C1*
X272079200Y-142615185D02*
X272064685Y-142631877D01*
X272021142Y-142648568D01*
X271992114Y-142648568D01*
X271948571Y-142631877D01*
X271919542Y-142598494D01*
X271905028Y-142565111D01*
X271890514Y-142498345D01*
X271890514Y-142448271D01*
X271905028Y-142381505D01*
X271919542Y-142348122D01*
X271948571Y-142314740D01*
X271992114Y-142298048D01*
X272021142Y-142298048D01*
X272064685Y-142314740D01*
X272079200Y-142331431D01*
X272369485Y-142648568D02*
X272195314Y-142648568D01*
X272282400Y-142648568D02*
X272282400Y-142298048D01*
X272253371Y-142348122D01*
X272224342Y-142381505D01*
X272195314Y-142398197D01*
G04 #@! TO.C,R4*
X291799200Y-132783568D02*
X291697600Y-132616654D01*
X291625028Y-132783568D02*
X291625028Y-132433048D01*
X291741142Y-132433048D01*
X291770171Y-132449740D01*
X291784685Y-132466431D01*
X291799200Y-132499814D01*
X291799200Y-132549888D01*
X291784685Y-132583271D01*
X291770171Y-132599962D01*
X291741142Y-132616654D01*
X291625028Y-132616654D01*
X292060457Y-132549888D02*
X292060457Y-132783568D01*
X291987885Y-132416357D02*
X291915314Y-132666728D01*
X292104000Y-132666728D01*
G04 #@! TO.C,R3*
X293524041Y-135848692D02*
X293357127Y-135950292D01*
X293524041Y-136022863D02*
X293173521Y-136022863D01*
X293173521Y-135906749D01*
X293190213Y-135877720D01*
X293206904Y-135863206D01*
X293240287Y-135848692D01*
X293290361Y-135848692D01*
X293323744Y-135863206D01*
X293340435Y-135877720D01*
X293357127Y-135906749D01*
X293357127Y-136022863D01*
X293173521Y-135747092D02*
X293173521Y-135558406D01*
X293307053Y-135660006D01*
X293307053Y-135616463D01*
X293323744Y-135587434D01*
X293340435Y-135572920D01*
X293373818Y-135558406D01*
X293457275Y-135558406D01*
X293490658Y-135572920D01*
X293507350Y-135587434D01*
X293524041Y-135616463D01*
X293524041Y-135703549D01*
X293507350Y-135732577D01*
X293490658Y-135747092D01*
G04 #@! TO.C,R2*
X291333568Y-138849960D02*
X291166654Y-138951560D01*
X291333568Y-139024131D02*
X290983048Y-139024131D01*
X290983048Y-138908017D01*
X290999740Y-138878988D01*
X291016431Y-138864474D01*
X291049814Y-138849960D01*
X291099888Y-138849960D01*
X291133271Y-138864474D01*
X291149962Y-138878988D01*
X291166654Y-138908017D01*
X291166654Y-139024131D01*
X291016431Y-138733845D02*
X290999740Y-138719331D01*
X290983048Y-138690302D01*
X290983048Y-138617731D01*
X290999740Y-138588702D01*
X291016431Y-138574188D01*
X291049814Y-138559674D01*
X291083197Y-138559674D01*
X291133271Y-138574188D01*
X291333568Y-138748360D01*
X291333568Y-138559674D01*
G04 #@! TO.C,R1*
X293474041Y-136798692D02*
X293307127Y-136900292D01*
X293474041Y-136972863D02*
X293123521Y-136972863D01*
X293123521Y-136856749D01*
X293140213Y-136827720D01*
X293156904Y-136813206D01*
X293190287Y-136798692D01*
X293240361Y-136798692D01*
X293273744Y-136813206D01*
X293290435Y-136827720D01*
X293307127Y-136856749D01*
X293307127Y-136972863D01*
X293474041Y-136508406D02*
X293474041Y-136682577D01*
X293474041Y-136595492D02*
X293123521Y-136595492D01*
X293173595Y-136624520D01*
X293206978Y-136653549D01*
X293223670Y-136682577D01*
G04 #@! TO.C,D1*
D12*
X278895952Y-139526190D02*
X278895952Y-139026190D01*
X279015000Y-139026190D01*
X279086428Y-139050000D01*
X279134047Y-139097619D01*
X279157857Y-139145238D01*
X279181666Y-139240476D01*
X279181666Y-139311904D01*
X279157857Y-139407142D01*
X279134047Y-139454761D01*
X279086428Y-139502380D01*
X279015000Y-139526190D01*
X278895952Y-139526190D01*
X279657857Y-139526190D02*
X279372142Y-139526190D01*
X279515000Y-139526190D02*
X279515000Y-139026190D01*
X279467380Y-139097619D01*
X279419761Y-139145238D01*
X279372142Y-139169047D01*
G04 #@! TO.C,L4*
D22*
X270799809Y-138696200D02*
X270799809Y-138913914D01*
X270291809Y-138913914D01*
X270461142Y-138347857D02*
X270799809Y-138347857D01*
X270267619Y-138456714D02*
X270630476Y-138565571D01*
X270630476Y-138282542D01*
G04 #@! TO.C,X1*
D23*
X270445238Y-132476190D02*
X270778571Y-132976190D01*
X270778571Y-132476190D02*
X270445238Y-132976190D01*
X271230952Y-132976190D02*
X270945238Y-132976190D01*
X271088095Y-132976190D02*
X271088095Y-132476190D01*
X271040476Y-132547619D01*
X270992857Y-132595238D01*
X270945238Y-132619047D01*
G04 #@! TO.C,C28*
D17*
X274925185Y-140745942D02*
X274941877Y-140760457D01*
X274958568Y-140804000D01*
X274958568Y-140833028D01*
X274941877Y-140876571D01*
X274908494Y-140905600D01*
X274875111Y-140920114D01*
X274808345Y-140934628D01*
X274758271Y-140934628D01*
X274691505Y-140920114D01*
X274658122Y-140905600D01*
X274624740Y-140876571D01*
X274608048Y-140833028D01*
X274608048Y-140804000D01*
X274624740Y-140760457D01*
X274641431Y-140745942D01*
X274641431Y-140629828D02*
X274624740Y-140615314D01*
X274608048Y-140586285D01*
X274608048Y-140513714D01*
X274624740Y-140484685D01*
X274641431Y-140470171D01*
X274674814Y-140455657D01*
X274708197Y-140455657D01*
X274758271Y-140470171D01*
X274958568Y-140644342D01*
X274958568Y-140455657D01*
X274758271Y-140281485D02*
X274741580Y-140310514D01*
X274724888Y-140325028D01*
X274691505Y-140339542D01*
X274674814Y-140339542D01*
X274641431Y-140325028D01*
X274624740Y-140310514D01*
X274608048Y-140281485D01*
X274608048Y-140223428D01*
X274624740Y-140194400D01*
X274641431Y-140179885D01*
X274674814Y-140165371D01*
X274691505Y-140165371D01*
X274724888Y-140179885D01*
X274741580Y-140194400D01*
X274758271Y-140223428D01*
X274758271Y-140281485D01*
X274774962Y-140310514D01*
X274791654Y-140325028D01*
X274825037Y-140339542D01*
X274891802Y-140339542D01*
X274925185Y-140325028D01*
X274941877Y-140310514D01*
X274958568Y-140281485D01*
X274958568Y-140223428D01*
X274941877Y-140194400D01*
X274925185Y-140179885D01*
X274891802Y-140165371D01*
X274825037Y-140165371D01*
X274791654Y-140179885D01*
X274774962Y-140194400D01*
X274758271Y-140223428D01*
G04 #@! TO.C,C26*
X273265185Y-140395942D02*
X273281877Y-140410457D01*
X273298568Y-140454000D01*
X273298568Y-140483028D01*
X273281877Y-140526571D01*
X273248494Y-140555600D01*
X273215111Y-140570114D01*
X273148345Y-140584628D01*
X273098271Y-140584628D01*
X273031505Y-140570114D01*
X272998122Y-140555600D01*
X272964740Y-140526571D01*
X272948048Y-140483028D01*
X272948048Y-140454000D01*
X272964740Y-140410457D01*
X272981431Y-140395942D01*
X272981431Y-140279828D02*
X272964740Y-140265314D01*
X272948048Y-140236285D01*
X272948048Y-140163714D01*
X272964740Y-140134685D01*
X272981431Y-140120171D01*
X273014814Y-140105657D01*
X273048197Y-140105657D01*
X273098271Y-140120171D01*
X273298568Y-140294342D01*
X273298568Y-140105657D01*
X272948048Y-139844400D02*
X272948048Y-139902457D01*
X272964740Y-139931485D01*
X272981431Y-139946000D01*
X273031505Y-139975028D01*
X273098271Y-139989542D01*
X273231802Y-139989542D01*
X273265185Y-139975028D01*
X273281877Y-139960514D01*
X273298568Y-139931485D01*
X273298568Y-139873428D01*
X273281877Y-139844400D01*
X273265185Y-139829885D01*
X273231802Y-139815371D01*
X273148345Y-139815371D01*
X273114962Y-139829885D01*
X273098271Y-139844400D01*
X273081580Y-139873428D01*
X273081580Y-139931485D01*
X273098271Y-139960514D01*
X273114962Y-139975028D01*
X273148345Y-139989542D01*
G04 #@! TO.C,C24*
X269925185Y-133095942D02*
X269941877Y-133110457D01*
X269958568Y-133154000D01*
X269958568Y-133183028D01*
X269941877Y-133226571D01*
X269908494Y-133255600D01*
X269875111Y-133270114D01*
X269808345Y-133284628D01*
X269758271Y-133284628D01*
X269691505Y-133270114D01*
X269658122Y-133255600D01*
X269624740Y-133226571D01*
X269608048Y-133183028D01*
X269608048Y-133154000D01*
X269624740Y-133110457D01*
X269641431Y-133095942D01*
X269641431Y-132979828D02*
X269624740Y-132965314D01*
X269608048Y-132936285D01*
X269608048Y-132863714D01*
X269624740Y-132834685D01*
X269641431Y-132820171D01*
X269674814Y-132805657D01*
X269708197Y-132805657D01*
X269758271Y-132820171D01*
X269958568Y-132994342D01*
X269958568Y-132805657D01*
X269724888Y-132544400D02*
X269958568Y-132544400D01*
X269591357Y-132616971D02*
X269841728Y-132689542D01*
X269841728Y-132500857D01*
G04 #@! TO.C,C25*
X273325185Y-132995942D02*
X273341877Y-133010457D01*
X273358568Y-133054000D01*
X273358568Y-133083028D01*
X273341877Y-133126571D01*
X273308494Y-133155600D01*
X273275111Y-133170114D01*
X273208345Y-133184628D01*
X273158271Y-133184628D01*
X273091505Y-133170114D01*
X273058122Y-133155600D01*
X273024740Y-133126571D01*
X273008048Y-133083028D01*
X273008048Y-133054000D01*
X273024740Y-133010457D01*
X273041431Y-132995942D01*
X273041431Y-132879828D02*
X273024740Y-132865314D01*
X273008048Y-132836285D01*
X273008048Y-132763714D01*
X273024740Y-132734685D01*
X273041431Y-132720171D01*
X273074814Y-132705657D01*
X273108197Y-132705657D01*
X273158271Y-132720171D01*
X273358568Y-132894342D01*
X273358568Y-132705657D01*
X273008048Y-132429885D02*
X273008048Y-132575028D01*
X273174962Y-132589542D01*
X273158271Y-132575028D01*
X273141580Y-132546000D01*
X273141580Y-132473428D01*
X273158271Y-132444400D01*
X273174962Y-132429885D01*
X273208345Y-132415371D01*
X273291802Y-132415371D01*
X273325185Y-132429885D01*
X273341877Y-132444400D01*
X273358568Y-132473428D01*
X273358568Y-132546000D01*
X273341877Y-132575028D01*
X273325185Y-132589542D01*
G04 #@! TO.C,C29*
X276614057Y-140675185D02*
X276599542Y-140691877D01*
X276556000Y-140708568D01*
X276526971Y-140708568D01*
X276483428Y-140691877D01*
X276454400Y-140658494D01*
X276439885Y-140625111D01*
X276425371Y-140558345D01*
X276425371Y-140508271D01*
X276439885Y-140441505D01*
X276454400Y-140408122D01*
X276483428Y-140374740D01*
X276526971Y-140358048D01*
X276556000Y-140358048D01*
X276599542Y-140374740D01*
X276614057Y-140391431D01*
X276730171Y-140391431D02*
X276744685Y-140374740D01*
X276773714Y-140358048D01*
X276846285Y-140358048D01*
X276875314Y-140374740D01*
X276889828Y-140391431D01*
X276904342Y-140424814D01*
X276904342Y-140458197D01*
X276889828Y-140508271D01*
X276715657Y-140708568D01*
X276904342Y-140708568D01*
X277049485Y-140708568D02*
X277107542Y-140708568D01*
X277136571Y-140691877D01*
X277151085Y-140675185D01*
X277180114Y-140625111D01*
X277194628Y-140558345D01*
X277194628Y-140424814D01*
X277180114Y-140391431D01*
X277165600Y-140374740D01*
X277136571Y-140358048D01*
X277078514Y-140358048D01*
X277049485Y-140374740D01*
X277034971Y-140391431D01*
X277020457Y-140424814D01*
X277020457Y-140508271D01*
X277034971Y-140541654D01*
X277049485Y-140558345D01*
X277078514Y-140575037D01*
X277136571Y-140575037D01*
X277165600Y-140558345D01*
X277180114Y-140541654D01*
X277194628Y-140508271D01*
G04 #@! TO.C,L6*
X271899200Y-128558568D02*
X271754057Y-128558568D01*
X271754057Y-128208048D01*
X272131428Y-128208048D02*
X272073371Y-128208048D01*
X272044342Y-128224740D01*
X272029828Y-128241431D01*
X272000800Y-128291505D01*
X271986285Y-128358271D01*
X271986285Y-128491802D01*
X272000800Y-128525185D01*
X272015314Y-128541877D01*
X272044342Y-128558568D01*
X272102400Y-128558568D01*
X272131428Y-128541877D01*
X272145942Y-128525185D01*
X272160457Y-128491802D01*
X272160457Y-128408345D01*
X272145942Y-128374962D01*
X272131428Y-128358271D01*
X272102400Y-128341580D01*
X272044342Y-128341580D01*
X272015314Y-128358271D01*
X272000800Y-128374962D01*
X271986285Y-128408345D01*
G04 #@! TO.C,L5*
X273969200Y-127248568D02*
X273824057Y-127248568D01*
X273824057Y-126898048D01*
X274215942Y-126898048D02*
X274070800Y-126898048D01*
X274056285Y-127064962D01*
X274070800Y-127048271D01*
X274099828Y-127031580D01*
X274172400Y-127031580D01*
X274201428Y-127048271D01*
X274215942Y-127064962D01*
X274230457Y-127098345D01*
X274230457Y-127181802D01*
X274215942Y-127215185D01*
X274201428Y-127231877D01*
X274172400Y-127248568D01*
X274099828Y-127248568D01*
X274070800Y-127231877D01*
X274056285Y-127215185D01*
G04 #@! TO.C,C30*
X275404057Y-127165185D02*
X275389542Y-127181877D01*
X275346000Y-127198568D01*
X275316971Y-127198568D01*
X275273428Y-127181877D01*
X275244400Y-127148494D01*
X275229885Y-127115111D01*
X275215371Y-127048345D01*
X275215371Y-126998271D01*
X275229885Y-126931505D01*
X275244400Y-126898122D01*
X275273428Y-126864740D01*
X275316971Y-126848048D01*
X275346000Y-126848048D01*
X275389542Y-126864740D01*
X275404057Y-126881431D01*
X275505657Y-126848048D02*
X275694342Y-126848048D01*
X275592742Y-126981580D01*
X275636285Y-126981580D01*
X275665314Y-126998271D01*
X275679828Y-127014962D01*
X275694342Y-127048345D01*
X275694342Y-127131802D01*
X275679828Y-127165185D01*
X275665314Y-127181877D01*
X275636285Y-127198568D01*
X275549200Y-127198568D01*
X275520171Y-127181877D01*
X275505657Y-127165185D01*
X275883028Y-126848048D02*
X275912057Y-126848048D01*
X275941085Y-126864740D01*
X275955600Y-126881431D01*
X275970114Y-126914814D01*
X275984628Y-126981580D01*
X275984628Y-127065037D01*
X275970114Y-127131802D01*
X275955600Y-127165185D01*
X275941085Y-127181877D01*
X275912057Y-127198568D01*
X275883028Y-127198568D01*
X275854000Y-127181877D01*
X275839485Y-127165185D01*
X275824971Y-127131802D01*
X275810457Y-127065037D01*
X275810457Y-126981580D01*
X275824971Y-126914814D01*
X275839485Y-126881431D01*
X275854000Y-126864740D01*
X275883028Y-126848048D01*
G04 #@! TO.C,L3*
X271288568Y-137270800D02*
X271288568Y-137415942D01*
X270938048Y-137415942D01*
X270938048Y-137198228D02*
X270938048Y-137009542D01*
X271071580Y-137111142D01*
X271071580Y-137067600D01*
X271088271Y-137038571D01*
X271104962Y-137024057D01*
X271138345Y-137009542D01*
X271221802Y-137009542D01*
X271255185Y-137024057D01*
X271271877Y-137038571D01*
X271288568Y-137067600D01*
X271288568Y-137154685D01*
X271271877Y-137183714D01*
X271255185Y-137198228D01*
G04 #@! TO.C,C23*
D22*
X271151428Y-136313914D02*
X271175619Y-136335685D01*
X271199809Y-136401000D01*
X271199809Y-136444542D01*
X271175619Y-136509857D01*
X271127238Y-136553400D01*
X271078857Y-136575171D01*
X270982095Y-136596942D01*
X270909523Y-136596942D01*
X270812761Y-136575171D01*
X270764380Y-136553400D01*
X270716000Y-136509857D01*
X270691809Y-136444542D01*
X270691809Y-136401000D01*
X270716000Y-136335685D01*
X270740190Y-136313914D01*
X270740190Y-136139742D02*
X270716000Y-136117971D01*
X270691809Y-136074428D01*
X270691809Y-135965571D01*
X270716000Y-135922028D01*
X270740190Y-135900257D01*
X270788571Y-135878485D01*
X270836952Y-135878485D01*
X270909523Y-135900257D01*
X271199809Y-136161514D01*
X271199809Y-135878485D01*
X270691809Y-135726085D02*
X270691809Y-135443057D01*
X270885333Y-135595457D01*
X270885333Y-135530142D01*
X270909523Y-135486600D01*
X270933714Y-135464828D01*
X270982095Y-135443057D01*
X271103047Y-135443057D01*
X271151428Y-135464828D01*
X271175619Y-135486600D01*
X271199809Y-135530142D01*
X271199809Y-135660771D01*
X271175619Y-135704314D01*
X271151428Y-135726085D01*
G04 #@! TO.C,U3*
D24*
X273696190Y-131730952D02*
X274100952Y-131730952D01*
X274148571Y-131707142D01*
X274172380Y-131683333D01*
X274196190Y-131635714D01*
X274196190Y-131540476D01*
X274172380Y-131492857D01*
X274148571Y-131469047D01*
X274100952Y-131445238D01*
X273696190Y-131445238D01*
X273696190Y-131254761D02*
X273696190Y-130945238D01*
X273886666Y-131111904D01*
X273886666Y-131040476D01*
X273910476Y-130992857D01*
X273934285Y-130969047D01*
X273981904Y-130945238D01*
X274100952Y-130945238D01*
X274148571Y-130969047D01*
X274172380Y-130992857D01*
X274196190Y-131040476D01*
X274196190Y-131183333D01*
X274172380Y-131230952D01*
X274148571Y-131254761D01*
G04 #@! TO.C,X2*
D12*
X275930952Y-139223809D02*
X276330952Y-138957142D01*
X275930952Y-138957142D02*
X276330952Y-139223809D01*
X275969047Y-138823809D02*
X275950000Y-138804761D01*
X275930952Y-138766666D01*
X275930952Y-138671428D01*
X275950000Y-138633333D01*
X275969047Y-138614285D01*
X276007142Y-138595238D01*
X276045238Y-138595238D01*
X276102380Y-138614285D01*
X276330952Y-138842857D01*
X276330952Y-138595238D01*
G04 #@! TO.C,C9*
D11*
X288166666Y-130018571D02*
X288142857Y-130042380D01*
X288071428Y-130066190D01*
X288023809Y-130066190D01*
X287952380Y-130042380D01*
X287904761Y-129994761D01*
X287880952Y-129947142D01*
X287857142Y-129851904D01*
X287857142Y-129780476D01*
X287880952Y-129685238D01*
X287904761Y-129637619D01*
X287952380Y-129590000D01*
X288023809Y-129566190D01*
X288071428Y-129566190D01*
X288142857Y-129590000D01*
X288166666Y-129613809D01*
X288404761Y-130066190D02*
X288500000Y-130066190D01*
X288547619Y-130042380D01*
X288571428Y-130018571D01*
X288619047Y-129947142D01*
X288642857Y-129851904D01*
X288642857Y-129661428D01*
X288619047Y-129613809D01*
X288595238Y-129590000D01*
X288547619Y-129566190D01*
X288452380Y-129566190D01*
X288404761Y-129590000D01*
X288380952Y-129613809D01*
X288357142Y-129661428D01*
X288357142Y-129780476D01*
X288380952Y-129828095D01*
X288404761Y-129851904D01*
X288452380Y-129875714D01*
X288547619Y-129875714D01*
X288595238Y-129851904D01*
X288619047Y-129828095D01*
X288642857Y-129780476D01*
G04 #@! TO.C,U6*
D21*
X285722857Y-143391428D02*
X285722857Y-143877142D01*
X285751428Y-143934285D01*
X285780000Y-143962857D01*
X285837142Y-143991428D01*
X285951428Y-143991428D01*
X286008571Y-143962857D01*
X286037142Y-143934285D01*
X286065714Y-143877142D01*
X286065714Y-143391428D01*
X286608571Y-143391428D02*
X286494285Y-143391428D01*
X286437142Y-143420000D01*
X286408571Y-143448571D01*
X286351428Y-143534285D01*
X286322857Y-143648571D01*
X286322857Y-143877142D01*
X286351428Y-143934285D01*
X286380000Y-143962857D01*
X286437142Y-143991428D01*
X286551428Y-143991428D01*
X286608571Y-143962857D01*
X286637142Y-143934285D01*
X286665714Y-143877142D01*
X286665714Y-143734285D01*
X286637142Y-143677142D01*
X286608571Y-143648571D01*
X286551428Y-143620000D01*
X286437142Y-143620000D01*
X286380000Y-143648571D01*
X286351428Y-143677142D01*
X286322857Y-143734285D01*
G04 #@! TO.C,Q1*
X288362380Y-142163809D02*
X288314761Y-142140000D01*
X288267142Y-142092380D01*
X288195714Y-142020952D01*
X288148095Y-141997142D01*
X288100476Y-141997142D01*
X288124285Y-142116190D02*
X288076666Y-142092380D01*
X288029047Y-142044761D01*
X288005238Y-141949523D01*
X288005238Y-141782857D01*
X288029047Y-141687619D01*
X288076666Y-141640000D01*
X288124285Y-141616190D01*
X288219523Y-141616190D01*
X288267142Y-141640000D01*
X288314761Y-141687619D01*
X288338571Y-141782857D01*
X288338571Y-141949523D01*
X288314761Y-142044761D01*
X288267142Y-142092380D01*
X288219523Y-142116190D01*
X288124285Y-142116190D01*
X288814761Y-142116190D02*
X288529047Y-142116190D01*
X288671904Y-142116190D02*
X288671904Y-141616190D01*
X288624285Y-141687619D01*
X288576666Y-141735238D01*
X288529047Y-141759047D01*
G04 #@! TD*
M02*
