M48
;DRILL file {KiCad (5.0.0)} date 04/26/19 12:00:12
;FORMAT={-:-/ absolute / inch / decimal}
FMAT,2
INCH,TZ
T1C0.0130
T2C0.0394
T3C0.0400
%
G90
G05
M72
T1
X10.5882Y-5.596
X10.59Y-5.339
X10.6327Y-5.5161
X10.6772Y-5.6929
X10.8102Y-5.0965
X10.8126Y-5.3941
X10.8217Y-5.5933
X10.8217Y-5.6445
X10.8315Y-5.1567
X10.8984Y-5.0559
X10.926Y-5.5854
X10.987Y-5.0591
X11.0236Y-5.6406
X11.0583Y-5.4
X11.0669Y-5.5819
X11.078Y-5.4878
X11.1713Y-5.448
X11.2217Y-5.2299
X11.2275Y-5.1744
X11.2626Y-5.3098
X11.3217Y-5.1102
X11.3283Y-5.5051
X11.348Y-5.4449
X11.352Y-5.5567
X11.3984Y-5.5323
X11.4118Y-5.6709
X11.4173Y-5.7091
X11.4705Y-5.1654
X11.5778Y-5.2293
X11.5778Y-5.3415
X11.5906Y-5.2795
T2
X11.6531Y-5.5894
X11.6531Y-5.6894
X11.6604Y-5.1484
X11.6604Y-5.2484
X11.6604Y-5.3484
X11.6604Y-5.4484
T3
X11.511Y-5.587
X11.511Y-5.687
X11.0827Y-5.0008
X11.0827Y-5.1008
T0
M30
