G04 #@! TF.GenerationSoftware,KiCad,Pcbnew,(5.0.0)*
G04 #@! TF.CreationDate,2019-04-26T12:00:10-04:00*
G04 #@! TF.ProjectId,StrainGauge2,53747261696E4761756765322E6B6963,rev?*
G04 #@! TF.SameCoordinates,Original*
G04 #@! TF.FileFunction,Legend,Bot*
G04 #@! TF.FilePolarity,Positive*
%FSLAX46Y46*%
G04 Gerber Fmt 4.6, Leading zero omitted, Abs format (unit mm)*
G04 Created by KiCad (PCBNEW (5.0.0)) date 04/26/19 12:00:10*
%MOMM*%
%LPD*%
G01*
G04 APERTURE LIST*
%ADD10C,0.127000*%
G04 APERTURE END LIST*
D10*
X278565142Y-141126714D02*
X278565142Y-141634714D01*
X278565142Y-141199285D02*
X278528857Y-141163000D01*
X278456285Y-141126714D01*
X278347428Y-141126714D01*
X278274857Y-141163000D01*
X278238571Y-141235571D01*
X278238571Y-141634714D01*
X277440285Y-141634714D02*
X277694285Y-141271857D01*
X277875714Y-141634714D02*
X277875714Y-140872714D01*
X277585428Y-140872714D01*
X277512857Y-140909000D01*
X277476571Y-140945285D01*
X277440285Y-141017857D01*
X277440285Y-141126714D01*
X277476571Y-141199285D01*
X277512857Y-141235571D01*
X277585428Y-141271857D01*
X277875714Y-141271857D01*
X276859714Y-141235571D02*
X277113714Y-141235571D01*
X277113714Y-141634714D02*
X277113714Y-140872714D01*
X276750857Y-140872714D01*
X276097714Y-140872714D02*
X276460571Y-140872714D01*
X276496857Y-141235571D01*
X276460571Y-141199285D01*
X276388000Y-141163000D01*
X276206571Y-141163000D01*
X276134000Y-141199285D01*
X276097714Y-141235571D01*
X276061428Y-141308142D01*
X276061428Y-141489571D01*
X276097714Y-141562142D01*
X276134000Y-141598428D01*
X276206571Y-141634714D01*
X276388000Y-141634714D01*
X276460571Y-141598428D01*
X276496857Y-141562142D01*
X275771142Y-140945285D02*
X275734857Y-140909000D01*
X275662285Y-140872714D01*
X275480857Y-140872714D01*
X275408285Y-140909000D01*
X275372000Y-140945285D01*
X275335714Y-141017857D01*
X275335714Y-141090428D01*
X275372000Y-141199285D01*
X275807428Y-141634714D01*
X275335714Y-141634714D01*
X275009142Y-141344428D02*
X274428571Y-141344428D01*
X274102000Y-141417000D02*
X273739142Y-141417000D01*
X274174571Y-141634714D02*
X273920571Y-140872714D01*
X273666571Y-141634714D01*
X273412571Y-141634714D02*
X273412571Y-140872714D01*
X273231142Y-140872714D01*
X273122285Y-140909000D01*
X273049714Y-140981571D01*
X273013428Y-141054142D01*
X272977142Y-141199285D01*
X272977142Y-141308142D01*
X273013428Y-141453285D01*
X273049714Y-141525857D01*
X273122285Y-141598428D01*
X273231142Y-141634714D01*
X273412571Y-141634714D01*
X272686857Y-141598428D02*
X272578000Y-141634714D01*
X272396571Y-141634714D01*
X272324000Y-141598428D01*
X272287714Y-141562142D01*
X272251428Y-141489571D01*
X272251428Y-141417000D01*
X272287714Y-141344428D01*
X272324000Y-141308142D01*
X272396571Y-141271857D01*
X272541714Y-141235571D01*
X272614285Y-141199285D01*
X272650571Y-141163000D01*
X272686857Y-141090428D01*
X272686857Y-141017857D01*
X272650571Y-140945285D01*
X272614285Y-140909000D01*
X272541714Y-140872714D01*
X272360285Y-140872714D01*
X272251428Y-140909000D01*
X271525714Y-141634714D02*
X271961142Y-141634714D01*
X271743428Y-141634714D02*
X271743428Y-140872714D01*
X271816000Y-140981571D01*
X271888571Y-141054142D01*
X271961142Y-141090428D01*
X271235428Y-140945285D02*
X271199142Y-140909000D01*
X271126571Y-140872714D01*
X270945142Y-140872714D01*
X270872571Y-140909000D01*
X270836285Y-140945285D01*
X270800000Y-141017857D01*
X270800000Y-141090428D01*
X270836285Y-141199285D01*
X271271714Y-141634714D01*
X270800000Y-141634714D01*
X270437142Y-141634714D02*
X270292000Y-141634714D01*
X270219428Y-141598428D01*
X270183142Y-141562142D01*
X270110571Y-141453285D01*
X270074285Y-141308142D01*
X270074285Y-141017857D01*
X270110571Y-140945285D01*
X270146857Y-140909000D01*
X270219428Y-140872714D01*
X270364571Y-140872714D01*
X270437142Y-140909000D01*
X270473428Y-140945285D01*
X270509714Y-141017857D01*
X270509714Y-141199285D01*
X270473428Y-141271857D01*
X270437142Y-141308142D01*
X270364571Y-141344428D01*
X270219428Y-141344428D01*
X270146857Y-141308142D01*
X270110571Y-141271857D01*
X270074285Y-141199285D01*
X269784000Y-140945285D02*
X269747714Y-140909000D01*
X269675142Y-140872714D01*
X269493714Y-140872714D01*
X269421142Y-140909000D01*
X269384857Y-140945285D01*
X269348571Y-141017857D01*
X269348571Y-141090428D01*
X269384857Y-141199285D01*
X269820285Y-141634714D01*
X269348571Y-141634714D01*
X281576857Y-142868428D02*
X281468000Y-142904714D01*
X281286571Y-142904714D01*
X281214000Y-142868428D01*
X281177714Y-142832142D01*
X281141428Y-142759571D01*
X281141428Y-142687000D01*
X281177714Y-142614428D01*
X281214000Y-142578142D01*
X281286571Y-142541857D01*
X281431714Y-142505571D01*
X281504285Y-142469285D01*
X281540571Y-142433000D01*
X281576857Y-142360428D01*
X281576857Y-142287857D01*
X281540571Y-142215285D01*
X281504285Y-142179000D01*
X281431714Y-142142714D01*
X281250285Y-142142714D01*
X281141428Y-142179000D01*
X280923714Y-142396714D02*
X280633428Y-142396714D01*
X280814857Y-142142714D02*
X280814857Y-142795857D01*
X280778571Y-142868428D01*
X280706000Y-142904714D01*
X280633428Y-142904714D01*
X280379428Y-142904714D02*
X280379428Y-142396714D01*
X280379428Y-142541857D02*
X280343142Y-142469285D01*
X280306857Y-142433000D01*
X280234285Y-142396714D01*
X280161714Y-142396714D01*
X279581142Y-142904714D02*
X279581142Y-142505571D01*
X279617428Y-142433000D01*
X279690000Y-142396714D01*
X279835142Y-142396714D01*
X279907714Y-142433000D01*
X279581142Y-142868428D02*
X279653714Y-142904714D01*
X279835142Y-142904714D01*
X279907714Y-142868428D01*
X279944000Y-142795857D01*
X279944000Y-142723285D01*
X279907714Y-142650714D01*
X279835142Y-142614428D01*
X279653714Y-142614428D01*
X279581142Y-142578142D01*
X279218285Y-142904714D02*
X279218285Y-142396714D01*
X279218285Y-142142714D02*
X279254571Y-142179000D01*
X279218285Y-142215285D01*
X279182000Y-142179000D01*
X279218285Y-142142714D01*
X279218285Y-142215285D01*
X278855428Y-142396714D02*
X278855428Y-142904714D01*
X278855428Y-142469285D02*
X278819142Y-142433000D01*
X278746571Y-142396714D01*
X278637714Y-142396714D01*
X278565142Y-142433000D01*
X278528857Y-142505571D01*
X278528857Y-142904714D01*
X277186285Y-142179000D02*
X277258857Y-142142714D01*
X277367714Y-142142714D01*
X277476571Y-142179000D01*
X277549142Y-142251571D01*
X277585428Y-142324142D01*
X277621714Y-142469285D01*
X277621714Y-142578142D01*
X277585428Y-142723285D01*
X277549142Y-142795857D01*
X277476571Y-142868428D01*
X277367714Y-142904714D01*
X277295142Y-142904714D01*
X277186285Y-142868428D01*
X277150000Y-142832142D01*
X277150000Y-142578142D01*
X277295142Y-142578142D01*
X276496857Y-142904714D02*
X276496857Y-142505571D01*
X276533142Y-142433000D01*
X276605714Y-142396714D01*
X276750857Y-142396714D01*
X276823428Y-142433000D01*
X276496857Y-142868428D02*
X276569428Y-142904714D01*
X276750857Y-142904714D01*
X276823428Y-142868428D01*
X276859714Y-142795857D01*
X276859714Y-142723285D01*
X276823428Y-142650714D01*
X276750857Y-142614428D01*
X276569428Y-142614428D01*
X276496857Y-142578142D01*
X275807428Y-142396714D02*
X275807428Y-142904714D01*
X276134000Y-142396714D02*
X276134000Y-142795857D01*
X276097714Y-142868428D01*
X276025142Y-142904714D01*
X275916285Y-142904714D01*
X275843714Y-142868428D01*
X275807428Y-142832142D01*
X275118000Y-142396714D02*
X275118000Y-143013571D01*
X275154285Y-143086142D01*
X275190571Y-143122428D01*
X275263142Y-143158714D01*
X275372000Y-143158714D01*
X275444571Y-143122428D01*
X275118000Y-142868428D02*
X275190571Y-142904714D01*
X275335714Y-142904714D01*
X275408285Y-142868428D01*
X275444571Y-142832142D01*
X275480857Y-142759571D01*
X275480857Y-142541857D01*
X275444571Y-142469285D01*
X275408285Y-142433000D01*
X275335714Y-142396714D01*
X275190571Y-142396714D01*
X275118000Y-142433000D01*
X274464857Y-142868428D02*
X274537428Y-142904714D01*
X274682571Y-142904714D01*
X274755142Y-142868428D01*
X274791428Y-142795857D01*
X274791428Y-142505571D01*
X274755142Y-142433000D01*
X274682571Y-142396714D01*
X274537428Y-142396714D01*
X274464857Y-142433000D01*
X274428571Y-142505571D01*
X274428571Y-142578142D01*
X274791428Y-142650714D01*
X273521428Y-142614428D02*
X272940857Y-142614428D01*
X271852285Y-142142714D02*
X271779714Y-142142714D01*
X271707142Y-142179000D01*
X271670857Y-142215285D01*
X271634571Y-142287857D01*
X271598285Y-142433000D01*
X271598285Y-142614428D01*
X271634571Y-142759571D01*
X271670857Y-142832142D01*
X271707142Y-142868428D01*
X271779714Y-142904714D01*
X271852285Y-142904714D01*
X271924857Y-142868428D01*
X271961142Y-142832142D01*
X271997428Y-142759571D01*
X272033714Y-142614428D01*
X272033714Y-142433000D01*
X271997428Y-142287857D01*
X271961142Y-142215285D01*
X271924857Y-142179000D01*
X271852285Y-142142714D01*
X270945142Y-142396714D02*
X270945142Y-142904714D01*
X271126571Y-142106428D02*
X271308000Y-142650714D01*
X270836285Y-142650714D01*
X270001714Y-142106428D02*
X270654857Y-143086142D01*
X269784000Y-142215285D02*
X269747714Y-142179000D01*
X269675142Y-142142714D01*
X269493714Y-142142714D01*
X269421142Y-142179000D01*
X269384857Y-142215285D01*
X269348571Y-142287857D01*
X269348571Y-142360428D01*
X269384857Y-142469285D01*
X269820285Y-142904714D01*
X269348571Y-142904714D01*
X268695428Y-142142714D02*
X268840571Y-142142714D01*
X268913142Y-142179000D01*
X268949428Y-142215285D01*
X269022000Y-142324142D01*
X269058285Y-142469285D01*
X269058285Y-142759571D01*
X269022000Y-142832142D01*
X268985714Y-142868428D01*
X268913142Y-142904714D01*
X268768000Y-142904714D01*
X268695428Y-142868428D01*
X268659142Y-142832142D01*
X268622857Y-142759571D01*
X268622857Y-142578142D01*
X268659142Y-142505571D01*
X268695428Y-142469285D01*
X268768000Y-142433000D01*
X268913142Y-142433000D01*
X268985714Y-142469285D01*
X269022000Y-142505571D01*
X269058285Y-142578142D01*
X267752000Y-142106428D02*
X268405142Y-143086142D01*
X267098857Y-142904714D02*
X267534285Y-142904714D01*
X267316571Y-142904714D02*
X267316571Y-142142714D01*
X267389142Y-142251571D01*
X267461714Y-142324142D01*
X267534285Y-142360428D01*
X266736000Y-142904714D02*
X266590857Y-142904714D01*
X266518285Y-142868428D01*
X266482000Y-142832142D01*
X266409428Y-142723285D01*
X266373142Y-142578142D01*
X266373142Y-142287857D01*
X266409428Y-142215285D01*
X266445714Y-142179000D01*
X266518285Y-142142714D01*
X266663428Y-142142714D01*
X266736000Y-142179000D01*
X266772285Y-142215285D01*
X266808571Y-142287857D01*
X266808571Y-142469285D01*
X266772285Y-142541857D01*
X266736000Y-142578142D01*
X266663428Y-142614428D01*
X266518285Y-142614428D01*
X266445714Y-142578142D01*
X266409428Y-142541857D01*
X266373142Y-142469285D01*
X278710285Y-143811857D02*
X278710285Y-144174714D01*
X278964285Y-143412714D02*
X278710285Y-143811857D01*
X278456285Y-143412714D01*
X277912000Y-144138428D02*
X277984571Y-144174714D01*
X278129714Y-144174714D01*
X278202285Y-144138428D01*
X278238571Y-144065857D01*
X278238571Y-143775571D01*
X278202285Y-143703000D01*
X278129714Y-143666714D01*
X277984571Y-143666714D01*
X277912000Y-143703000D01*
X277875714Y-143775571D01*
X277875714Y-143848142D01*
X278238571Y-143920714D01*
X277440285Y-144174714D02*
X277512857Y-144138428D01*
X277549142Y-144102142D01*
X277585428Y-144029571D01*
X277585428Y-143811857D01*
X277549142Y-143739285D01*
X277512857Y-143703000D01*
X277440285Y-143666714D01*
X277331428Y-143666714D01*
X277258857Y-143703000D01*
X277222571Y-143739285D01*
X277186285Y-143811857D01*
X277186285Y-144029571D01*
X277222571Y-144102142D01*
X277258857Y-144138428D01*
X277331428Y-144174714D01*
X277440285Y-144174714D01*
X275916285Y-144174714D02*
X276279142Y-144174714D01*
X276279142Y-143412714D01*
X275335714Y-144174714D02*
X275335714Y-143775571D01*
X275372000Y-143703000D01*
X275444571Y-143666714D01*
X275589714Y-143666714D01*
X275662285Y-143703000D01*
X275335714Y-144138428D02*
X275408285Y-144174714D01*
X275589714Y-144174714D01*
X275662285Y-144138428D01*
X275698571Y-144065857D01*
X275698571Y-143993285D01*
X275662285Y-143920714D01*
X275589714Y-143884428D01*
X275408285Y-143884428D01*
X275335714Y-143848142D01*
X274972857Y-144174714D02*
X274972857Y-143412714D01*
X274972857Y-143703000D02*
X274900285Y-143666714D01*
X274755142Y-143666714D01*
X274682571Y-143703000D01*
X274646285Y-143739285D01*
X274610000Y-143811857D01*
X274610000Y-144029571D01*
X274646285Y-144102142D01*
X274682571Y-144138428D01*
X274755142Y-144174714D01*
X274900285Y-144174714D01*
X274972857Y-144138428D01*
X274247142Y-144138428D02*
X274247142Y-144174714D01*
X274283428Y-144247285D01*
X274319714Y-144283571D01*
X272940857Y-143449000D02*
X273013428Y-143412714D01*
X273122285Y-143412714D01*
X273231142Y-143449000D01*
X273303714Y-143521571D01*
X273340000Y-143594142D01*
X273376285Y-143739285D01*
X273376285Y-143848142D01*
X273340000Y-143993285D01*
X273303714Y-144065857D01*
X273231142Y-144138428D01*
X273122285Y-144174714D01*
X273049714Y-144174714D01*
X272940857Y-144138428D01*
X272904571Y-144102142D01*
X272904571Y-143848142D01*
X273049714Y-143848142D01*
X272251428Y-144174714D02*
X272251428Y-143775571D01*
X272287714Y-143703000D01*
X272360285Y-143666714D01*
X272505428Y-143666714D01*
X272578000Y-143703000D01*
X272251428Y-144138428D02*
X272324000Y-144174714D01*
X272505428Y-144174714D01*
X272578000Y-144138428D01*
X272614285Y-144065857D01*
X272614285Y-143993285D01*
X272578000Y-143920714D01*
X272505428Y-143884428D01*
X272324000Y-143884428D01*
X272251428Y-143848142D01*
X271997428Y-143412714D02*
X271562000Y-143412714D01*
X271779714Y-144174714D02*
X271779714Y-143412714D01*
X271017714Y-144138428D02*
X271090285Y-144174714D01*
X271235428Y-144174714D01*
X271308000Y-144138428D01*
X271344285Y-144065857D01*
X271344285Y-143775571D01*
X271308000Y-143703000D01*
X271235428Y-143666714D01*
X271090285Y-143666714D01*
X271017714Y-143703000D01*
X270981428Y-143775571D01*
X270981428Y-143848142D01*
X271344285Y-143920714D01*
X270328285Y-144138428D02*
X270400857Y-144174714D01*
X270546000Y-144174714D01*
X270618571Y-144138428D01*
X270654857Y-144102142D01*
X270691142Y-144029571D01*
X270691142Y-143811857D01*
X270654857Y-143739285D01*
X270618571Y-143703000D01*
X270546000Y-143666714D01*
X270400857Y-143666714D01*
X270328285Y-143703000D01*
X270001714Y-144174714D02*
X270001714Y-143412714D01*
X269675142Y-144174714D02*
X269675142Y-143775571D01*
X269711428Y-143703000D01*
X269784000Y-143666714D01*
X269892857Y-143666714D01*
X269965428Y-143703000D01*
X270001714Y-143739285D01*
M02*
