G04 #@! TF.GenerationSoftware,KiCad,Pcbnew,(5.0.0)*
G04 #@! TF.CreationDate,2019-04-26T12:00:10-04:00*
G04 #@! TF.ProjectId,StrainGauge2,53747261696E4761756765322E6B6963,rev?*
G04 #@! TF.SameCoordinates,Original*
G04 #@! TF.FileFunction,Copper,L1,Top,Signal*
G04 #@! TF.FilePolarity,Positive*
%FSLAX46Y46*%
G04 Gerber Fmt 4.6, Leading zero omitted, Abs format (unit mm)*
G04 Created by KiCad (PCBNEW (5.0.0)) date 04/26/19 12:00:10*
%MOMM*%
%LPD*%
G01*
G04 APERTURE LIST*
G04 #@! TA.AperFunction,ComponentPad*
%ADD10R,1.700000X1.700000*%
G04 #@! TD*
G04 #@! TA.AperFunction,ComponentPad*
%ADD11O,1.700000X1.700000*%
G04 #@! TD*
G04 #@! TA.AperFunction,SMDPad,CuDef*
%ADD12R,0.599440X0.398780*%
G04 #@! TD*
G04 #@! TA.AperFunction,SMDPad,CuDef*
%ADD13R,0.398780X0.599440*%
G04 #@! TD*
G04 #@! TA.AperFunction,SMDPad,CuDef*
%ADD14R,0.650000X0.400000*%
G04 #@! TD*
G04 #@! TA.AperFunction,SMDPad,CuDef*
%ADD15R,0.800000X0.800000*%
G04 #@! TD*
G04 #@! TA.AperFunction,SMDPad,CuDef*
%ADD16O,0.600000X0.200000*%
G04 #@! TD*
G04 #@! TA.AperFunction,SMDPad,CuDef*
%ADD17R,0.600000X0.200000*%
G04 #@! TD*
G04 #@! TA.AperFunction,SMDPad,CuDef*
%ADD18O,0.200000X0.600000*%
G04 #@! TD*
G04 #@! TA.AperFunction,SMDPad,CuDef*
%ADD19R,0.200000X0.600000*%
G04 #@! TD*
G04 #@! TA.AperFunction,SMDPad,CuDef*
%ADD20R,1.325000X1.325000*%
G04 #@! TD*
G04 #@! TA.AperFunction,SMDPad,CuDef*
%ADD21R,0.300000X0.650000*%
G04 #@! TD*
G04 #@! TA.AperFunction,SMDPad,CuDef*
%ADD22R,1.240000X0.775000*%
G04 #@! TD*
G04 #@! TA.AperFunction,SMDPad,CuDef*
%ADD23R,0.700000X0.300000*%
G04 #@! TD*
G04 #@! TA.AperFunction,SMDPad,CuDef*
%ADD24R,0.600000X0.600000*%
G04 #@! TD*
G04 #@! TA.AperFunction,ComponentPad*
%ADD25R,1.524000X1.524000*%
G04 #@! TD*
G04 #@! TA.AperFunction,ComponentPad*
%ADD26C,1.524000*%
G04 #@! TD*
G04 #@! TA.AperFunction,SMDPad,CuDef*
%ADD27R,0.635000X1.143000*%
G04 #@! TD*
G04 #@! TA.AperFunction,SMDPad,CuDef*
%ADD28R,0.900000X0.800000*%
G04 #@! TD*
G04 #@! TA.AperFunction,SMDPad,CuDef*
%ADD29R,0.800000X1.600000*%
G04 #@! TD*
G04 #@! TA.AperFunction,SMDPad,CuDef*
%ADD30R,0.200000X0.800000*%
G04 #@! TD*
G04 #@! TA.AperFunction,SMDPad,CuDef*
%ADD31R,0.800000X0.200000*%
G04 #@! TD*
G04 #@! TA.AperFunction,SMDPad,CuDef*
%ADD32R,1.112500X1.112500*%
G04 #@! TD*
G04 #@! TA.AperFunction,SMDPad,CuDef*
%ADD33R,0.600000X1.100000*%
G04 #@! TD*
G04 #@! TA.AperFunction,SMDPad,CuDef*
%ADD34R,0.500000X0.600000*%
G04 #@! TD*
G04 #@! TA.AperFunction,SMDPad,CuDef*
%ADD35R,0.750000X0.300000*%
G04 #@! TD*
G04 #@! TA.AperFunction,SMDPad,CuDef*
%ADD36R,0.875000X0.725000*%
G04 #@! TD*
G04 #@! TA.AperFunction,SMDPad,CuDef*
%ADD37R,0.400000X0.700000*%
G04 #@! TD*
G04 #@! TA.AperFunction,SMDPad,CuDef*
%ADD38R,0.400000X0.250000*%
G04 #@! TD*
G04 #@! TA.AperFunction,ViaPad*
%ADD39C,0.508000*%
G04 #@! TD*
G04 #@! TA.AperFunction,Conductor*
%ADD40C,0.152000*%
G04 #@! TD*
G04 #@! TA.AperFunction,Conductor*
%ADD41C,0.457200*%
G04 #@! TD*
G04 #@! TA.AperFunction,Conductor*
%ADD42C,0.460000*%
G04 #@! TD*
G04 #@! TA.AperFunction,Conductor*
%ADD43C,0.229000*%
G04 #@! TD*
G04 #@! TA.AperFunction,Conductor*
%ADD44C,0.152400*%
G04 #@! TD*
G04 #@! TA.AperFunction,Conductor*
%ADD45C,0.254000*%
G04 #@! TD*
G04 APERTURE END LIST*
D10*
G04 #@! TO.P,P5,1*
G04 #@! TO.N,DGND*
X296175000Y-130770000D03*
D11*
G04 #@! TO.P,P5,2*
G04 #@! TO.N,/SG2_INPUT_1*
X296175000Y-133310000D03*
G04 #@! TO.P,P5,3*
G04 #@! TO.N,/SG1_INPUT_1*
X296175000Y-135850000D03*
G04 #@! TO.P,P5,4*
G04 #@! TO.N,DGND*
X296175000Y-138390000D03*
G04 #@! TD*
D12*
G04 #@! TO.P,R11,2*
G04 #@! TO.N,/SG2_INPUT_1*
X293150000Y-132300840D03*
G04 #@! TO.P,R11,1*
G04 #@! TO.N,DVDD*
X293150000Y-133200000D03*
G04 #@! TD*
D13*
G04 #@! TO.P,R6,1*
G04 #@! TO.N,/WB2_Vinverting*
X292900000Y-134100000D03*
G04 #@! TO.P,R6,2*
G04 #@! TO.N,DGND*
X293799160Y-134100000D03*
G04 #@! TD*
D10*
G04 #@! TO.P,P3,1*
G04 #@! TO.N,5V_in_charge*
X295990000Y-144510000D03*
D11*
G04 #@! TO.P,P3,2*
G04 #@! TO.N,DGND*
X295990000Y-141970000D03*
G04 #@! TD*
D13*
G04 #@! TO.P,R5,1*
G04 #@! TO.N,/AIN_BAT_DIV_VOLTAGE*
X278480420Y-142290000D03*
G04 #@! TO.P,R5,2*
G04 #@! TO.N,Net-(C14-Pad1)*
X279379580Y-142290000D03*
G04 #@! TD*
D14*
G04 #@! TO.P,U5,1*
G04 #@! TO.N,Net-(C14-Pad1)*
X275900000Y-143360000D03*
G04 #@! TO.P,U5,3*
G04 #@! TO.N,Net-(R8-Pad1)*
X275900000Y-142060000D03*
G04 #@! TO.P,U5,2*
G04 #@! TO.N,DGND*
X275900000Y-142710000D03*
G04 #@! TO.P,U5,4*
G04 #@! TO.N,/LOAD_SW_CTRL*
X274000000Y-142060000D03*
G04 #@! TO.P,U5,5*
G04 #@! TO.N,VCC*
X274000000Y-143360000D03*
G04 #@! TD*
D15*
G04 #@! TO.P,D4,2*
G04 #@! TO.N,5V_in_charge*
X289520000Y-142980000D03*
G04 #@! TO.P,D4,1*
G04 #@! TO.N,VCC*
X289520000Y-141380000D03*
G04 #@! TD*
D13*
G04 #@! TO.P,C18,1*
G04 #@! TO.N,DGND*
X288310420Y-144010000D03*
G04 #@! TO.P,C18,2*
G04 #@! TO.N,VCC*
X289209580Y-144010000D03*
G04 #@! TD*
G04 #@! TO.P,R10,1*
G04 #@! TO.N,5V_in_charge*
X286530420Y-144010000D03*
G04 #@! TO.P,R10,2*
G04 #@! TO.N,DGND*
X287429580Y-144010000D03*
G04 #@! TD*
G04 #@! TO.P,C16,1*
G04 #@! TO.N,5V_in_charge*
X285199580Y-144020000D03*
G04 #@! TO.P,C16,2*
G04 #@! TO.N,DGND*
X284300420Y-144020000D03*
G04 #@! TD*
D12*
G04 #@! TO.P,R9,1*
G04 #@! TO.N,Net-(R9-Pad1)*
X282140000Y-142639580D03*
G04 #@! TO.P,R9,2*
G04 #@! TO.N,DGND*
X282140000Y-141740420D03*
G04 #@! TD*
G04 #@! TO.P,C17,1*
G04 #@! TO.N,/BATT_IN*
X287490000Y-141469580D03*
G04 #@! TO.P,C17,2*
G04 #@! TO.N,DGND*
X287490000Y-140570420D03*
G04 #@! TD*
D15*
G04 #@! TO.P,D3,2*
G04 #@! TO.N,DVDD*
X282240000Y-140050000D03*
G04 #@! TO.P,D3,1*
G04 #@! TO.N,Net-(D3-Pad1)*
X283840000Y-140050000D03*
G04 #@! TD*
D12*
G04 #@! TO.P,C22,1*
G04 #@! TO.N,DVDD*
X281800000Y-137320420D03*
G04 #@! TO.P,C22,2*
G04 #@! TO.N,DGND*
X281800000Y-138219580D03*
G04 #@! TD*
D13*
G04 #@! TO.P,R7,1*
G04 #@! TO.N,DGND*
X279379580Y-143270000D03*
G04 #@! TO.P,R7,2*
G04 #@! TO.N,/AIN_BAT_DIV_VOLTAGE*
X278480420Y-143270000D03*
G04 #@! TD*
D12*
G04 #@! TO.P,C14,1*
G04 #@! TO.N,Net-(C14-Pad1)*
X277310000Y-143549580D03*
G04 #@! TO.P,C14,2*
G04 #@! TO.N,DGND*
X277310000Y-142650420D03*
G04 #@! TD*
D13*
G04 #@! TO.P,C15,1*
G04 #@! TO.N,VCC*
X272849580Y-144260000D03*
G04 #@! TO.P,C15,2*
G04 #@! TO.N,DGND*
X271950420Y-144260000D03*
G04 #@! TD*
D16*
G04 #@! TO.P,U2,1*
G04 #@! TO.N,Net-(C3-Pad1)*
X288660000Y-136870000D03*
D17*
G04 #@! TO.P,U2,2*
G04 #@! TO.N,Net-(C3-Pad2)*
X288660000Y-136470000D03*
G04 #@! TO.P,U2,3*
G04 #@! TO.N,/WB1_Vinverting*
X288660000Y-136070000D03*
G04 #@! TO.P,U2,4*
G04 #@! TO.N,/SG1_INPUT_1*
X288660000Y-135670000D03*
G04 #@! TO.P,U2,5*
G04 #@! TO.N,/WB2_Vinverting*
X288660000Y-135270000D03*
G04 #@! TO.P,U2,6*
G04 #@! TO.N,/SG2_INPUT_1*
X288660000Y-134870000D03*
G04 #@! TO.P,U2,7*
G04 #@! TO.N,Net-(C5-Pad1)*
X288660000Y-134470000D03*
D16*
G04 #@! TO.P,U2,8*
G04 #@! TO.N,Net-(C5-Pad2)*
X288660000Y-134070000D03*
D18*
G04 #@! TO.P,U2,9*
G04 #@! TO.N,Net-(C10-Pad2)*
X288160000Y-133570000D03*
D19*
G04 #@! TO.P,U2,10*
G04 #@! TO.N,DGND*
X287760000Y-133570000D03*
G04 #@! TO.P,U2,11*
G04 #@! TO.N,Net-(C9-Pad1)*
X287360000Y-133570000D03*
G04 #@! TO.P,U2,12*
G04 #@! TO.N,DVDD*
X286960000Y-133570000D03*
G04 #@! TO.P,U2,13*
G04 #@! TO.N,DGND*
X286560000Y-133570000D03*
G04 #@! TO.P,U2,14*
G04 #@! TO.N,DVDD*
X286160000Y-133570000D03*
G04 #@! TO.P,U2,15*
G04 #@! TO.N,/~PWDN/RESET*
X285760000Y-133570000D03*
D18*
G04 #@! TO.P,U2,16*
G04 #@! TO.N,DGND*
X285360000Y-133570000D03*
D16*
G04 #@! TO.P,U2,17*
G04 #@! TO.N,Net-(U2-Pad17)*
X284860000Y-134070000D03*
D17*
G04 #@! TO.P,U2,18*
G04 #@! TO.N,/SPI_~CS*
X284860000Y-134470000D03*
G04 #@! TO.P,U2,19*
G04 #@! TO.N,/DIN*
X284860000Y-134870000D03*
G04 #@! TO.P,U2,20*
G04 #@! TO.N,/SPI_SCLK*
X284860000Y-135270000D03*
G04 #@! TO.P,U2,21*
G04 #@! TO.N,/DOUT*
X284860000Y-135670000D03*
G04 #@! TO.P,U2,22*
G04 #@! TO.N,/~DRDY*
X284860000Y-136070000D03*
G04 #@! TO.P,U2,23*
G04 #@! TO.N,DVDD*
X284860000Y-136470000D03*
D16*
G04 #@! TO.P,U2,24*
G04 #@! TO.N,DGND*
X284860000Y-136870000D03*
D18*
G04 #@! TO.P,U2,25*
G04 #@! TO.N,Net-(U2-Pad25)*
X285360000Y-137370000D03*
D19*
G04 #@! TO.P,U2,26*
G04 #@! TO.N,Net-(U2-Pad26)*
X285760000Y-137370000D03*
G04 #@! TO.P,U2,27*
G04 #@! TO.N,Net-(C11-Pad1)*
X286160000Y-137370000D03*
G04 #@! TO.P,U2,28*
G04 #@! TO.N,Net-(U2-Pad28)*
X286560000Y-137370000D03*
G04 #@! TO.P,U2,29*
G04 #@! TO.N,Net-(U2-Pad29)*
X286960000Y-137370000D03*
G04 #@! TO.P,U2,30*
G04 #@! TO.N,Net-(U2-Pad30)*
X287360000Y-137370000D03*
G04 #@! TO.P,U2,31*
G04 #@! TO.N,DVDD*
X287760000Y-137370000D03*
D18*
G04 #@! TO.P,U2,32*
X288160000Y-137370000D03*
D20*
G04 #@! TO.P,U2,33*
G04 #@! TO.N,DGND*
X286097500Y-134807500D03*
X286097500Y-136132500D03*
X287422500Y-134807500D03*
X287422500Y-136132500D03*
G04 #@! TD*
D12*
G04 #@! TO.P,C5,1*
G04 #@! TO.N,Net-(C5-Pad1)*
X289890000Y-133899580D03*
G04 #@! TO.P,C5,2*
G04 #@! TO.N,Net-(C5-Pad2)*
X289890000Y-133000420D03*
G04 #@! TD*
G04 #@! TO.P,C3,1*
G04 #@! TO.N,Net-(C3-Pad1)*
X289600000Y-138359580D03*
G04 #@! TO.P,C3,2*
G04 #@! TO.N,Net-(C3-Pad2)*
X289600000Y-137460420D03*
G04 #@! TD*
G04 #@! TO.P,C13,1*
G04 #@! TO.N,DVDD*
X283830000Y-136610420D03*
G04 #@! TO.P,C13,2*
G04 #@! TO.N,DGND*
X283830000Y-137509580D03*
G04 #@! TD*
G04 #@! TO.P,C12,1*
G04 #@! TO.N,DVDD*
X282840000Y-136610420D03*
G04 #@! TO.P,C12,2*
G04 #@! TO.N,DGND*
X282840000Y-137509580D03*
G04 #@! TD*
D13*
G04 #@! TO.P,C8,1*
G04 #@! TO.N,DGND*
X286320420Y-130570000D03*
G04 #@! TO.P,C8,2*
G04 #@! TO.N,DVDD*
X287219580Y-130570000D03*
G04 #@! TD*
D12*
G04 #@! TO.P,C10,1*
G04 #@! TO.N,DGND*
X290600000Y-131190420D03*
G04 #@! TO.P,C10,2*
G04 #@! TO.N,Net-(C10-Pad2)*
X290600000Y-132089580D03*
G04 #@! TD*
D13*
G04 #@! TO.P,C7,1*
G04 #@! TO.N,DGND*
X286320420Y-131520000D03*
G04 #@! TO.P,C7,2*
G04 #@! TO.N,DVDD*
X287219580Y-131520000D03*
G04 #@! TD*
D21*
G04 #@! TO.P,U1,1*
G04 #@! TO.N,DVDD*
X269320000Y-140200000D03*
G04 #@! TO.P,U1,2*
G04 #@! TO.N,Net-(L1-Pad2)*
X268820000Y-140200000D03*
G04 #@! TO.P,U1,3*
G04 #@! TO.N,DGND*
X268320000Y-140200000D03*
G04 #@! TO.P,U1,4*
G04 #@! TO.N,Net-(L1-Pad1)*
X267820000Y-140200000D03*
G04 #@! TO.P,U1,5*
G04 #@! TO.N,VCC*
X267320000Y-140200000D03*
G04 #@! TO.P,U1,6*
X267320000Y-143300000D03*
G04 #@! TO.P,U1,7*
X267820000Y-143300000D03*
G04 #@! TO.P,U1,8*
X268320000Y-143300000D03*
G04 #@! TO.P,U1,9*
G04 #@! TO.N,DGND*
X268820000Y-143300000D03*
G04 #@! TO.P,U1,10*
G04 #@! TO.N,DVDD*
X269320000Y-143300000D03*
D22*
G04 #@! TO.P,U1,11*
G04 #@! TO.N,DGND*
X267700000Y-142137500D03*
X268940000Y-142137500D03*
X267700000Y-141362500D03*
X268940000Y-141362500D03*
G04 #@! TD*
D13*
G04 #@! TO.P,L1,1*
G04 #@! TO.N,Net-(L1-Pad1)*
X267990420Y-138970000D03*
G04 #@! TO.P,L1,2*
G04 #@! TO.N,Net-(L1-Pad2)*
X268889580Y-138970000D03*
G04 #@! TD*
D12*
G04 #@! TO.P,C21,1*
G04 #@! TO.N,DGND*
X274070000Y-139049580D03*
G04 #@! TO.P,C21,2*
G04 #@! TO.N,DVDD*
X274070000Y-138150420D03*
G04 #@! TD*
D23*
G04 #@! TO.P,F1,1*
G04 #@! TO.N,DGND*
X278326500Y-128500000D03*
D24*
G04 #@! TO.P,F1,2*
G04 #@! TO.N,Net-(F1-Pad2)*
X278000000Y-129112500D03*
G04 #@! TO.P,F1,4*
G04 #@! TO.N,/RF*
X278000000Y-127887500D03*
D23*
G04 #@! TO.P,F1,3*
G04 #@! TO.N,DGND*
X277637500Y-128500000D03*
G04 #@! TD*
D12*
G04 #@! TO.P,C34,1*
G04 #@! TO.N,/DEC3*
X275840000Y-129489580D03*
G04 #@! TO.P,C34,2*
G04 #@! TO.N,DGND*
X275840000Y-128590420D03*
G04 #@! TD*
D13*
G04 #@! TO.P,C33,1*
G04 #@! TO.N,DGND*
X273150420Y-129450000D03*
G04 #@! TO.P,C33,2*
G04 #@! TO.N,DVDD*
X274049580Y-129450000D03*
G04 #@! TD*
D25*
G04 #@! TO.P,P2,1*
G04 #@! TO.N,/SWDCLK*
X281500000Y-129560000D03*
D26*
G04 #@! TO.P,P2,2*
G04 #@! TO.N,/SWDIO*
X281500000Y-127020000D03*
G04 #@! TD*
D15*
G04 #@! TO.P,D2,2*
G04 #@! TO.N,DVDD*
X280490000Y-140050000D03*
G04 #@! TO.P,D2,1*
G04 #@! TO.N,/LED3*
X280490000Y-138450000D03*
G04 #@! TD*
D13*
G04 #@! TO.P,C11,1*
G04 #@! TO.N,Net-(C11-Pad1)*
X285889580Y-138790000D03*
G04 #@! TO.P,C11,2*
G04 #@! TO.N,DGND*
X284990420Y-138790000D03*
G04 #@! TD*
D12*
G04 #@! TO.P,C6,1*
G04 #@! TO.N,DGND*
X289500000Y-131220420D03*
G04 #@! TO.P,C6,2*
G04 #@! TO.N,Net-(C10-Pad2)*
X289500000Y-132119580D03*
G04 #@! TD*
G04 #@! TO.P,C2,1*
G04 #@! TO.N,DVDD*
X271040000Y-142899580D03*
G04 #@! TO.P,C2,2*
G04 #@! TO.N,DGND*
X271040000Y-142000420D03*
G04 #@! TD*
G04 #@! TO.P,C1,1*
G04 #@! TO.N,VCC*
X272140000Y-142909580D03*
G04 #@! TO.P,C1,2*
G04 #@! TO.N,DGND*
X272140000Y-142010420D03*
G04 #@! TD*
G04 #@! TO.P,R4,1*
G04 #@! TO.N,DVDD*
X291850000Y-133200840D03*
G04 #@! TO.P,R4,2*
G04 #@! TO.N,/WB2_Vinverting*
X291850000Y-134100000D03*
G04 #@! TD*
D13*
G04 #@! TO.P,R3,1*
G04 #@! TO.N,DVDD*
X292715053Y-135672892D03*
G04 #@! TO.P,R3,2*
G04 #@! TO.N,/SG1_INPUT_1*
X291815893Y-135672892D03*
G04 #@! TD*
D12*
G04 #@! TO.P,R2,1*
G04 #@! TO.N,/WB1_Vinverting*
X291825000Y-137800000D03*
G04 #@! TO.P,R2,2*
G04 #@! TO.N,DGND*
X291825000Y-138699160D03*
G04 #@! TD*
D13*
G04 #@! TO.P,R1,1*
G04 #@! TO.N,DVDD*
X292715473Y-136747892D03*
G04 #@! TO.P,R1,2*
G04 #@! TO.N,/WB1_Vinverting*
X291816313Y-136747892D03*
G04 #@! TD*
D15*
G04 #@! TO.P,D1,2*
G04 #@! TO.N,DVDD*
X279240000Y-140050000D03*
G04 #@! TO.P,D1,1*
G04 #@! TO.N,/LED2*
X279240000Y-138450000D03*
G04 #@! TD*
D25*
G04 #@! TO.P,P1,1*
G04 #@! TO.N,/BATT_IN*
X292380000Y-144450000D03*
D26*
G04 #@! TO.P,P1,2*
G04 #@! TO.N,DGND*
X292380000Y-141910000D03*
G04 #@! TD*
D27*
G04 #@! TO.P,L4,1*
G04 #@! TO.N,Net-(L4-Pad1)*
X272932000Y-138620000D03*
G04 #@! TO.P,L4,2*
G04 #@! TO.N,Net-(L3-Pad1)*
X271408000Y-138620000D03*
G04 #@! TD*
D28*
G04 #@! TO.P,X1,4*
G04 #@! TO.N,DGND*
X270800000Y-133500000D03*
G04 #@! TO.P,X1,3*
G04 #@! TO.N,Net-(C25-Pad2)*
X272200000Y-133500000D03*
G04 #@! TO.P,X1,1*
G04 #@! TO.N,Net-(C24-Pad2)*
X270800000Y-134600000D03*
G04 #@! TO.P,X1,2*
G04 #@! TO.N,DGND*
X272200000Y-134600000D03*
G04 #@! TD*
D12*
G04 #@! TO.P,C28,1*
G04 #@! TO.N,Net-(C28-Pad1)*
X275450000Y-140100420D03*
G04 #@! TO.P,C28,2*
G04 #@! TO.N,DGND*
X275450000Y-140999580D03*
G04 #@! TD*
D13*
G04 #@! TO.P,C26,1*
G04 #@! TO.N,/DEC1*
X273649580Y-140200000D03*
G04 #@! TO.P,C26,2*
G04 #@! TO.N,DGND*
X272750420Y-140200000D03*
G04 #@! TD*
D12*
G04 #@! TO.P,C24,1*
G04 #@! TO.N,DGND*
X269800000Y-133750420D03*
G04 #@! TO.P,C24,2*
G04 #@! TO.N,Net-(C24-Pad2)*
X269800000Y-134649580D03*
G04 #@! TD*
G04 #@! TO.P,C25,1*
G04 #@! TO.N,DGND*
X273200000Y-134549580D03*
G04 #@! TO.P,C25,2*
G04 #@! TO.N,Net-(C25-Pad2)*
X273200000Y-133650420D03*
G04 #@! TD*
G04 #@! TO.P,C29,1*
G04 #@! TO.N,Net-(C29-Pad1)*
X276850000Y-140100420D03*
G04 #@! TO.P,C29,2*
G04 #@! TO.N,DGND*
X276850000Y-140999580D03*
G04 #@! TD*
D29*
G04 #@! TO.P,A1,1*
G04 #@! TO.N,Net-(A1-Pad1)*
X270745000Y-127673000D03*
G04 #@! TO.P,A1,2*
G04 #@! TO.N,Net-(A1-Pad2)*
X267345000Y-127673000D03*
G04 #@! TD*
D13*
G04 #@! TO.P,L6,1*
G04 #@! TO.N,Net-(C30-Pad2)*
X272849580Y-127700000D03*
G04 #@! TO.P,L6,2*
G04 #@! TO.N,Net-(A1-Pad1)*
X271950420Y-127700000D03*
G04 #@! TD*
D12*
G04 #@! TO.P,L5,1*
G04 #@! TO.N,Net-(C30-Pad2)*
X274000000Y-127650420D03*
G04 #@! TO.P,L5,2*
G04 #@! TO.N,DGND*
X274000000Y-128549580D03*
G04 #@! TD*
D13*
G04 #@! TO.P,C30,1*
G04 #@! TO.N,/RF*
X276049580Y-127700000D03*
G04 #@! TO.P,C30,2*
G04 #@! TO.N,Net-(C30-Pad2)*
X275150420Y-127700000D03*
G04 #@! TD*
G04 #@! TO.P,L3,1*
G04 #@! TO.N,Net-(L3-Pad1)*
X271730420Y-137270000D03*
G04 #@! TO.P,L3,2*
G04 #@! TO.N,Net-(C23-Pad1)*
X272629580Y-137270000D03*
G04 #@! TD*
D27*
G04 #@! TO.P,C23,1*
G04 #@! TO.N,Net-(C23-Pad1)*
X273262000Y-136000000D03*
G04 #@! TO.P,C23,2*
G04 #@! TO.N,DGND*
X271738000Y-136000000D03*
G04 #@! TD*
D30*
G04 #@! TO.P,U3,1*
G04 #@! TO.N,/DEC1*
X275600000Y-137000000D03*
G04 #@! TO.P,U3,2*
G04 #@! TO.N,Net-(C28-Pad1)*
X276000000Y-137000000D03*
G04 #@! TO.P,U3,3*
G04 #@! TO.N,Net-(C29-Pad1)*
X276400000Y-137000000D03*
G04 #@! TO.P,U3,4*
G04 #@! TO.N,Net-(U3-Pad4)*
X276800000Y-137000000D03*
G04 #@! TO.P,U3,5*
G04 #@! TO.N,Net-(U3-Pad5)*
X277200000Y-137000000D03*
G04 #@! TO.P,U3,6*
G04 #@! TO.N,/LOAD_SW_CTRL*
X277600000Y-137000000D03*
G04 #@! TO.P,U3,7*
G04 #@! TO.N,/AIN_BAT_DIV_VOLTAGE*
X278000000Y-137000000D03*
G04 #@! TO.P,U3,8*
G04 #@! TO.N,Net-(U3-Pad8)*
X278400000Y-137000000D03*
G04 #@! TO.P,U3,9*
G04 #@! TO.N,Net-(U3-Pad9)*
X278800000Y-137000000D03*
G04 #@! TO.P,U3,10*
G04 #@! TO.N,Net-(U3-Pad10)*
X279200000Y-137000000D03*
G04 #@! TO.P,U3,11*
G04 #@! TO.N,/LED2*
X279600000Y-137000000D03*
G04 #@! TO.P,U3,12*
G04 #@! TO.N,/LED3*
X280000000Y-137000000D03*
D31*
G04 #@! TO.P,U3,13*
G04 #@! TO.N,DVDD*
X280800000Y-136200000D03*
G04 #@! TO.P,U3,14*
G04 #@! TO.N,/~DRDY*
X280800000Y-135800000D03*
G04 #@! TO.P,U3,15*
G04 #@! TO.N,/DOUT*
X280800000Y-135400000D03*
G04 #@! TO.P,U3,16*
G04 #@! TO.N,/SPI_SCLK*
X280800000Y-135000000D03*
G04 #@! TO.P,U3,17*
G04 #@! TO.N,/DIN*
X280800000Y-134600000D03*
G04 #@! TO.P,U3,18*
G04 #@! TO.N,/SPI_~CS*
X280800000Y-134200000D03*
G04 #@! TO.P,U3,19*
G04 #@! TO.N,/~PWDN/RESET*
X280800000Y-133800000D03*
G04 #@! TO.P,U3,20*
G04 #@! TO.N,Net-(U3-Pad20)*
X280800000Y-133400000D03*
G04 #@! TO.P,U3,21*
G04 #@! TO.N,Net-(U3-Pad21)*
X280800000Y-133000000D03*
G04 #@! TO.P,U3,22*
G04 #@! TO.N,Net-(U3-Pad22)*
X280800000Y-132600000D03*
G04 #@! TO.P,U3,23*
G04 #@! TO.N,Net-(U3-Pad23)*
X280800000Y-132200000D03*
G04 #@! TO.P,U3,24*
G04 #@! TO.N,Net-(U3-Pad24)*
X280800000Y-131800000D03*
D30*
G04 #@! TO.P,U3,25*
G04 #@! TO.N,/SWDCLK*
X280000000Y-131000000D03*
G04 #@! TO.P,U3,26*
G04 #@! TO.N,/SWDIO*
X279600000Y-131000000D03*
G04 #@! TO.P,U3,27*
G04 #@! TO.N,Net-(U3-Pad27)*
X279200000Y-131000000D03*
G04 #@! TO.P,U3,28*
G04 #@! TO.N,Net-(U3-Pad28)*
X278800000Y-131000000D03*
G04 #@! TO.P,U3,29*
G04 #@! TO.N,Net-(U3-Pad29)*
X278400000Y-131000000D03*
G04 #@! TO.P,U3,30*
G04 #@! TO.N,Net-(F1-Pad2)*
X278000000Y-131000000D03*
G04 #@! TO.P,U3,31*
G04 #@! TO.N,DGND*
X277600000Y-131000000D03*
G04 #@! TO.P,U3,32*
G04 #@! TO.N,/DEC2*
X277200000Y-131000000D03*
G04 #@! TO.P,U3,33*
G04 #@! TO.N,/DEC3*
X276800000Y-131000000D03*
G04 #@! TO.P,U3,34*
G04 #@! TO.N,Net-(C24-Pad2)*
X276400000Y-131000000D03*
G04 #@! TO.P,U3,35*
G04 #@! TO.N,Net-(C25-Pad2)*
X276000000Y-131000000D03*
G04 #@! TO.P,U3,36*
G04 #@! TO.N,DVDD*
X275600000Y-131000000D03*
D31*
G04 #@! TO.P,U3,37*
G04 #@! TO.N,Net-(U3-Pad37)*
X274800000Y-131800000D03*
G04 #@! TO.P,U3,38*
G04 #@! TO.N,Net-(U3-Pad38)*
X274800000Y-132200000D03*
G04 #@! TO.P,U3,39*
G04 #@! TO.N,Net-(U3-Pad39)*
X274800000Y-132600000D03*
G04 #@! TO.P,U3,40*
G04 #@! TO.N,Net-(U3-Pad40)*
X274800000Y-133000000D03*
G04 #@! TO.P,U3,41*
G04 #@! TO.N,Net-(U3-Pad41)*
X274800000Y-133400000D03*
G04 #@! TO.P,U3,42*
G04 #@! TO.N,Net-(U3-Pad42)*
X274800000Y-133800000D03*
G04 #@! TO.P,U3,43*
G04 #@! TO.N,Net-(U3-Pad43)*
X274800000Y-134200000D03*
G04 #@! TO.P,U3,44*
G04 #@! TO.N,Net-(U3-Pad44)*
X274800000Y-134600000D03*
G04 #@! TO.P,U3,45*
G04 #@! TO.N,DGND*
X274800000Y-135000000D03*
G04 #@! TO.P,U3,46*
G04 #@! TO.N,Net-(C23-Pad1)*
X274800000Y-135400000D03*
G04 #@! TO.P,U3,47*
G04 #@! TO.N,Net-(L4-Pad1)*
X274800000Y-135800000D03*
G04 #@! TO.P,U3,48*
G04 #@! TO.N,DVDD*
X274800000Y-136200000D03*
D32*
G04 #@! TO.P,U3,49*
G04 #@! TO.N,DGND*
X279468750Y-132331250D03*
X278356250Y-132331250D03*
X277243750Y-132331250D03*
X276131250Y-132331250D03*
X279468750Y-133443750D03*
X278356250Y-133443750D03*
X277243750Y-133443750D03*
X276131250Y-133443750D03*
X279468750Y-134556250D03*
X278356250Y-134556250D03*
X277243750Y-134556250D03*
X276131250Y-134556250D03*
X279468750Y-135668750D03*
X278356250Y-135668750D03*
X277243750Y-135668750D03*
X276131250Y-135668750D03*
G04 #@! TD*
D33*
G04 #@! TO.P,X2,1*
G04 #@! TO.N,Net-(C29-Pad1)*
X276850000Y-138850000D03*
G04 #@! TO.P,X2,2*
G04 #@! TO.N,Net-(C28-Pad1)*
X275450000Y-138850000D03*
G04 #@! TD*
D34*
G04 #@! TO.P,C9,1*
G04 #@! TO.N,Net-(C9-Pad1)*
X288280000Y-131610000D03*
G04 #@! TO.P,C9,2*
G04 #@! TO.N,DGND*
X288280000Y-130510000D03*
G04 #@! TD*
D35*
G04 #@! TO.P,U6,1*
G04 #@! TO.N,5V_in_charge*
X286210000Y-142890000D03*
G04 #@! TO.P,U6,2*
X286210000Y-142390000D03*
G04 #@! TO.P,U6,3*
G04 #@! TO.N,/BATT_IN*
X286210000Y-141890000D03*
G04 #@! TO.P,U6,4*
X286210000Y-141390000D03*
G04 #@! TO.P,U6,5*
G04 #@! TO.N,Net-(D3-Pad1)*
X283310000Y-141390000D03*
G04 #@! TO.P,U6,6*
G04 #@! TO.N,DGND*
X283310000Y-141890000D03*
G04 #@! TO.P,U6,7*
G04 #@! TO.N,Net-(U6-Pad7)*
X283310000Y-142390000D03*
G04 #@! TO.P,U6,8*
G04 #@! TO.N,Net-(R9-Pad1)*
X283310000Y-142890000D03*
D36*
G04 #@! TO.P,U6,9*
G04 #@! TO.N,DGND*
X284322500Y-141777500D03*
X284322500Y-142502500D03*
X285197500Y-141777500D03*
X285197500Y-142502500D03*
G04 #@! TD*
D37*
G04 #@! TO.P,Q1,2*
G04 #@! TO.N,/BATT_IN*
X287610000Y-142730000D03*
D38*
G04 #@! TO.P,Q1,1*
G04 #@! TO.N,5V_in_charge*
X288310000Y-142955000D03*
G04 #@! TO.P,Q1,3*
G04 #@! TO.N,VCC*
X288310000Y-142505000D03*
G04 #@! TD*
D39*
G04 #@! TO.N,DVDD*
X281380000Y-139390000D03*
X285179580Y-131429580D03*
X270070000Y-140110000D03*
X288240000Y-138300000D03*
X287570000Y-129800000D03*
X280880000Y-137160000D03*
X274640000Y-137010000D03*
X275120000Y-130980000D03*
X274580000Y-129450000D03*
X294075000Y-132825000D03*
X294075000Y-135675000D03*
G04 #@! TO.N,VCC*
X274870000Y-143370000D03*
X289520000Y-140520000D03*
X289860000Y-144040000D03*
G04 #@! TO.N,DGND*
X287740000Y-139830000D03*
X281100000Y-141780000D03*
X280000000Y-143270000D03*
X271200000Y-144600000D03*
X285030000Y-132840000D03*
X268940000Y-142137500D03*
X279070000Y-128500000D03*
X283750000Y-138380000D03*
X286070000Y-134870000D03*
X268986000Y-135610000D03*
X276820000Y-128420000D03*
X294400000Y-134100000D03*
X291350000Y-131200000D03*
G04 #@! TO.N,/LOAD_SW_CTRL*
X277520000Y-141870000D03*
X274870000Y-142070000D03*
G04 #@! TO.N,/BATT_IN*
X290000000Y-145010000D03*
X288340000Y-141140000D03*
G04 #@! TD*
D40*
G04 #@! TO.N,/DEC1*
X274100000Y-140200000D02*
X273649580Y-140200000D01*
X274730000Y-139570000D02*
X274100000Y-140200000D01*
X274730000Y-138010000D02*
X274730000Y-139570000D01*
X275600000Y-137140000D02*
X274730000Y-138010000D01*
X275600000Y-137000000D02*
X275600000Y-137140000D01*
X275600000Y-137000000D02*
X275550000Y-137000000D01*
D41*
G04 #@! TO.N,/RF*
X276049580Y-127700000D02*
X277800000Y-127700000D01*
X277800000Y-127700000D02*
X278000000Y-127900000D01*
D40*
G04 #@! TO.N,/SPI_SCLK*
X280800000Y-135000000D02*
X283390000Y-135000000D01*
X283660000Y-135270000D02*
X284860000Y-135270000D01*
X283390000Y-135000000D02*
X283660000Y-135270000D01*
G04 #@! TO.N,/SPI_~CS*
X280800000Y-134200000D02*
X283840000Y-134200000D01*
X284110000Y-134470000D02*
X284860000Y-134470000D01*
X283840000Y-134200000D02*
X284110000Y-134470000D01*
G04 #@! TO.N,/SWDCLK*
X280000000Y-131000000D02*
X280920000Y-131000000D01*
X281500000Y-130420000D02*
X281500000Y-129560000D01*
X280920000Y-131000000D02*
X281500000Y-130420000D01*
G04 #@! TO.N,/SWDIO*
X279600000Y-131000000D02*
X279600000Y-130480000D01*
X280360000Y-128160000D02*
X281500000Y-127020000D01*
X280360000Y-129720000D02*
X280360000Y-128160000D01*
X279600000Y-130480000D02*
X280360000Y-129720000D01*
G04 #@! TO.N,/~DRDY*
X280800000Y-135800000D02*
X282750000Y-135800000D01*
X283020000Y-136070000D02*
X284860000Y-136070000D01*
X282750000Y-135800000D02*
X283020000Y-136070000D01*
D42*
G04 #@! TO.N,Net-(A1-Pad1)*
X271950420Y-127700000D02*
X270772000Y-127700000D01*
X270772000Y-127700000D02*
X270745000Y-127673000D01*
D40*
G04 #@! TO.N,Net-(L3-Pad1)*
X271408000Y-138620000D02*
X271408000Y-137592420D01*
X271408000Y-137592420D02*
X271730420Y-137270000D01*
G04 #@! TO.N,DVDD*
X282240000Y-140050000D02*
X282040000Y-140050000D01*
X282040000Y-140050000D02*
X281380000Y-139390000D01*
X280490000Y-140050000D02*
X280720000Y-140050000D01*
X280720000Y-140050000D02*
X281380000Y-139390000D01*
X279240000Y-140050000D02*
X280490000Y-140050000D01*
X281800000Y-137320420D02*
X281800000Y-136800000D01*
X281989580Y-136610420D02*
X282840000Y-136610420D01*
X281800000Y-136800000D02*
X281989580Y-136610420D01*
X281800000Y-137320420D02*
X281040420Y-137320420D01*
X281040420Y-137320420D02*
X280880000Y-137160000D01*
X285179580Y-131370000D02*
X285179580Y-131429580D01*
X286160000Y-132410000D02*
X286160000Y-133570000D01*
X285179580Y-131429580D02*
X286160000Y-132410000D01*
X269320000Y-140200000D02*
X269980000Y-140200000D01*
X269980000Y-140200000D02*
X270070000Y-140110000D01*
D43*
X288160000Y-137370000D02*
X288160000Y-138220000D01*
X288160000Y-138220000D02*
X288240000Y-138300000D01*
D40*
X269320000Y-143300000D02*
X270639580Y-143300000D01*
X270639580Y-143300000D02*
X271040000Y-142899580D01*
D43*
X269320000Y-140200000D02*
X269560000Y-140200000D01*
D40*
X269900000Y-142720000D02*
X269320000Y-143300000D01*
X269900000Y-140540000D02*
X269900000Y-142720000D01*
X269560000Y-140200000D02*
X269900000Y-140540000D01*
X287219580Y-130570000D02*
X287219580Y-130150420D01*
X287219580Y-130150420D02*
X287570000Y-129800000D01*
X287219580Y-130570000D02*
X287219580Y-131520000D01*
X280880000Y-137160000D02*
X280880000Y-136970000D01*
X280880000Y-136970000D02*
X280800000Y-136890000D01*
X287760000Y-137370000D02*
X288160000Y-137370000D01*
X286960000Y-133570000D02*
X286960000Y-132330000D01*
X287219580Y-132070420D02*
X287219580Y-131520000D01*
X286960000Y-132330000D02*
X287219580Y-132070420D01*
X284860000Y-136470000D02*
X283970420Y-136470000D01*
X283970420Y-136470000D02*
X283830000Y-136610420D01*
X282840000Y-136610420D02*
X283830000Y-136610420D01*
X280800000Y-136200000D02*
X281760000Y-136200000D01*
X281760000Y-136200000D02*
X282170420Y-136610420D01*
X282170420Y-136610420D02*
X282840000Y-136610420D01*
X274070000Y-138150420D02*
X274070000Y-137580000D01*
X274070000Y-137580000D02*
X274640000Y-137010000D01*
X274660000Y-136990000D02*
X274800000Y-136200000D01*
X274640000Y-137010000D02*
X274660000Y-136990000D01*
X274049580Y-129450000D02*
X274580000Y-129450000D01*
X275140000Y-131000000D02*
X275600000Y-131000000D01*
X275120000Y-130980000D02*
X275140000Y-131000000D01*
X280800000Y-136200000D02*
X280800000Y-136890000D01*
X293149160Y-133200840D02*
X293150000Y-133200000D01*
X291850000Y-133200840D02*
X293149160Y-133200840D01*
X292715053Y-136747472D02*
X292715473Y-136747892D01*
X292715053Y-135672892D02*
X292715053Y-136747472D01*
X292715053Y-135672892D02*
X293147892Y-135672892D01*
X293150000Y-133200000D02*
X293700000Y-133200000D01*
X293700000Y-133200000D02*
X294075000Y-132825000D01*
X292717161Y-135675000D02*
X292715053Y-135672892D01*
X294075000Y-135675000D02*
X292717161Y-135675000D01*
G04 #@! TO.N,/DIN*
X280800000Y-134600000D02*
X283610000Y-134600000D01*
X283860000Y-134850000D02*
X284840000Y-134850000D01*
X283610000Y-134600000D02*
X283860000Y-134850000D01*
X284840000Y-134850000D02*
X284860000Y-134870000D01*
G04 #@! TO.N,/DOUT*
X280800000Y-135400000D02*
X283190000Y-135400000D01*
X283460000Y-135670000D02*
X284860000Y-135670000D01*
X283190000Y-135400000D02*
X283460000Y-135670000D01*
G04 #@! TO.N,/BIASIN*
X286960000Y-137370000D02*
X287360000Y-137370000D01*
G04 #@! TO.N,VCC*
X274000000Y-143360000D02*
X274860000Y-143360000D01*
X274860000Y-143360000D02*
X274870000Y-143370000D01*
X289520000Y-141380000D02*
X289520000Y-140520000D01*
X289830000Y-144010000D02*
X289209580Y-144010000D01*
X289860000Y-144040000D02*
X289830000Y-144010000D01*
X288310000Y-142505000D02*
X288310000Y-141930000D01*
X288860000Y-141380000D02*
X289520000Y-141380000D01*
X288310000Y-141930000D02*
X288860000Y-141380000D01*
X272140000Y-142909580D02*
X273099580Y-142909580D01*
X273099580Y-142909580D02*
X273550000Y-143360000D01*
X268320000Y-143300000D02*
X268320000Y-143730000D01*
X268320000Y-143730000D02*
X268670000Y-144080000D01*
X268670000Y-144080000D02*
X270969580Y-144080000D01*
X270969580Y-144080000D02*
X272140000Y-142909580D01*
X267910420Y-143390420D02*
X267820000Y-143300000D01*
X268320000Y-143300000D02*
X267820000Y-143300000D01*
X267320000Y-143300000D02*
X267820000Y-143300000D01*
X267320000Y-140200000D02*
X267320000Y-140240000D01*
X267320000Y-140240000D02*
X266660000Y-140900000D01*
X267100000Y-143300000D02*
X267320000Y-143300000D01*
X266660000Y-142860000D02*
X267100000Y-143300000D01*
X266660000Y-140900000D02*
X266660000Y-142860000D01*
X272849580Y-144260000D02*
X273100000Y-144260000D01*
X273100000Y-144260000D02*
X274000000Y-143360000D01*
X273550000Y-143360000D02*
X274000000Y-143360000D01*
D42*
G04 #@! TO.N,Net-(C30-Pad2)*
X274000000Y-127699580D02*
X272850000Y-127699580D01*
X272850000Y-127699580D02*
X272849580Y-127700000D01*
X275150420Y-127700000D02*
X274000420Y-127700000D01*
X274000420Y-127700000D02*
X274000000Y-127699580D01*
D43*
G04 #@! TO.N,Net-(L1-Pad1)*
X267820000Y-140200000D02*
X267820000Y-139140420D01*
X267820000Y-139140420D02*
X267990420Y-138970000D01*
D40*
G04 #@! TO.N,/LED2*
X279600000Y-137000000D02*
X279600000Y-138090000D01*
X279600000Y-138090000D02*
X279240000Y-138450000D01*
G04 #@! TO.N,/LED3*
X280000000Y-137000000D02*
X280000000Y-137960000D01*
X280000000Y-137960000D02*
X280490000Y-138450000D01*
G04 #@! TO.N,/~PWDN/RESET*
X280800000Y-133800000D02*
X283730000Y-133800000D01*
X285760000Y-132720000D02*
X285760000Y-133570000D01*
X285160000Y-132120000D02*
X285760000Y-132720000D01*
X284600000Y-132120000D02*
X285160000Y-132120000D01*
X284260000Y-132460000D02*
X284600000Y-132120000D01*
X284260000Y-133270000D02*
X284260000Y-132460000D01*
X283730000Y-133800000D02*
X284260000Y-133270000D01*
G04 #@! TO.N,Net-(C23-Pad1)*
X272629580Y-137270000D02*
X272629580Y-136632420D01*
X272629580Y-136632420D02*
X273262000Y-136000000D01*
X273262000Y-136000000D02*
X273350000Y-136000000D01*
X273350000Y-136000000D02*
X273950000Y-135400000D01*
X273950000Y-135400000D02*
X274800000Y-135400000D01*
G04 #@! TO.N,Net-(C24-Pad2)*
X275000000Y-130040000D02*
X274720163Y-130049375D01*
X274720163Y-130049375D02*
X272760000Y-132040000D01*
X272760000Y-132040000D02*
X272770000Y-132030000D01*
X272770000Y-132030000D02*
X272770000Y-132830000D01*
X272770000Y-132830000D02*
X271600000Y-132830000D01*
X271600000Y-132830000D02*
X271490000Y-132940000D01*
X271490000Y-132940000D02*
X271490000Y-134310000D01*
X271490000Y-134310000D02*
X271200000Y-134600000D01*
X276400000Y-131000000D02*
X276400000Y-130330490D01*
X275395598Y-130045598D02*
X275000000Y-130040000D01*
X276115108Y-130045598D02*
X275395598Y-130045598D01*
X276400000Y-130330490D02*
X276115108Y-130045598D01*
X271200000Y-134600000D02*
X270800000Y-134600000D01*
X269800000Y-134649580D02*
X270750420Y-134649580D01*
X270800000Y-134600000D02*
X270950000Y-134600000D01*
X270750420Y-134649580D02*
X270800000Y-134600000D01*
D44*
X271050000Y-134650000D02*
X270800000Y-134650000D01*
X270799580Y-134649580D02*
X270800000Y-134650000D01*
D40*
G04 #@! TO.N,Net-(C25-Pad2)*
X276000000Y-131000000D02*
X276000000Y-130450000D01*
X276000000Y-130450000D02*
X275900000Y-130350000D01*
X275900000Y-130350000D02*
X274900000Y-130350000D01*
X274900000Y-130350000D02*
X273200000Y-132050000D01*
X273200000Y-132050000D02*
X273200000Y-133650420D01*
X272200000Y-133500000D02*
X273049580Y-133500000D01*
X273049580Y-133500000D02*
X273200000Y-133650420D01*
G04 #@! TO.N,Net-(C28-Pad1)*
X275450000Y-140100420D02*
X275450000Y-138850000D01*
X275450000Y-138850000D02*
X276000000Y-138300000D01*
X276000000Y-138300000D02*
X276000000Y-137000000D01*
G04 #@! TO.N,Net-(C29-Pad1)*
X276850000Y-140100420D02*
X276850000Y-138850000D01*
X276400000Y-137000000D02*
X276400000Y-138400000D01*
X276400000Y-138400000D02*
X276850000Y-138850000D01*
G04 #@! TO.N,Net-(L4-Pad1)*
X274800000Y-135800000D02*
X274240000Y-135800000D01*
X273200000Y-137640000D02*
X273200000Y-138352000D01*
X273840000Y-137000000D02*
X273200000Y-137640000D01*
X273840000Y-136200000D02*
X273840000Y-137000000D01*
X274240000Y-135800000D02*
X273840000Y-136200000D01*
X273200000Y-138352000D02*
X272932000Y-138620000D01*
D43*
G04 #@! TO.N,Net-(F1-Pad2)*
X278000000Y-129100000D02*
X278000000Y-131000000D01*
D40*
G04 #@! TO.N,/DEC3*
X276800000Y-131000000D02*
X276800000Y-129850000D01*
X276439580Y-129489580D02*
X275840000Y-129489580D01*
X276800000Y-129850000D02*
X276439580Y-129489580D01*
G04 #@! TO.N,DGND*
X287490000Y-140570420D02*
X287490000Y-140080000D01*
X287490000Y-140080000D02*
X287740000Y-139830000D01*
X284300420Y-144020000D02*
X284300420Y-144370420D01*
X287429580Y-144420420D02*
X287429580Y-144010000D01*
X287180000Y-144670000D02*
X287429580Y-144420420D01*
X284600000Y-144670000D02*
X287180000Y-144670000D01*
X284300420Y-144370420D02*
X284600000Y-144670000D01*
X285197500Y-141777500D02*
X285197500Y-141042500D01*
X285669580Y-140570420D02*
X287490000Y-140570420D01*
X285197500Y-141042500D02*
X285669580Y-140570420D01*
D41*
X281139580Y-141740420D02*
X282140000Y-141740420D01*
X281100000Y-141780000D02*
X281139580Y-141740420D01*
D40*
X284990420Y-138790000D02*
X284990420Y-140449580D01*
X284322500Y-141117500D02*
X284322500Y-141777500D01*
X284990420Y-140449580D02*
X284322500Y-141117500D01*
X283310000Y-141890000D02*
X284210000Y-141890000D01*
X284210000Y-141890000D02*
X284322500Y-141777500D01*
X284322500Y-141777500D02*
X284322500Y-142502500D01*
X285197500Y-142502500D02*
X284322500Y-142502500D01*
X284322500Y-141777500D02*
X285197500Y-141777500D01*
X288310420Y-144010000D02*
X287429580Y-144010000D01*
X284300420Y-144020000D02*
X284300420Y-142524580D01*
X284300420Y-142524580D02*
X284322500Y-142502500D01*
X282140000Y-141740420D02*
X282440420Y-141740420D01*
X282440420Y-141740420D02*
X282590000Y-141890000D01*
X282590000Y-141890000D02*
X283310000Y-141890000D01*
D43*
X279379580Y-143270000D02*
X280000000Y-143270000D01*
D40*
X277310000Y-142650420D02*
X275959580Y-142650420D01*
X275959580Y-142650420D02*
X275900000Y-142710000D01*
X271950420Y-144260000D02*
X271540000Y-144260000D01*
X271540000Y-144260000D02*
X271200000Y-144600000D01*
X275900000Y-142710000D02*
X273520000Y-142710000D01*
X272569580Y-142440000D02*
X272140000Y-142010420D01*
X273250000Y-142440000D02*
X272569580Y-142440000D01*
X273520000Y-142710000D02*
X273250000Y-142440000D01*
X285360000Y-133170000D02*
X285030000Y-132840000D01*
X285360000Y-133570000D02*
X285360000Y-133170000D01*
X275840000Y-128590420D02*
X274800840Y-128590420D01*
X274800840Y-128590420D02*
X274760000Y-128549580D01*
X276820000Y-128420000D02*
X276010420Y-128420000D01*
X276010420Y-128420000D02*
X275840000Y-128590420D01*
X275909580Y-128800000D02*
X275729580Y-128620000D01*
X281800000Y-138219580D02*
X282130000Y-138219580D01*
X282130000Y-138219580D02*
X282840000Y-137509580D01*
X272140000Y-142010420D02*
X271050000Y-142010420D01*
X271050000Y-142010420D02*
X271040000Y-142000420D01*
D43*
X286097500Y-134807500D02*
X287422500Y-134807500D01*
D40*
X271040000Y-142000420D02*
X271040000Y-141910420D01*
X271040000Y-141910420D02*
X272750420Y-140200000D01*
X268820000Y-143300000D02*
X268820000Y-142257500D01*
X268820000Y-142257500D02*
X268940000Y-142137500D01*
X268809580Y-143310420D02*
X268820000Y-143300000D01*
X268940000Y-142137500D02*
X267700000Y-142137500D01*
X267700000Y-141362500D02*
X267700000Y-142137500D01*
X268940000Y-141362500D02*
X267700000Y-141362500D01*
X268320000Y-140200000D02*
X268320000Y-140742500D01*
X268320000Y-140742500D02*
X268940000Y-141362500D01*
X286320420Y-130570000D02*
X286320420Y-131520000D01*
X278326500Y-128500000D02*
X279070000Y-128500000D01*
X288280000Y-130510000D02*
X289290000Y-130510000D01*
X289500000Y-130720000D02*
X289500000Y-131220420D01*
X289290000Y-130510000D02*
X289500000Y-130720000D01*
X290570000Y-131220420D02*
X290600000Y-131190420D01*
X287760000Y-133570000D02*
X287760000Y-132910000D01*
X287760000Y-132910000D02*
X288260000Y-132410000D01*
X288260000Y-132410000D02*
X288630000Y-132410000D01*
X288630000Y-132410000D02*
X288930000Y-132110000D01*
X288930000Y-132110000D02*
X288930000Y-131380000D01*
X288930000Y-131380000D02*
X289089580Y-131220420D01*
X289089580Y-131220420D02*
X289500000Y-131220420D01*
X283750000Y-138380000D02*
X284580420Y-138380000D01*
X284580420Y-138380000D02*
X284990420Y-138790000D01*
X286560000Y-133570000D02*
X286560000Y-132250000D01*
X286320420Y-132010420D02*
X286320420Y-131520000D01*
X286560000Y-132250000D02*
X286320420Y-132010420D01*
X283830000Y-137509580D02*
X283830000Y-138300000D01*
X283830000Y-138300000D02*
X283750000Y-138380000D01*
X286070000Y-134870000D02*
X286097500Y-134842500D01*
X286097500Y-134842500D02*
X286097500Y-134807500D01*
X286560000Y-133570000D02*
X286560000Y-134345000D01*
X286560000Y-134345000D02*
X286097500Y-134807500D01*
X287760000Y-133570000D02*
X287760000Y-134470000D01*
X287760000Y-134470000D02*
X287422500Y-134807500D01*
X283830000Y-137509580D02*
X282840000Y-137509580D01*
X284860000Y-136870000D02*
X284469580Y-136870000D01*
X284469580Y-136870000D02*
X283830000Y-137509580D01*
D43*
X275450000Y-140999580D02*
X272999580Y-140999580D01*
X272750420Y-140750420D02*
X272750420Y-140200000D01*
X272999580Y-140999580D02*
X272750420Y-140750420D01*
D40*
X285597500Y-136112500D02*
X286922500Y-136112500D01*
X286922500Y-136112500D02*
X286922500Y-134787500D01*
X287260000Y-134450000D02*
X286922500Y-134787500D01*
X286060000Y-134325000D02*
X285597500Y-134787500D01*
D41*
X270230000Y-137508000D02*
X271738000Y-136000000D01*
X270230000Y-139280000D02*
X270230000Y-137508000D01*
D40*
X272750420Y-140200000D02*
X272750420Y-139709580D01*
X272750420Y-139709580D02*
X272950000Y-139510000D01*
X272950000Y-139510000D02*
X273609580Y-139510000D01*
X273609580Y-139510000D02*
X274070000Y-139049580D01*
D41*
X274000000Y-128549580D02*
X274760000Y-128549580D01*
X274760000Y-128549580D02*
X274830420Y-128620000D01*
D40*
X276900000Y-128500000D02*
X276820000Y-128420000D01*
X277637500Y-128500000D02*
X276900000Y-128500000D01*
X277637500Y-128500000D02*
X278326500Y-128500000D01*
X272750420Y-140200000D02*
X272750420Y-140375840D01*
D41*
X273150420Y-129450000D02*
X273150420Y-128799580D01*
X273400420Y-128549580D02*
X274000000Y-128549580D01*
X273150420Y-128799580D02*
X273400420Y-128549580D01*
X271150000Y-140200000D02*
X272750420Y-140200000D01*
X270230000Y-139280000D02*
X271150000Y-140200000D01*
D40*
X273200000Y-134549580D02*
X273449580Y-134549580D01*
X273449580Y-134549580D02*
X273900000Y-135000000D01*
X273900000Y-135000000D02*
X274800000Y-135000000D01*
X277600000Y-131000000D02*
X277600000Y-129700000D01*
X277350000Y-129450000D02*
X277350000Y-128500000D01*
X277600000Y-129700000D02*
X277350000Y-129450000D01*
X278356250Y-132331250D02*
X278356250Y-133443750D01*
X277243750Y-135668750D02*
X276131250Y-135668750D01*
X278356250Y-135668750D02*
X277243750Y-135668750D01*
X279468750Y-135668750D02*
X278356250Y-135668750D01*
X279468750Y-134556250D02*
X279468750Y-135668750D01*
X278356250Y-134556250D02*
X279468750Y-134556250D01*
X277243750Y-134556250D02*
X278356250Y-134556250D01*
X276131250Y-134556250D02*
X277243750Y-134556250D01*
X276131250Y-133443750D02*
X276131250Y-134556250D01*
X277243750Y-133443750D02*
X276131250Y-133443750D01*
X278356250Y-133443750D02*
X277243750Y-133443750D01*
X279468750Y-132331250D02*
X279468750Y-133443750D01*
X278356250Y-132331250D02*
X279468750Y-132331250D01*
X277243750Y-132331250D02*
X278356250Y-132331250D01*
X276131250Y-132331250D02*
X277243750Y-132331250D01*
X274800000Y-135000000D02*
X275687500Y-135000000D01*
X275687500Y-135000000D02*
X276131250Y-134556250D01*
X277600000Y-131000000D02*
X277600000Y-131975000D01*
X277600000Y-131975000D02*
X277243750Y-132331250D01*
D41*
X275450000Y-140999580D02*
X276100000Y-140999580D01*
X276100000Y-140999580D02*
X276850000Y-140999580D01*
D40*
X270800000Y-133500000D02*
X270050420Y-133500000D01*
X270050420Y-133500000D02*
X269800000Y-133750420D01*
X273200000Y-134549580D02*
X272250420Y-134549580D01*
X272250420Y-134549580D02*
X272200000Y-134600000D01*
X269800000Y-133750420D02*
X269093580Y-133750420D01*
X269093580Y-133750420D02*
X268986000Y-133858000D01*
X268986000Y-133858000D02*
X268986000Y-135610000D01*
X268986000Y-135610000D02*
X268986000Y-135636000D01*
X268986000Y-135636000D02*
X272034000Y-135636000D01*
X272034000Y-135636000D02*
X272200000Y-135470000D01*
X272200000Y-135470000D02*
X272200000Y-134650000D01*
D44*
X272300420Y-134549580D02*
X272200000Y-134650000D01*
D40*
X289500000Y-131220420D02*
X290570000Y-131220420D01*
X293799160Y-134100000D02*
X294400000Y-134100000D01*
X290600000Y-131190420D02*
X291340420Y-131190420D01*
X291340420Y-131190420D02*
X291350000Y-131200000D01*
D41*
X295865840Y-138699160D02*
X296175000Y-138390000D01*
X291825000Y-138699160D02*
X295865840Y-138699160D01*
D40*
G04 #@! TO.N,Net-(C3-Pad1)*
X288660000Y-136870000D02*
X288660000Y-137419580D01*
X288660000Y-137419580D02*
X289600000Y-138359580D01*
G04 #@! TO.N,Net-(C3-Pad2)*
X288660000Y-136470000D02*
X289130000Y-136470000D01*
X289600000Y-136940000D02*
X289600000Y-137460420D01*
X289130000Y-136470000D02*
X289600000Y-136940000D01*
G04 #@! TO.N,Net-(C5-Pad1)*
X288660000Y-134470000D02*
X289319580Y-134470000D01*
X289319580Y-134470000D02*
X289890000Y-133899580D01*
G04 #@! TO.N,Net-(C5-Pad2)*
X288660000Y-134070000D02*
X288660000Y-133870000D01*
X289529580Y-133000420D02*
X289890000Y-133000420D01*
X288660000Y-133870000D02*
X289529580Y-133000420D01*
G04 #@! TO.N,Net-(C10-Pad2)*
X288160000Y-133570000D02*
X288160000Y-133070000D01*
X288869580Y-132750000D02*
X289500000Y-132119580D01*
X288480000Y-132750000D02*
X288869580Y-132750000D01*
X288160000Y-133070000D02*
X288480000Y-132750000D01*
X290600000Y-132089580D02*
X289530000Y-132089580D01*
X289530000Y-132089580D02*
X289500000Y-132119580D01*
G04 #@! TO.N,Net-(C9-Pad1)*
X287360000Y-133570000D02*
X287360000Y-132670000D01*
X287360000Y-132670000D02*
X288280000Y-131750000D01*
X288280000Y-131750000D02*
X288280000Y-131610000D01*
G04 #@! TO.N,Net-(C11-Pad1)*
X286160000Y-137370000D02*
X286160000Y-138060000D01*
X285889580Y-138330420D02*
X285889580Y-138790000D01*
X286160000Y-138060000D02*
X285889580Y-138330420D01*
D43*
G04 #@! TO.N,Net-(L1-Pad2)*
X268820000Y-140200000D02*
X268820000Y-139039580D01*
X268820000Y-139039580D02*
X268889580Y-138970000D01*
D40*
G04 #@! TO.N,Net-(C14-Pad1)*
X277310000Y-143549580D02*
X277459580Y-143549580D01*
X277459580Y-143549580D02*
X277910000Y-144000000D01*
X280180000Y-142290000D02*
X279379580Y-142290000D01*
X280520000Y-142630000D02*
X280180000Y-142290000D01*
X280520000Y-143670000D02*
X280520000Y-142630000D01*
X280190000Y-144000000D02*
X280520000Y-143670000D01*
X277910000Y-144000000D02*
X280190000Y-144000000D01*
X275900000Y-143360000D02*
X277120420Y-143360000D01*
X277120420Y-143360000D02*
X277310000Y-143549580D01*
G04 #@! TO.N,/AIN_BAT_DIV_VOLTAGE*
X278000000Y-137000000D02*
X278000000Y-137830000D01*
X278480420Y-138310420D02*
X278480420Y-142290000D01*
X278000000Y-137830000D02*
X278480420Y-138310420D01*
X278480420Y-142290000D02*
X278480420Y-143270000D01*
G04 #@! TO.N,/LOAD_SW_CTRL*
X274000000Y-142060000D02*
X274860000Y-142060000D01*
X277600000Y-137820000D02*
X277600000Y-137000000D01*
X277690000Y-137910000D02*
X277600000Y-137820000D01*
X277690000Y-141700000D02*
X277690000Y-137910000D01*
X277520000Y-141870000D02*
X277690000Y-141700000D01*
X274860000Y-142060000D02*
X274870000Y-142070000D01*
G04 #@! TO.N,5V_in_charge*
X288310000Y-142955000D02*
X289495000Y-142955000D01*
X289495000Y-142955000D02*
X289520000Y-142980000D01*
X286530420Y-144010000D02*
X286530420Y-143719580D01*
X286530420Y-143719580D02*
X286880000Y-143370000D01*
X287895000Y-143370000D02*
X288310000Y-142955000D01*
X286880000Y-143370000D02*
X287895000Y-143370000D01*
X289520000Y-142980000D02*
X291740000Y-142980000D01*
X294720000Y-143240000D02*
X295990000Y-144510000D01*
X292000000Y-143240000D02*
X294720000Y-143240000D01*
X291740000Y-142980000D02*
X292000000Y-143240000D01*
X285199580Y-144020000D02*
X286520420Y-144020000D01*
X286520420Y-144020000D02*
X286530420Y-144010000D01*
X286530420Y-144010000D02*
X286530420Y-143210420D01*
X286530420Y-143210420D02*
X286210000Y-142890000D01*
X286210000Y-142390000D02*
X286210000Y-142890000D01*
G04 #@! TO.N,Net-(D3-Pad1)*
X283310000Y-141390000D02*
X283310000Y-141240000D01*
X283310000Y-141240000D02*
X283840000Y-140710000D01*
X283840000Y-140710000D02*
X283840000Y-140050000D01*
G04 #@! TO.N,Net-(R9-Pad1)*
X283310000Y-142890000D02*
X282390420Y-142890000D01*
X282390420Y-142890000D02*
X282140000Y-142639580D01*
G04 #@! TO.N,/BATT_IN*
X287490000Y-141469580D02*
X288010420Y-141469580D01*
X290930000Y-144450000D02*
X290000000Y-145010000D01*
X290930000Y-144450000D02*
X292380000Y-144450000D01*
X288010420Y-141469580D02*
X288340000Y-141140000D01*
X287490000Y-141469580D02*
X287490000Y-142610000D01*
X286210000Y-141890000D02*
X286210000Y-141390000D01*
X286210000Y-141390000D02*
X287410420Y-141390000D01*
X287410420Y-141390000D02*
X287490000Y-141469580D01*
X287490000Y-142610000D02*
X287610000Y-142730000D01*
G04 #@! TO.N,/SG2_INPUT_1*
X295165840Y-132300840D02*
X296175000Y-133310000D01*
X293150000Y-132300840D02*
X295165840Y-132300840D01*
X289829812Y-134870000D02*
X290875000Y-133824812D01*
X288660000Y-134870000D02*
X289829812Y-134870000D01*
X292698280Y-132300840D02*
X293150000Y-132300840D01*
X291839768Y-132300840D02*
X292698280Y-132300840D01*
X290875000Y-133265608D02*
X291839768Y-132300840D01*
X290875000Y-133824812D02*
X290875000Y-133265608D01*
G04 #@! TO.N,/SG1_INPUT_1*
X291815893Y-135572562D02*
X292488455Y-134900000D01*
X291815893Y-135672892D02*
X291815893Y-135572562D01*
X295225000Y-134900000D02*
X296175000Y-135850000D01*
X292488455Y-134900000D02*
X295225000Y-134900000D01*
X291813001Y-135670000D02*
X291815893Y-135672892D01*
X288660000Y-135670000D02*
X291813001Y-135670000D01*
G04 #@! TO.N,/WB1_Vinverting*
X291816313Y-137791313D02*
X291825000Y-137800000D01*
X291816313Y-136747892D02*
X291816313Y-137791313D01*
X291816313Y-136647562D02*
X291816313Y-136747892D01*
X291238751Y-136070000D02*
X291816313Y-136647562D01*
X288660000Y-136070000D02*
X291238751Y-136070000D01*
G04 #@! TO.N,/WB2_Vinverting*
X288660000Y-135270000D02*
X290005000Y-135270000D01*
X291175000Y-134100000D02*
X291850000Y-134100000D01*
X290005000Y-135270000D02*
X291175000Y-134100000D01*
X292900000Y-134100000D02*
X291850000Y-134100000D01*
G04 #@! TO.N,Net-(U3-Pad24)*
X280900000Y-131800000D02*
X280950000Y-131800000D01*
D44*
X280900000Y-131800000D02*
X281100000Y-131800000D01*
G04 #@! TD*
D45*
G04 #@! TO.N,DGND*
G36*
X281242123Y-143086735D02*
X281382471Y-143296779D01*
X281592515Y-143437127D01*
X281840280Y-143486410D01*
X282003245Y-143486410D01*
X282113002Y-143559747D01*
X282320394Y-143601000D01*
X282320399Y-143601000D01*
X282390419Y-143614928D01*
X282460440Y-143601000D01*
X282631626Y-143601000D01*
X282687235Y-143638157D01*
X282935000Y-143687440D01*
X283466030Y-143687440D01*
X283466030Y-143734250D01*
X283624780Y-143893000D01*
X284200725Y-143893000D01*
X284200725Y-143873000D01*
X284352750Y-143873000D01*
X284352750Y-144319720D01*
X284400115Y-144557842D01*
X284400115Y-144795970D01*
X284558865Y-144954720D01*
X284626119Y-144954720D01*
X284738128Y-144908324D01*
X284752425Y-144917877D01*
X285000190Y-144967160D01*
X285398970Y-144967160D01*
X285646735Y-144917877D01*
X285856779Y-144777529D01*
X285868341Y-144760225D01*
X285873221Y-144767529D01*
X286083265Y-144907877D01*
X286331030Y-144957160D01*
X286729810Y-144957160D01*
X286977575Y-144907877D01*
X286991872Y-144898324D01*
X287103881Y-144944720D01*
X287171135Y-144944720D01*
X287329885Y-144785970D01*
X287329885Y-144547842D01*
X287377250Y-144309720D01*
X287377250Y-144081000D01*
X287476030Y-144081000D01*
X287476030Y-144137002D01*
X287529275Y-144137002D01*
X287529275Y-144242505D01*
X287476030Y-144295750D01*
X287476030Y-144436030D01*
X287529275Y-144564575D01*
X287529275Y-144785970D01*
X287688025Y-144944720D01*
X287755279Y-144944720D01*
X287870000Y-144897201D01*
X287984721Y-144944720D01*
X288051975Y-144944720D01*
X288210725Y-144785970D01*
X288210725Y-144564575D01*
X288263970Y-144436030D01*
X288263970Y-144295750D01*
X288210725Y-144242505D01*
X288210725Y-144137000D01*
X288163420Y-144137000D01*
X288163420Y-144041537D01*
X288172418Y-144039747D01*
X288362750Y-143912571D01*
X288362750Y-144309720D01*
X288410115Y-144547842D01*
X288410115Y-144785970D01*
X288568865Y-144944720D01*
X288636119Y-144944720D01*
X288748128Y-144898324D01*
X288762425Y-144907877D01*
X289010190Y-144957160D01*
X289111000Y-144957160D01*
X289111000Y-145186833D01*
X289155804Y-145295000D01*
X266585000Y-145295000D01*
X266585000Y-143892456D01*
X266712191Y-144082809D01*
X266922235Y-144223157D01*
X267170000Y-144272440D01*
X267470000Y-144272440D01*
X267570000Y-144252549D01*
X267670000Y-144272440D01*
X267852055Y-144272440D01*
X267866763Y-144282268D01*
X268117729Y-144533233D01*
X268157398Y-144592602D01*
X268392582Y-144749747D01*
X268599974Y-144791000D01*
X268599979Y-144791000D01*
X268670000Y-144804928D01*
X268740021Y-144791000D01*
X270899559Y-144791000D01*
X270969580Y-144804928D01*
X271039601Y-144791000D01*
X271039606Y-144791000D01*
X271150383Y-144768965D01*
X271212703Y-144919419D01*
X271391332Y-145098047D01*
X271624721Y-145194720D01*
X271691975Y-145194720D01*
X271850725Y-145035970D01*
X271850725Y-144387000D01*
X271803420Y-144387000D01*
X271803420Y-144251665D01*
X271942085Y-144113000D01*
X272002750Y-144113000D01*
X272002750Y-144559720D01*
X272050115Y-144797842D01*
X272050115Y-145035970D01*
X272208865Y-145194720D01*
X272276119Y-145194720D01*
X272388128Y-145148324D01*
X272402425Y-145157877D01*
X272650190Y-145207160D01*
X273048970Y-145207160D01*
X273296735Y-145157877D01*
X273506779Y-145017529D01*
X273647127Y-144807485D01*
X273669252Y-144696253D01*
X274158066Y-144207440D01*
X274325000Y-144207440D01*
X274489632Y-144174693D01*
X274693167Y-144259000D01*
X275046833Y-144259000D01*
X275313097Y-144148710D01*
X275327235Y-144158157D01*
X275575000Y-144207440D01*
X276225000Y-144207440D01*
X276472765Y-144158157D01*
X276505408Y-144136345D01*
X276552471Y-144206779D01*
X276762515Y-144347127D01*
X277010280Y-144396410D01*
X277300905Y-144396410D01*
X277357731Y-144453236D01*
X277397398Y-144512602D01*
X277632582Y-144669747D01*
X277839974Y-144711000D01*
X277839978Y-144711000D01*
X277909999Y-144724928D01*
X277980020Y-144711000D01*
X280119979Y-144711000D01*
X280190000Y-144724928D01*
X280260021Y-144711000D01*
X280260026Y-144711000D01*
X280467418Y-144669747D01*
X280702602Y-144512602D01*
X280742269Y-144453236D01*
X280889755Y-144305750D01*
X283466030Y-144305750D01*
X283466030Y-144446030D01*
X283562703Y-144679419D01*
X283741332Y-144858047D01*
X283974721Y-144954720D01*
X284041975Y-144954720D01*
X284200725Y-144795970D01*
X284200725Y-144147000D01*
X283624780Y-144147000D01*
X283466030Y-144305750D01*
X280889755Y-144305750D01*
X280973238Y-144222267D01*
X281032601Y-144182602D01*
X281073763Y-144121000D01*
X281142713Y-144017809D01*
X281189747Y-143947418D01*
X281231000Y-143740026D01*
X281231000Y-143740022D01*
X281244928Y-143670001D01*
X281231000Y-143599980D01*
X281231000Y-143030815D01*
X281242123Y-143086735D01*
X281242123Y-143086735D01*
G37*
X281242123Y-143086735D02*
X281382471Y-143296779D01*
X281592515Y-143437127D01*
X281840280Y-143486410D01*
X282003245Y-143486410D01*
X282113002Y-143559747D01*
X282320394Y-143601000D01*
X282320399Y-143601000D01*
X282390419Y-143614928D01*
X282460440Y-143601000D01*
X282631626Y-143601000D01*
X282687235Y-143638157D01*
X282935000Y-143687440D01*
X283466030Y-143687440D01*
X283466030Y-143734250D01*
X283624780Y-143893000D01*
X284200725Y-143893000D01*
X284200725Y-143873000D01*
X284352750Y-143873000D01*
X284352750Y-144319720D01*
X284400115Y-144557842D01*
X284400115Y-144795970D01*
X284558865Y-144954720D01*
X284626119Y-144954720D01*
X284738128Y-144908324D01*
X284752425Y-144917877D01*
X285000190Y-144967160D01*
X285398970Y-144967160D01*
X285646735Y-144917877D01*
X285856779Y-144777529D01*
X285868341Y-144760225D01*
X285873221Y-144767529D01*
X286083265Y-144907877D01*
X286331030Y-144957160D01*
X286729810Y-144957160D01*
X286977575Y-144907877D01*
X286991872Y-144898324D01*
X287103881Y-144944720D01*
X287171135Y-144944720D01*
X287329885Y-144785970D01*
X287329885Y-144547842D01*
X287377250Y-144309720D01*
X287377250Y-144081000D01*
X287476030Y-144081000D01*
X287476030Y-144137002D01*
X287529275Y-144137002D01*
X287529275Y-144242505D01*
X287476030Y-144295750D01*
X287476030Y-144436030D01*
X287529275Y-144564575D01*
X287529275Y-144785970D01*
X287688025Y-144944720D01*
X287755279Y-144944720D01*
X287870000Y-144897201D01*
X287984721Y-144944720D01*
X288051975Y-144944720D01*
X288210725Y-144785970D01*
X288210725Y-144564575D01*
X288263970Y-144436030D01*
X288263970Y-144295750D01*
X288210725Y-144242505D01*
X288210725Y-144137000D01*
X288163420Y-144137000D01*
X288163420Y-144041537D01*
X288172418Y-144039747D01*
X288362750Y-143912571D01*
X288362750Y-144309720D01*
X288410115Y-144547842D01*
X288410115Y-144785970D01*
X288568865Y-144944720D01*
X288636119Y-144944720D01*
X288748128Y-144898324D01*
X288762425Y-144907877D01*
X289010190Y-144957160D01*
X289111000Y-144957160D01*
X289111000Y-145186833D01*
X289155804Y-145295000D01*
X266585000Y-145295000D01*
X266585000Y-143892456D01*
X266712191Y-144082809D01*
X266922235Y-144223157D01*
X267170000Y-144272440D01*
X267470000Y-144272440D01*
X267570000Y-144252549D01*
X267670000Y-144272440D01*
X267852055Y-144272440D01*
X267866763Y-144282268D01*
X268117729Y-144533233D01*
X268157398Y-144592602D01*
X268392582Y-144749747D01*
X268599974Y-144791000D01*
X268599979Y-144791000D01*
X268670000Y-144804928D01*
X268740021Y-144791000D01*
X270899559Y-144791000D01*
X270969580Y-144804928D01*
X271039601Y-144791000D01*
X271039606Y-144791000D01*
X271150383Y-144768965D01*
X271212703Y-144919419D01*
X271391332Y-145098047D01*
X271624721Y-145194720D01*
X271691975Y-145194720D01*
X271850725Y-145035970D01*
X271850725Y-144387000D01*
X271803420Y-144387000D01*
X271803420Y-144251665D01*
X271942085Y-144113000D01*
X272002750Y-144113000D01*
X272002750Y-144559720D01*
X272050115Y-144797842D01*
X272050115Y-145035970D01*
X272208865Y-145194720D01*
X272276119Y-145194720D01*
X272388128Y-145148324D01*
X272402425Y-145157877D01*
X272650190Y-145207160D01*
X273048970Y-145207160D01*
X273296735Y-145157877D01*
X273506779Y-145017529D01*
X273647127Y-144807485D01*
X273669252Y-144696253D01*
X274158066Y-144207440D01*
X274325000Y-144207440D01*
X274489632Y-144174693D01*
X274693167Y-144259000D01*
X275046833Y-144259000D01*
X275313097Y-144148710D01*
X275327235Y-144158157D01*
X275575000Y-144207440D01*
X276225000Y-144207440D01*
X276472765Y-144158157D01*
X276505408Y-144136345D01*
X276552471Y-144206779D01*
X276762515Y-144347127D01*
X277010280Y-144396410D01*
X277300905Y-144396410D01*
X277357731Y-144453236D01*
X277397398Y-144512602D01*
X277632582Y-144669747D01*
X277839974Y-144711000D01*
X277839978Y-144711000D01*
X277909999Y-144724928D01*
X277980020Y-144711000D01*
X280119979Y-144711000D01*
X280190000Y-144724928D01*
X280260021Y-144711000D01*
X280260026Y-144711000D01*
X280467418Y-144669747D01*
X280702602Y-144512602D01*
X280742269Y-144453236D01*
X280889755Y-144305750D01*
X283466030Y-144305750D01*
X283466030Y-144446030D01*
X283562703Y-144679419D01*
X283741332Y-144858047D01*
X283974721Y-144954720D01*
X284041975Y-144954720D01*
X284200725Y-144795970D01*
X284200725Y-144147000D01*
X283624780Y-144147000D01*
X283466030Y-144305750D01*
X280889755Y-144305750D01*
X280973238Y-144222267D01*
X281032601Y-144182602D01*
X281073763Y-144121000D01*
X281142713Y-144017809D01*
X281189747Y-143947418D01*
X281231000Y-143740026D01*
X281231000Y-143740022D01*
X281244928Y-143670001D01*
X281231000Y-143599980D01*
X281231000Y-143030815D01*
X281242123Y-143086735D01*
G36*
X279526580Y-143289000D02*
X279327250Y-143289000D01*
X279327250Y-143237160D01*
X279526580Y-143237160D01*
X279526580Y-143289000D01*
X279526580Y-143289000D01*
G37*
X279526580Y-143289000D02*
X279327250Y-143289000D01*
X279327250Y-143237160D01*
X279526580Y-143237160D01*
X279526580Y-143289000D01*
G36*
X294776161Y-136429418D02*
X295104375Y-136920625D01*
X295423478Y-137133843D01*
X295293642Y-137194817D01*
X294903355Y-137623076D01*
X294733524Y-138033110D01*
X294854845Y-138263000D01*
X296048000Y-138263000D01*
X296048000Y-138243000D01*
X296302000Y-138243000D01*
X296302000Y-138263000D01*
X296322000Y-138263000D01*
X296322000Y-138517000D01*
X296302000Y-138517000D01*
X296302000Y-139710819D01*
X296531892Y-139831486D01*
X297056358Y-139585183D01*
X297415000Y-139191647D01*
X297415000Y-141573331D01*
X297261645Y-141203076D01*
X296871358Y-140774817D01*
X296346892Y-140528514D01*
X296117000Y-140649181D01*
X296117000Y-141843000D01*
X296137000Y-141843000D01*
X296137000Y-142097000D01*
X296117000Y-142097000D01*
X296117000Y-142117000D01*
X295863000Y-142117000D01*
X295863000Y-142097000D01*
X294669845Y-142097000D01*
X294548524Y-142326890D01*
X294632235Y-142529000D01*
X293642406Y-142529000D01*
X293789144Y-142117698D01*
X293763889Y-141613110D01*
X294548524Y-141613110D01*
X294669845Y-141843000D01*
X295863000Y-141843000D01*
X295863000Y-140649181D01*
X295633108Y-140528514D01*
X295108642Y-140774817D01*
X294718355Y-141203076D01*
X294548524Y-141613110D01*
X293763889Y-141613110D01*
X293761362Y-141562632D01*
X293602397Y-141178857D01*
X293360213Y-141109392D01*
X292559605Y-141910000D01*
X292573748Y-141924143D01*
X292394143Y-142103748D01*
X292380000Y-142089605D01*
X292365858Y-142103748D01*
X292186253Y-141924143D01*
X292200395Y-141910000D01*
X291399787Y-141109392D01*
X291157603Y-141178857D01*
X290970856Y-141702302D01*
X290998638Y-142257368D01*
X291003456Y-142269000D01*
X290475904Y-142269000D01*
X290416436Y-142180000D01*
X290518157Y-142027765D01*
X290567440Y-141780000D01*
X290567440Y-140980000D01*
X290557453Y-140929787D01*
X291579392Y-140929787D01*
X292380000Y-141730395D01*
X293180608Y-140929787D01*
X293111143Y-140687603D01*
X292587698Y-140500856D01*
X292032632Y-140528638D01*
X291648857Y-140687603D01*
X291579392Y-140929787D01*
X290557453Y-140929787D01*
X290518157Y-140732235D01*
X290409000Y-140568871D01*
X290409000Y-140343167D01*
X290273658Y-140016422D01*
X290023578Y-139766342D01*
X289696833Y-139631000D01*
X289343167Y-139631000D01*
X289016422Y-139766342D01*
X288766342Y-140016422D01*
X288646867Y-140304862D01*
X288516833Y-140251000D01*
X288424720Y-140251000D01*
X288424720Y-140244721D01*
X288328047Y-140011332D01*
X288149419Y-139832703D01*
X287916030Y-139736030D01*
X287775750Y-139736030D01*
X287617000Y-139894780D01*
X287617000Y-140470725D01*
X287637000Y-140470725D01*
X287637000Y-140585764D01*
X287600014Y-140622750D01*
X287190280Y-140622750D01*
X286952158Y-140670115D01*
X286875077Y-140670115D01*
X286832765Y-140641843D01*
X286585000Y-140592560D01*
X285835000Y-140592560D01*
X285587235Y-140641843D01*
X285377191Y-140782191D01*
X285236843Y-140992235D01*
X285236580Y-140993555D01*
X285119698Y-140876673D01*
X284929740Y-140797990D01*
X284911750Y-140780000D01*
X284783209Y-140780000D01*
X284838157Y-140697765D01*
X284887440Y-140450000D01*
X284887440Y-140244721D01*
X286555280Y-140244721D01*
X286555280Y-140311975D01*
X286714030Y-140470725D01*
X287363000Y-140470725D01*
X287363000Y-139894780D01*
X287204250Y-139736030D01*
X287063970Y-139736030D01*
X286830581Y-139832703D01*
X286651953Y-140011332D01*
X286555280Y-140244721D01*
X284887440Y-140244721D01*
X284887440Y-139650000D01*
X284874044Y-139582651D01*
X284890725Y-139565970D01*
X284890725Y-138917000D01*
X284314780Y-138917000D01*
X284229220Y-139002560D01*
X283440000Y-139002560D01*
X283192235Y-139051843D01*
X283040000Y-139153564D01*
X282887765Y-139051843D01*
X282640000Y-139002560D01*
X282350145Y-139002560D01*
X282459419Y-138957297D01*
X282638047Y-138778668D01*
X282734720Y-138545279D01*
X282734720Y-138478025D01*
X282577458Y-138320763D01*
X282713000Y-138185220D01*
X282713000Y-137982855D01*
X282734720Y-137961135D01*
X282734720Y-137893881D01*
X282713000Y-137841444D01*
X282713000Y-137768025D01*
X282895280Y-137768025D01*
X282895280Y-137835279D01*
X282967000Y-138008426D01*
X282967000Y-138185220D01*
X283125750Y-138343970D01*
X283266030Y-138343970D01*
X283335000Y-138315402D01*
X283403970Y-138343970D01*
X283544250Y-138343970D01*
X283703000Y-138185220D01*
X283703000Y-138008426D01*
X283774720Y-137835279D01*
X283774720Y-137768025D01*
X283703000Y-137696305D01*
X283703000Y-137609275D01*
X282967000Y-137609275D01*
X282967000Y-137696305D01*
X282895280Y-137768025D01*
X282713000Y-137768025D01*
X282713000Y-137691546D01*
X282747160Y-137519810D01*
X282747160Y-137457250D01*
X283139720Y-137457250D01*
X283335000Y-137418407D01*
X283530280Y-137457250D01*
X283977000Y-137457250D01*
X283977000Y-137609275D01*
X283957000Y-137609275D01*
X283957000Y-138185220D01*
X284115750Y-138343970D01*
X284164314Y-138343970D01*
X284156030Y-138363970D01*
X284156030Y-138504250D01*
X284314780Y-138663000D01*
X284890725Y-138663000D01*
X284890725Y-138643000D01*
X285042750Y-138643000D01*
X285042750Y-139089720D01*
X285090115Y-139327842D01*
X285090115Y-139565970D01*
X285248865Y-139724720D01*
X285316119Y-139724720D01*
X285428128Y-139678324D01*
X285442425Y-139687877D01*
X285690190Y-139737160D01*
X286088970Y-139737160D01*
X286336735Y-139687877D01*
X286546779Y-139547529D01*
X286687127Y-139337485D01*
X286736410Y-139089720D01*
X286736410Y-138490280D01*
X286734391Y-138480129D01*
X286829747Y-138337418D01*
X286834721Y-138312412D01*
X286860000Y-138317440D01*
X287060000Y-138317440D01*
X287160000Y-138297549D01*
X287260000Y-138317440D01*
X287351000Y-138317440D01*
X287351000Y-138476833D01*
X287486342Y-138803578D01*
X287736422Y-139053658D01*
X288063167Y-139189000D01*
X288416833Y-139189000D01*
X288743578Y-139053658D01*
X288817632Y-138979604D01*
X288842471Y-139016779D01*
X289052515Y-139157127D01*
X289300280Y-139206410D01*
X289899720Y-139206410D01*
X290147485Y-139157127D01*
X290357529Y-139016779D01*
X290397068Y-138957605D01*
X290890280Y-138957605D01*
X290890280Y-139024859D01*
X290986953Y-139258248D01*
X291165581Y-139436877D01*
X291398970Y-139533550D01*
X291539250Y-139533550D01*
X291698000Y-139374800D01*
X291698000Y-138798855D01*
X291952000Y-138798855D01*
X291952000Y-139374800D01*
X292110750Y-139533550D01*
X292251030Y-139533550D01*
X292484419Y-139436877D01*
X292663047Y-139258248D01*
X292759720Y-139024859D01*
X292759720Y-138957605D01*
X292600970Y-138798855D01*
X291952000Y-138798855D01*
X291698000Y-138798855D01*
X291049030Y-138798855D01*
X290890280Y-138957605D01*
X290397068Y-138957605D01*
X290497877Y-138806735D01*
X290509780Y-138746890D01*
X294733524Y-138746890D01*
X294903355Y-139156924D01*
X295293642Y-139585183D01*
X295818108Y-139831486D01*
X296048000Y-139710819D01*
X296048000Y-138517000D01*
X294854845Y-138517000D01*
X294733524Y-138746890D01*
X290509780Y-138746890D01*
X290547160Y-138558970D01*
X290547160Y-138160190D01*
X290497877Y-137912425D01*
X290496257Y-137910000D01*
X290497877Y-137907575D01*
X290547160Y-137659810D01*
X290547160Y-137261030D01*
X290497877Y-137013265D01*
X290357529Y-136803221D01*
X290324273Y-136781000D01*
X290944246Y-136781000D01*
X290969483Y-136806237D01*
X290969483Y-137047612D01*
X291006552Y-137233972D01*
X290927123Y-137352845D01*
X290877840Y-137600610D01*
X290877840Y-137999390D01*
X290927123Y-138247155D01*
X290936676Y-138261452D01*
X290890280Y-138373461D01*
X290890280Y-138440715D01*
X291049030Y-138599465D01*
X291287158Y-138599465D01*
X291525280Y-138646830D01*
X292124720Y-138646830D01*
X292362842Y-138599465D01*
X292600970Y-138599465D01*
X292759720Y-138440715D01*
X292759720Y-138373461D01*
X292713324Y-138261452D01*
X292722877Y-138247155D01*
X292772160Y-137999390D01*
X292772160Y-137695052D01*
X292914863Y-137695052D01*
X293162628Y-137645769D01*
X293372672Y-137505421D01*
X293513020Y-137295377D01*
X293562303Y-137047612D01*
X293562303Y-136448172D01*
X293555193Y-136412429D01*
X293571422Y-136428658D01*
X293898167Y-136564000D01*
X294251833Y-136564000D01*
X294578578Y-136428658D01*
X294743254Y-136263982D01*
X294776161Y-136429418D01*
X294776161Y-136429418D01*
G37*
X294776161Y-136429418D02*
X295104375Y-136920625D01*
X295423478Y-137133843D01*
X295293642Y-137194817D01*
X294903355Y-137623076D01*
X294733524Y-138033110D01*
X294854845Y-138263000D01*
X296048000Y-138263000D01*
X296048000Y-138243000D01*
X296302000Y-138243000D01*
X296302000Y-138263000D01*
X296322000Y-138263000D01*
X296322000Y-138517000D01*
X296302000Y-138517000D01*
X296302000Y-139710819D01*
X296531892Y-139831486D01*
X297056358Y-139585183D01*
X297415000Y-139191647D01*
X297415000Y-141573331D01*
X297261645Y-141203076D01*
X296871358Y-140774817D01*
X296346892Y-140528514D01*
X296117000Y-140649181D01*
X296117000Y-141843000D01*
X296137000Y-141843000D01*
X296137000Y-142097000D01*
X296117000Y-142097000D01*
X296117000Y-142117000D01*
X295863000Y-142117000D01*
X295863000Y-142097000D01*
X294669845Y-142097000D01*
X294548524Y-142326890D01*
X294632235Y-142529000D01*
X293642406Y-142529000D01*
X293789144Y-142117698D01*
X293763889Y-141613110D01*
X294548524Y-141613110D01*
X294669845Y-141843000D01*
X295863000Y-141843000D01*
X295863000Y-140649181D01*
X295633108Y-140528514D01*
X295108642Y-140774817D01*
X294718355Y-141203076D01*
X294548524Y-141613110D01*
X293763889Y-141613110D01*
X293761362Y-141562632D01*
X293602397Y-141178857D01*
X293360213Y-141109392D01*
X292559605Y-141910000D01*
X292573748Y-141924143D01*
X292394143Y-142103748D01*
X292380000Y-142089605D01*
X292365858Y-142103748D01*
X292186253Y-141924143D01*
X292200395Y-141910000D01*
X291399787Y-141109392D01*
X291157603Y-141178857D01*
X290970856Y-141702302D01*
X290998638Y-142257368D01*
X291003456Y-142269000D01*
X290475904Y-142269000D01*
X290416436Y-142180000D01*
X290518157Y-142027765D01*
X290567440Y-141780000D01*
X290567440Y-140980000D01*
X290557453Y-140929787D01*
X291579392Y-140929787D01*
X292380000Y-141730395D01*
X293180608Y-140929787D01*
X293111143Y-140687603D01*
X292587698Y-140500856D01*
X292032632Y-140528638D01*
X291648857Y-140687603D01*
X291579392Y-140929787D01*
X290557453Y-140929787D01*
X290518157Y-140732235D01*
X290409000Y-140568871D01*
X290409000Y-140343167D01*
X290273658Y-140016422D01*
X290023578Y-139766342D01*
X289696833Y-139631000D01*
X289343167Y-139631000D01*
X289016422Y-139766342D01*
X288766342Y-140016422D01*
X288646867Y-140304862D01*
X288516833Y-140251000D01*
X288424720Y-140251000D01*
X288424720Y-140244721D01*
X288328047Y-140011332D01*
X288149419Y-139832703D01*
X287916030Y-139736030D01*
X287775750Y-139736030D01*
X287617000Y-139894780D01*
X287617000Y-140470725D01*
X287637000Y-140470725D01*
X287637000Y-140585764D01*
X287600014Y-140622750D01*
X287190280Y-140622750D01*
X286952158Y-140670115D01*
X286875077Y-140670115D01*
X286832765Y-140641843D01*
X286585000Y-140592560D01*
X285835000Y-140592560D01*
X285587235Y-140641843D01*
X285377191Y-140782191D01*
X285236843Y-140992235D01*
X285236580Y-140993555D01*
X285119698Y-140876673D01*
X284929740Y-140797990D01*
X284911750Y-140780000D01*
X284783209Y-140780000D01*
X284838157Y-140697765D01*
X284887440Y-140450000D01*
X284887440Y-140244721D01*
X286555280Y-140244721D01*
X286555280Y-140311975D01*
X286714030Y-140470725D01*
X287363000Y-140470725D01*
X287363000Y-139894780D01*
X287204250Y-139736030D01*
X287063970Y-139736030D01*
X286830581Y-139832703D01*
X286651953Y-140011332D01*
X286555280Y-140244721D01*
X284887440Y-140244721D01*
X284887440Y-139650000D01*
X284874044Y-139582651D01*
X284890725Y-139565970D01*
X284890725Y-138917000D01*
X284314780Y-138917000D01*
X284229220Y-139002560D01*
X283440000Y-139002560D01*
X283192235Y-139051843D01*
X283040000Y-139153564D01*
X282887765Y-139051843D01*
X282640000Y-139002560D01*
X282350145Y-139002560D01*
X282459419Y-138957297D01*
X282638047Y-138778668D01*
X282734720Y-138545279D01*
X282734720Y-138478025D01*
X282577458Y-138320763D01*
X282713000Y-138185220D01*
X282713000Y-137982855D01*
X282734720Y-137961135D01*
X282734720Y-137893881D01*
X282713000Y-137841444D01*
X282713000Y-137768025D01*
X282895280Y-137768025D01*
X282895280Y-137835279D01*
X282967000Y-138008426D01*
X282967000Y-138185220D01*
X283125750Y-138343970D01*
X283266030Y-138343970D01*
X283335000Y-138315402D01*
X283403970Y-138343970D01*
X283544250Y-138343970D01*
X283703000Y-138185220D01*
X283703000Y-138008426D01*
X283774720Y-137835279D01*
X283774720Y-137768025D01*
X283703000Y-137696305D01*
X283703000Y-137609275D01*
X282967000Y-137609275D01*
X282967000Y-137696305D01*
X282895280Y-137768025D01*
X282713000Y-137768025D01*
X282713000Y-137691546D01*
X282747160Y-137519810D01*
X282747160Y-137457250D01*
X283139720Y-137457250D01*
X283335000Y-137418407D01*
X283530280Y-137457250D01*
X283977000Y-137457250D01*
X283977000Y-137609275D01*
X283957000Y-137609275D01*
X283957000Y-138185220D01*
X284115750Y-138343970D01*
X284164314Y-138343970D01*
X284156030Y-138363970D01*
X284156030Y-138504250D01*
X284314780Y-138663000D01*
X284890725Y-138663000D01*
X284890725Y-138643000D01*
X285042750Y-138643000D01*
X285042750Y-139089720D01*
X285090115Y-139327842D01*
X285090115Y-139565970D01*
X285248865Y-139724720D01*
X285316119Y-139724720D01*
X285428128Y-139678324D01*
X285442425Y-139687877D01*
X285690190Y-139737160D01*
X286088970Y-139737160D01*
X286336735Y-139687877D01*
X286546779Y-139547529D01*
X286687127Y-139337485D01*
X286736410Y-139089720D01*
X286736410Y-138490280D01*
X286734391Y-138480129D01*
X286829747Y-138337418D01*
X286834721Y-138312412D01*
X286860000Y-138317440D01*
X287060000Y-138317440D01*
X287160000Y-138297549D01*
X287260000Y-138317440D01*
X287351000Y-138317440D01*
X287351000Y-138476833D01*
X287486342Y-138803578D01*
X287736422Y-139053658D01*
X288063167Y-139189000D01*
X288416833Y-139189000D01*
X288743578Y-139053658D01*
X288817632Y-138979604D01*
X288842471Y-139016779D01*
X289052515Y-139157127D01*
X289300280Y-139206410D01*
X289899720Y-139206410D01*
X290147485Y-139157127D01*
X290357529Y-139016779D01*
X290397068Y-138957605D01*
X290890280Y-138957605D01*
X290890280Y-139024859D01*
X290986953Y-139258248D01*
X291165581Y-139436877D01*
X291398970Y-139533550D01*
X291539250Y-139533550D01*
X291698000Y-139374800D01*
X291698000Y-138798855D01*
X291952000Y-138798855D01*
X291952000Y-139374800D01*
X292110750Y-139533550D01*
X292251030Y-139533550D01*
X292484419Y-139436877D01*
X292663047Y-139258248D01*
X292759720Y-139024859D01*
X292759720Y-138957605D01*
X292600970Y-138798855D01*
X291952000Y-138798855D01*
X291698000Y-138798855D01*
X291049030Y-138798855D01*
X290890280Y-138957605D01*
X290397068Y-138957605D01*
X290497877Y-138806735D01*
X290509780Y-138746890D01*
X294733524Y-138746890D01*
X294903355Y-139156924D01*
X295293642Y-139585183D01*
X295818108Y-139831486D01*
X296048000Y-139710819D01*
X296048000Y-138517000D01*
X294854845Y-138517000D01*
X294733524Y-138746890D01*
X290509780Y-138746890D01*
X290547160Y-138558970D01*
X290547160Y-138160190D01*
X290497877Y-137912425D01*
X290496257Y-137910000D01*
X290497877Y-137907575D01*
X290547160Y-137659810D01*
X290547160Y-137261030D01*
X290497877Y-137013265D01*
X290357529Y-136803221D01*
X290324273Y-136781000D01*
X290944246Y-136781000D01*
X290969483Y-136806237D01*
X290969483Y-137047612D01*
X291006552Y-137233972D01*
X290927123Y-137352845D01*
X290877840Y-137600610D01*
X290877840Y-137999390D01*
X290927123Y-138247155D01*
X290936676Y-138261452D01*
X290890280Y-138373461D01*
X290890280Y-138440715D01*
X291049030Y-138599465D01*
X291287158Y-138599465D01*
X291525280Y-138646830D01*
X292124720Y-138646830D01*
X292362842Y-138599465D01*
X292600970Y-138599465D01*
X292759720Y-138440715D01*
X292759720Y-138373461D01*
X292713324Y-138261452D01*
X292722877Y-138247155D01*
X292772160Y-137999390D01*
X292772160Y-137695052D01*
X292914863Y-137695052D01*
X293162628Y-137645769D01*
X293372672Y-137505421D01*
X293513020Y-137295377D01*
X293562303Y-137047612D01*
X293562303Y-136448172D01*
X293555193Y-136412429D01*
X293571422Y-136428658D01*
X293898167Y-136564000D01*
X294251833Y-136564000D01*
X294578578Y-136428658D01*
X294743254Y-136263982D01*
X294776161Y-136429418D01*
G36*
X281382191Y-140907809D02*
X281507513Y-140991547D01*
X281480581Y-141002703D01*
X281301953Y-141181332D01*
X281205280Y-141414721D01*
X281205280Y-141481975D01*
X281364030Y-141640725D01*
X282013000Y-141640725D01*
X282013000Y-141593420D01*
X282267000Y-141593420D01*
X282267000Y-141640725D01*
X282287000Y-141640725D01*
X282287000Y-141792750D01*
X281840280Y-141792750D01*
X281602158Y-141840115D01*
X281364030Y-141840115D01*
X281205280Y-141998865D01*
X281205280Y-142066119D01*
X281251676Y-142178128D01*
X281242123Y-142192425D01*
X281200007Y-142404160D01*
X281193923Y-142373578D01*
X281189747Y-142352581D01*
X281072269Y-142176764D01*
X281032602Y-142117398D01*
X280973236Y-142077731D01*
X280732269Y-141836764D01*
X280692602Y-141777398D01*
X280457418Y-141620253D01*
X280250026Y-141579000D01*
X280250021Y-141579000D01*
X280180000Y-141565072D01*
X280109979Y-141579000D01*
X280067869Y-141579000D01*
X280036779Y-141532471D01*
X279826735Y-141392123D01*
X279578970Y-141342840D01*
X279191420Y-141342840D01*
X279191420Y-141097440D01*
X279640000Y-141097440D01*
X279865000Y-141052685D01*
X280090000Y-141097440D01*
X280890000Y-141097440D01*
X281137765Y-141048157D01*
X281347809Y-140907809D01*
X281365000Y-140882081D01*
X281382191Y-140907809D01*
X281382191Y-140907809D01*
G37*
X281382191Y-140907809D02*
X281507513Y-140991547D01*
X281480581Y-141002703D01*
X281301953Y-141181332D01*
X281205280Y-141414721D01*
X281205280Y-141481975D01*
X281364030Y-141640725D01*
X282013000Y-141640725D01*
X282013000Y-141593420D01*
X282267000Y-141593420D01*
X282267000Y-141640725D01*
X282287000Y-141640725D01*
X282287000Y-141792750D01*
X281840280Y-141792750D01*
X281602158Y-141840115D01*
X281364030Y-141840115D01*
X281205280Y-141998865D01*
X281205280Y-142066119D01*
X281251676Y-142178128D01*
X281242123Y-142192425D01*
X281200007Y-142404160D01*
X281193923Y-142373578D01*
X281189747Y-142352581D01*
X281072269Y-142176764D01*
X281032602Y-142117398D01*
X280973236Y-142077731D01*
X280732269Y-141836764D01*
X280692602Y-141777398D01*
X280457418Y-141620253D01*
X280250026Y-141579000D01*
X280250021Y-141579000D01*
X280180000Y-141565072D01*
X280109979Y-141579000D01*
X280067869Y-141579000D01*
X280036779Y-141532471D01*
X279826735Y-141392123D01*
X279578970Y-141342840D01*
X279191420Y-141342840D01*
X279191420Y-141097440D01*
X279640000Y-141097440D01*
X279865000Y-141052685D01*
X280090000Y-141097440D01*
X280890000Y-141097440D01*
X281137765Y-141048157D01*
X281347809Y-140907809D01*
X281365000Y-140882081D01*
X281382191Y-140907809D01*
G36*
X267572998Y-142264500D02*
X267553000Y-142264500D01*
X267553000Y-142246250D01*
X267572998Y-142226252D01*
X267572998Y-142264500D01*
X267572998Y-142264500D01*
G37*
X267572998Y-142264500D02*
X267553000Y-142264500D01*
X267553000Y-142246250D01*
X267572998Y-142226252D01*
X267572998Y-142264500D01*
G36*
X267865250Y-142264500D02*
X267827002Y-142264500D01*
X267827002Y-142226252D01*
X267865250Y-142264500D01*
X267865250Y-142264500D01*
G37*
X267865250Y-142264500D02*
X267827002Y-142264500D01*
X267827002Y-142226252D01*
X267865250Y-142264500D01*
G36*
X268812998Y-142264500D02*
X268774750Y-142264500D01*
X268812998Y-142226252D01*
X268812998Y-142264500D01*
X268812998Y-142264500D01*
G37*
X268812998Y-142264500D02*
X268774750Y-142264500D01*
X268812998Y-142226252D01*
X268812998Y-142264500D01*
G36*
X269087000Y-142246250D02*
X269087000Y-142264500D01*
X269067002Y-142264500D01*
X269067002Y-142226252D01*
X269087000Y-142246250D01*
X269087000Y-142246250D01*
G37*
X269087000Y-142246250D02*
X269087000Y-142264500D01*
X269067002Y-142264500D01*
X269067002Y-142226252D01*
X269087000Y-142246250D01*
G36*
X271916030Y-139914250D02*
X272074780Y-140073000D01*
X272650725Y-140073000D01*
X272650725Y-140053000D01*
X272802750Y-140053000D01*
X272802750Y-140499720D01*
X272850115Y-140737842D01*
X272850115Y-140975970D01*
X273008865Y-141134720D01*
X273076119Y-141134720D01*
X273188128Y-141088324D01*
X273202425Y-141097877D01*
X273450190Y-141147160D01*
X273848970Y-141147160D01*
X274096735Y-141097877D01*
X274306779Y-140957529D01*
X274363596Y-140872496D01*
X274377418Y-140869747D01*
X274537157Y-140763012D01*
X274674030Y-140899885D01*
X274912158Y-140899885D01*
X275150280Y-140947250D01*
X275749720Y-140947250D01*
X275987842Y-140899885D01*
X276312158Y-140899885D01*
X276550280Y-140947250D01*
X276979000Y-140947250D01*
X276979000Y-141099275D01*
X276977000Y-141099275D01*
X276977000Y-141146580D01*
X276723000Y-141146580D01*
X276723000Y-141099275D01*
X275577000Y-141099275D01*
X275577000Y-141146580D01*
X275323000Y-141146580D01*
X275323000Y-141099275D01*
X274674030Y-141099275D01*
X274521633Y-141251672D01*
X274325000Y-141212560D01*
X273675000Y-141212560D01*
X273427235Y-141261843D01*
X273217191Y-141402191D01*
X273076843Y-141612235D01*
X273066414Y-141664668D01*
X272978047Y-141451332D01*
X272799419Y-141272703D01*
X272566030Y-141176030D01*
X272425750Y-141176030D01*
X272267000Y-141334780D01*
X272267000Y-141910725D01*
X272287000Y-141910725D01*
X272287000Y-142062750D01*
X271840280Y-142062750D01*
X271652431Y-142100115D01*
X271577842Y-142100115D01*
X271339720Y-142052750D01*
X270893000Y-142052750D01*
X270893000Y-141900725D01*
X270913000Y-141900725D01*
X270913000Y-141324780D01*
X271167000Y-141324780D01*
X271167000Y-141900725D01*
X271354030Y-141900725D01*
X271364030Y-141910725D01*
X272013000Y-141910725D01*
X272013000Y-141334780D01*
X271854250Y-141176030D01*
X271713970Y-141176030D01*
X271602071Y-141222380D01*
X271466030Y-141166030D01*
X271325750Y-141166030D01*
X271167000Y-141324780D01*
X270913000Y-141324780D01*
X270754250Y-141166030D01*
X270613970Y-141166030D01*
X270611000Y-141167260D01*
X270611000Y-140826236D01*
X270823658Y-140613578D01*
X270876606Y-140485750D01*
X271916030Y-140485750D01*
X271916030Y-140626030D01*
X272012703Y-140859419D01*
X272191332Y-141038047D01*
X272424721Y-141134720D01*
X272491975Y-141134720D01*
X272650725Y-140975970D01*
X272650725Y-140327000D01*
X272074780Y-140327000D01*
X271916030Y-140485750D01*
X270876606Y-140485750D01*
X270959000Y-140286833D01*
X270959000Y-139933167D01*
X270904658Y-139801974D01*
X271090500Y-139838940D01*
X271725500Y-139838940D01*
X271916030Y-139801042D01*
X271916030Y-139914250D01*
X271916030Y-139914250D01*
G37*
X271916030Y-139914250D02*
X272074780Y-140073000D01*
X272650725Y-140073000D01*
X272650725Y-140053000D01*
X272802750Y-140053000D01*
X272802750Y-140499720D01*
X272850115Y-140737842D01*
X272850115Y-140975970D01*
X273008865Y-141134720D01*
X273076119Y-141134720D01*
X273188128Y-141088324D01*
X273202425Y-141097877D01*
X273450190Y-141147160D01*
X273848970Y-141147160D01*
X274096735Y-141097877D01*
X274306779Y-140957529D01*
X274363596Y-140872496D01*
X274377418Y-140869747D01*
X274537157Y-140763012D01*
X274674030Y-140899885D01*
X274912158Y-140899885D01*
X275150280Y-140947250D01*
X275749720Y-140947250D01*
X275987842Y-140899885D01*
X276312158Y-140899885D01*
X276550280Y-140947250D01*
X276979000Y-140947250D01*
X276979000Y-141099275D01*
X276977000Y-141099275D01*
X276977000Y-141146580D01*
X276723000Y-141146580D01*
X276723000Y-141099275D01*
X275577000Y-141099275D01*
X275577000Y-141146580D01*
X275323000Y-141146580D01*
X275323000Y-141099275D01*
X274674030Y-141099275D01*
X274521633Y-141251672D01*
X274325000Y-141212560D01*
X273675000Y-141212560D01*
X273427235Y-141261843D01*
X273217191Y-141402191D01*
X273076843Y-141612235D01*
X273066414Y-141664668D01*
X272978047Y-141451332D01*
X272799419Y-141272703D01*
X272566030Y-141176030D01*
X272425750Y-141176030D01*
X272267000Y-141334780D01*
X272267000Y-141910725D01*
X272287000Y-141910725D01*
X272287000Y-142062750D01*
X271840280Y-142062750D01*
X271652431Y-142100115D01*
X271577842Y-142100115D01*
X271339720Y-142052750D01*
X270893000Y-142052750D01*
X270893000Y-141900725D01*
X270913000Y-141900725D01*
X270913000Y-141324780D01*
X271167000Y-141324780D01*
X271167000Y-141900725D01*
X271354030Y-141900725D01*
X271364030Y-141910725D01*
X272013000Y-141910725D01*
X272013000Y-141334780D01*
X271854250Y-141176030D01*
X271713970Y-141176030D01*
X271602071Y-141222380D01*
X271466030Y-141166030D01*
X271325750Y-141166030D01*
X271167000Y-141324780D01*
X270913000Y-141324780D01*
X270754250Y-141166030D01*
X270613970Y-141166030D01*
X270611000Y-141167260D01*
X270611000Y-140826236D01*
X270823658Y-140613578D01*
X270876606Y-140485750D01*
X271916030Y-140485750D01*
X271916030Y-140626030D01*
X272012703Y-140859419D01*
X272191332Y-141038047D01*
X272424721Y-141134720D01*
X272491975Y-141134720D01*
X272650725Y-140975970D01*
X272650725Y-140327000D01*
X272074780Y-140327000D01*
X271916030Y-140485750D01*
X270876606Y-140485750D01*
X270959000Y-140286833D01*
X270959000Y-139933167D01*
X270904658Y-139801974D01*
X271090500Y-139838940D01*
X271725500Y-139838940D01*
X271916030Y-139801042D01*
X271916030Y-139914250D01*
G36*
X267572998Y-141273748D02*
X267553000Y-141253750D01*
X267553000Y-141235500D01*
X267572998Y-141235500D01*
X267572998Y-141273748D01*
X267572998Y-141273748D01*
G37*
X267572998Y-141273748D02*
X267553000Y-141253750D01*
X267553000Y-141235500D01*
X267572998Y-141235500D01*
X267572998Y-141273748D01*
G36*
X267827002Y-141273748D02*
X267827002Y-141235500D01*
X267865250Y-141235500D01*
X267827002Y-141273748D01*
X267827002Y-141273748D01*
G37*
X267827002Y-141273748D02*
X267827002Y-141235500D01*
X267865250Y-141235500D01*
X267827002Y-141273748D01*
G36*
X268812998Y-141273748D02*
X268774750Y-141235500D01*
X268812998Y-141235500D01*
X268812998Y-141273748D01*
X268812998Y-141273748D01*
G37*
X268812998Y-141273748D02*
X268774750Y-141235500D01*
X268812998Y-141235500D01*
X268812998Y-141273748D01*
G36*
X269087000Y-141253750D02*
X269067002Y-141273748D01*
X269067002Y-141235500D01*
X269087000Y-141235500D01*
X269087000Y-141253750D01*
X269087000Y-141253750D01*
G37*
X269087000Y-141253750D02*
X269067002Y-141273748D01*
X269067002Y-141235500D01*
X269087000Y-141235500D01*
X269087000Y-141253750D01*
G36*
X271322582Y-132160253D02*
X271087398Y-132317398D01*
X271047731Y-132376764D01*
X271036762Y-132387733D01*
X270977398Y-132427399D01*
X270937733Y-132486762D01*
X270937732Y-132486763D01*
X270898771Y-132545072D01*
X270820253Y-132662583D01*
X270779000Y-132869975D01*
X270779000Y-132869979D01*
X270765072Y-132940000D01*
X270779000Y-133010021D01*
X270779000Y-133552560D01*
X270674135Y-133552560D01*
X270734720Y-133491975D01*
X270734720Y-133424721D01*
X270673000Y-133275716D01*
X270673000Y-132623750D01*
X270514250Y-132465000D01*
X270223691Y-132465000D01*
X269990302Y-132561673D01*
X269811673Y-132740301D01*
X269738884Y-132916030D01*
X269672998Y-132916030D01*
X269672998Y-133074778D01*
X269514250Y-132916030D01*
X269373970Y-132916030D01*
X269140581Y-133012703D01*
X268961953Y-133191332D01*
X268865280Y-133424721D01*
X268865280Y-133491975D01*
X269024030Y-133650725D01*
X269673000Y-133650725D01*
X269673000Y-133603420D01*
X269927000Y-133603420D01*
X269927000Y-133627000D01*
X269873750Y-133627000D01*
X269715000Y-133785750D01*
X269715000Y-133802750D01*
X269500280Y-133802750D01*
X269262158Y-133850115D01*
X269024030Y-133850115D01*
X268865280Y-134008865D01*
X268865280Y-134076119D01*
X268911676Y-134188128D01*
X268902123Y-134202425D01*
X268852840Y-134450190D01*
X268852840Y-134848970D01*
X268902123Y-135096735D01*
X269042471Y-135306779D01*
X269252515Y-135447127D01*
X269500280Y-135496410D01*
X269949961Y-135496410D01*
X270102235Y-135598157D01*
X270350000Y-135647440D01*
X270785500Y-135647440D01*
X270785500Y-135714250D01*
X270944250Y-135873000D01*
X271611000Y-135873000D01*
X271611000Y-135853000D01*
X271865000Y-135853000D01*
X271865000Y-135873000D01*
X271885000Y-135873000D01*
X271885000Y-136127000D01*
X271865000Y-136127000D01*
X271865000Y-136147000D01*
X271611000Y-136147000D01*
X271611000Y-136127000D01*
X270944250Y-136127000D01*
X270785500Y-136285750D01*
X270785500Y-136697810D01*
X270882173Y-136931199D01*
X270889839Y-136938865D01*
X270883590Y-136970280D01*
X270883590Y-137097491D01*
X270855734Y-137139181D01*
X270855732Y-137139183D01*
X270769914Y-137267619D01*
X270738254Y-137315002D01*
X270702994Y-137492268D01*
X270691191Y-137551602D01*
X270632691Y-137590691D01*
X270492343Y-137800735D01*
X270443060Y-138048500D01*
X270443060Y-139191500D01*
X270467074Y-139312227D01*
X270246833Y-139221000D01*
X269893167Y-139221000D01*
X269733296Y-139287221D01*
X269732972Y-139287004D01*
X269736410Y-139269720D01*
X269736410Y-138670280D01*
X269687127Y-138422515D01*
X269546779Y-138212471D01*
X269336735Y-138072123D01*
X269088970Y-138022840D01*
X268690190Y-138022840D01*
X268442425Y-138072123D01*
X268440000Y-138073743D01*
X268437575Y-138072123D01*
X268189810Y-138022840D01*
X267791030Y-138022840D01*
X267543265Y-138072123D01*
X267333221Y-138212471D01*
X267192873Y-138422515D01*
X267143590Y-138670280D01*
X267143590Y-138803677D01*
X267113988Y-138847980D01*
X267055817Y-139140420D01*
X267070501Y-139214239D01*
X267070501Y-139247351D01*
X266922235Y-139276843D01*
X266712191Y-139417191D01*
X266585000Y-139607544D01*
X266585000Y-132127000D01*
X271489755Y-132127000D01*
X271322582Y-132160253D01*
X271322582Y-132160253D01*
G37*
X271322582Y-132160253D02*
X271087398Y-132317398D01*
X271047731Y-132376764D01*
X271036762Y-132387733D01*
X270977398Y-132427399D01*
X270937733Y-132486762D01*
X270937732Y-132486763D01*
X270898771Y-132545072D01*
X270820253Y-132662583D01*
X270779000Y-132869975D01*
X270779000Y-132869979D01*
X270765072Y-132940000D01*
X270779000Y-133010021D01*
X270779000Y-133552560D01*
X270674135Y-133552560D01*
X270734720Y-133491975D01*
X270734720Y-133424721D01*
X270673000Y-133275716D01*
X270673000Y-132623750D01*
X270514250Y-132465000D01*
X270223691Y-132465000D01*
X269990302Y-132561673D01*
X269811673Y-132740301D01*
X269738884Y-132916030D01*
X269672998Y-132916030D01*
X269672998Y-133074778D01*
X269514250Y-132916030D01*
X269373970Y-132916030D01*
X269140581Y-133012703D01*
X268961953Y-133191332D01*
X268865280Y-133424721D01*
X268865280Y-133491975D01*
X269024030Y-133650725D01*
X269673000Y-133650725D01*
X269673000Y-133603420D01*
X269927000Y-133603420D01*
X269927000Y-133627000D01*
X269873750Y-133627000D01*
X269715000Y-133785750D01*
X269715000Y-133802750D01*
X269500280Y-133802750D01*
X269262158Y-133850115D01*
X269024030Y-133850115D01*
X268865280Y-134008865D01*
X268865280Y-134076119D01*
X268911676Y-134188128D01*
X268902123Y-134202425D01*
X268852840Y-134450190D01*
X268852840Y-134848970D01*
X268902123Y-135096735D01*
X269042471Y-135306779D01*
X269252515Y-135447127D01*
X269500280Y-135496410D01*
X269949961Y-135496410D01*
X270102235Y-135598157D01*
X270350000Y-135647440D01*
X270785500Y-135647440D01*
X270785500Y-135714250D01*
X270944250Y-135873000D01*
X271611000Y-135873000D01*
X271611000Y-135853000D01*
X271865000Y-135853000D01*
X271865000Y-135873000D01*
X271885000Y-135873000D01*
X271885000Y-136127000D01*
X271865000Y-136127000D01*
X271865000Y-136147000D01*
X271611000Y-136147000D01*
X271611000Y-136127000D01*
X270944250Y-136127000D01*
X270785500Y-136285750D01*
X270785500Y-136697810D01*
X270882173Y-136931199D01*
X270889839Y-136938865D01*
X270883590Y-136970280D01*
X270883590Y-137097491D01*
X270855734Y-137139181D01*
X270855732Y-137139183D01*
X270769914Y-137267619D01*
X270738254Y-137315002D01*
X270702994Y-137492268D01*
X270691191Y-137551602D01*
X270632691Y-137590691D01*
X270492343Y-137800735D01*
X270443060Y-138048500D01*
X270443060Y-139191500D01*
X270467074Y-139312227D01*
X270246833Y-139221000D01*
X269893167Y-139221000D01*
X269733296Y-139287221D01*
X269732972Y-139287004D01*
X269736410Y-139269720D01*
X269736410Y-138670280D01*
X269687127Y-138422515D01*
X269546779Y-138212471D01*
X269336735Y-138072123D01*
X269088970Y-138022840D01*
X268690190Y-138022840D01*
X268442425Y-138072123D01*
X268440000Y-138073743D01*
X268437575Y-138072123D01*
X268189810Y-138022840D01*
X267791030Y-138022840D01*
X267543265Y-138072123D01*
X267333221Y-138212471D01*
X267192873Y-138422515D01*
X267143590Y-138670280D01*
X267143590Y-138803677D01*
X267113988Y-138847980D01*
X267055817Y-139140420D01*
X267070501Y-139214239D01*
X267070501Y-139247351D01*
X266922235Y-139276843D01*
X266712191Y-139417191D01*
X266585000Y-139607544D01*
X266585000Y-132127000D01*
X271489755Y-132127000D01*
X271322582Y-132160253D01*
G36*
X274019001Y-139196580D02*
X273943000Y-139196580D01*
X273943000Y-139149275D01*
X273923000Y-139149275D01*
X273923000Y-138997250D01*
X274019001Y-138997250D01*
X274019001Y-139196580D01*
X274019001Y-139196580D01*
G37*
X274019001Y-139196580D02*
X273943000Y-139196580D01*
X273943000Y-139149275D01*
X273923000Y-139149275D01*
X273923000Y-138997250D01*
X274019001Y-138997250D01*
X274019001Y-139196580D01*
G36*
X282180581Y-138247297D02*
X282354351Y-138319275D01*
X281927000Y-138319275D01*
X281927000Y-138366580D01*
X281673000Y-138366580D01*
X281673000Y-138319275D01*
X281653000Y-138319275D01*
X281653000Y-138167250D01*
X282099720Y-138167250D01*
X282100399Y-138167115D01*
X282180581Y-138247297D01*
X282180581Y-138247297D01*
G37*
X282180581Y-138247297D02*
X282354351Y-138319275D01*
X281927000Y-138319275D01*
X281927000Y-138366580D01*
X281673000Y-138366580D01*
X281673000Y-138319275D01*
X281653000Y-138319275D01*
X281653000Y-138167250D01*
X282099720Y-138167250D01*
X282100399Y-138167115D01*
X282180581Y-138247297D01*
G36*
X286224500Y-134680500D02*
X287295500Y-134680500D01*
X287295500Y-134660500D01*
X287549500Y-134660500D01*
X287549500Y-134680500D01*
X287569500Y-134680500D01*
X287569500Y-134934500D01*
X287549500Y-134934500D01*
X287549500Y-136005500D01*
X287569500Y-136005500D01*
X287569500Y-136259500D01*
X287549500Y-136259500D01*
X287549500Y-136279500D01*
X287295500Y-136279500D01*
X287295500Y-136259500D01*
X286224500Y-136259500D01*
X286224500Y-136279500D01*
X285970500Y-136279500D01*
X285970500Y-136259500D01*
X285950500Y-136259500D01*
X285950500Y-136005500D01*
X285970500Y-136005500D01*
X285970500Y-135093250D01*
X286125000Y-135093250D01*
X286125000Y-135846750D01*
X286224500Y-135946250D01*
X286224500Y-136005500D01*
X286283750Y-136005500D01*
X286383250Y-136105000D01*
X287136750Y-136105000D01*
X287236250Y-136005500D01*
X287295500Y-136005500D01*
X287295500Y-135946250D01*
X287395000Y-135846750D01*
X287395000Y-135093250D01*
X287295500Y-134993750D01*
X287295500Y-134934500D01*
X287236250Y-134934500D01*
X287136750Y-134835000D01*
X286383250Y-134835000D01*
X286283750Y-134934500D01*
X286224500Y-134934500D01*
X286224500Y-134993750D01*
X286125000Y-135093250D01*
X285970500Y-135093250D01*
X285970500Y-134934500D01*
X285950500Y-134934500D01*
X285950500Y-134680500D01*
X285970500Y-134680500D01*
X285970500Y-134660500D01*
X286224500Y-134660500D01*
X286224500Y-134680500D01*
X286224500Y-134680500D01*
G37*
X286224500Y-134680500D02*
X287295500Y-134680500D01*
X287295500Y-134660500D01*
X287549500Y-134660500D01*
X287549500Y-134680500D01*
X287569500Y-134680500D01*
X287569500Y-134934500D01*
X287549500Y-134934500D01*
X287549500Y-136005500D01*
X287569500Y-136005500D01*
X287569500Y-136259500D01*
X287549500Y-136259500D01*
X287549500Y-136279500D01*
X287295500Y-136279500D01*
X287295500Y-136259500D01*
X286224500Y-136259500D01*
X286224500Y-136279500D01*
X285970500Y-136279500D01*
X285970500Y-136259500D01*
X285950500Y-136259500D01*
X285950500Y-136005500D01*
X285970500Y-136005500D01*
X285970500Y-135093250D01*
X286125000Y-135093250D01*
X286125000Y-135846750D01*
X286224500Y-135946250D01*
X286224500Y-136005500D01*
X286283750Y-136005500D01*
X286383250Y-136105000D01*
X287136750Y-136105000D01*
X287236250Y-136005500D01*
X287295500Y-136005500D01*
X287295500Y-135946250D01*
X287395000Y-135846750D01*
X287395000Y-135093250D01*
X287295500Y-134993750D01*
X287295500Y-134934500D01*
X287236250Y-134934500D01*
X287136750Y-134835000D01*
X286383250Y-134835000D01*
X286283750Y-134934500D01*
X286224500Y-134934500D01*
X286224500Y-134993750D01*
X286125000Y-135093250D01*
X285970500Y-135093250D01*
X285970500Y-134934500D01*
X285950500Y-134934500D01*
X285950500Y-134680500D01*
X285970500Y-134680500D01*
X285970500Y-134660500D01*
X286224500Y-134660500D01*
X286224500Y-134680500D01*
G36*
X276211250Y-132204250D02*
X277163750Y-132204250D01*
X277183750Y-132184250D01*
X277303750Y-132184250D01*
X277323750Y-132204250D01*
X278276250Y-132204250D01*
X278296250Y-132184250D01*
X278416250Y-132184250D01*
X278436250Y-132204250D01*
X279388750Y-132204250D01*
X279408750Y-132184250D01*
X279595750Y-132184250D01*
X279595750Y-132204250D01*
X279615750Y-132204250D01*
X279615750Y-132391250D01*
X279595750Y-132411250D01*
X279595750Y-133363750D01*
X279615750Y-133383750D01*
X279615750Y-133503750D01*
X279595750Y-133523750D01*
X279595750Y-134476250D01*
X279615750Y-134496250D01*
X279615750Y-134616250D01*
X279595750Y-134636250D01*
X279595750Y-135588750D01*
X279615750Y-135608750D01*
X279615750Y-135795750D01*
X279595750Y-135795750D01*
X279595750Y-135815750D01*
X279408750Y-135815750D01*
X279388750Y-135795750D01*
X278436250Y-135795750D01*
X278416250Y-135815750D01*
X278296250Y-135815750D01*
X278276250Y-135795750D01*
X277323750Y-135795750D01*
X277303750Y-135815750D01*
X277183750Y-135815750D01*
X277163750Y-135795750D01*
X276211250Y-135795750D01*
X276191250Y-135815750D01*
X276004250Y-135815750D01*
X276004250Y-135795750D01*
X275984250Y-135795750D01*
X275984250Y-135608750D01*
X276004250Y-135588750D01*
X276004250Y-134636250D01*
X275984250Y-134616250D01*
X275984250Y-134496250D01*
X276004250Y-134476250D01*
X276004250Y-133523750D01*
X275984250Y-133503750D01*
X275984250Y-133383750D01*
X276004250Y-133363750D01*
X276004250Y-132617000D01*
X276052500Y-132617000D01*
X276052500Y-133158000D01*
X276211250Y-133316750D01*
X276218725Y-133316750D01*
X276258250Y-133356276D01*
X276258250Y-133363750D01*
X276338250Y-133443750D01*
X276258250Y-133523750D01*
X276258250Y-133531224D01*
X276218725Y-133570750D01*
X276211250Y-133570750D01*
X276052500Y-133729500D01*
X276052500Y-134270500D01*
X276211250Y-134429250D01*
X276218725Y-134429250D01*
X276258250Y-134468776D01*
X276258250Y-134476250D01*
X276338250Y-134556250D01*
X276258250Y-134636250D01*
X276258250Y-134643724D01*
X276218725Y-134683250D01*
X276211250Y-134683250D01*
X276052500Y-134842000D01*
X276052500Y-135383000D01*
X276211250Y-135541750D01*
X276218725Y-135541750D01*
X276258250Y-135581276D01*
X276258250Y-135588750D01*
X276417000Y-135747500D01*
X276958000Y-135747500D01*
X277116750Y-135588750D01*
X277116750Y-135581276D01*
X277156275Y-135541750D01*
X277163750Y-135541750D01*
X277243750Y-135461750D01*
X277323750Y-135541750D01*
X277331225Y-135541750D01*
X277370750Y-135581276D01*
X277370750Y-135588750D01*
X277529500Y-135747500D01*
X278070500Y-135747500D01*
X278229250Y-135588750D01*
X278229250Y-135581276D01*
X278268775Y-135541750D01*
X278276250Y-135541750D01*
X278356250Y-135461750D01*
X278436250Y-135541750D01*
X278443725Y-135541750D01*
X278483250Y-135581276D01*
X278483250Y-135588750D01*
X278642000Y-135747500D01*
X279183000Y-135747500D01*
X279341750Y-135588750D01*
X279341750Y-135581276D01*
X279381275Y-135541750D01*
X279388750Y-135541750D01*
X279547500Y-135383000D01*
X279547500Y-134842000D01*
X279388750Y-134683250D01*
X279381275Y-134683250D01*
X279341750Y-134643724D01*
X279341750Y-134636250D01*
X279261750Y-134556250D01*
X279341750Y-134476250D01*
X279341750Y-134468776D01*
X279381275Y-134429250D01*
X279388750Y-134429250D01*
X279547500Y-134270500D01*
X279547500Y-133729500D01*
X279388750Y-133570750D01*
X279381275Y-133570750D01*
X279341750Y-133531224D01*
X279341750Y-133523750D01*
X279261750Y-133443750D01*
X279341750Y-133363750D01*
X279341750Y-133356276D01*
X279381275Y-133316750D01*
X279388750Y-133316750D01*
X279547500Y-133158000D01*
X279547500Y-132617000D01*
X279388750Y-132458250D01*
X279381275Y-132458250D01*
X279341750Y-132418724D01*
X279341750Y-132411250D01*
X279183000Y-132252500D01*
X278642000Y-132252500D01*
X278483250Y-132411250D01*
X278483250Y-132418724D01*
X278443725Y-132458250D01*
X278436250Y-132458250D01*
X278356250Y-132538250D01*
X278276250Y-132458250D01*
X278268775Y-132458250D01*
X278229250Y-132418724D01*
X278229250Y-132411250D01*
X278070500Y-132252500D01*
X277529500Y-132252500D01*
X277370750Y-132411250D01*
X277370750Y-132418724D01*
X277331225Y-132458250D01*
X277323750Y-132458250D01*
X277243750Y-132538250D01*
X277163750Y-132458250D01*
X277156275Y-132458250D01*
X277116750Y-132418724D01*
X277116750Y-132411250D01*
X276958000Y-132252500D01*
X276417000Y-132252500D01*
X276258250Y-132411250D01*
X276258250Y-132418724D01*
X276218725Y-132458250D01*
X276211250Y-132458250D01*
X276052500Y-132617000D01*
X276004250Y-132617000D01*
X276004250Y-132411250D01*
X275984250Y-132391250D01*
X275984250Y-132204250D01*
X276004250Y-132204250D01*
X276004250Y-132184250D01*
X276191250Y-132184250D01*
X276211250Y-132204250D01*
X276211250Y-132204250D01*
G37*
X276211250Y-132204250D02*
X277163750Y-132204250D01*
X277183750Y-132184250D01*
X277303750Y-132184250D01*
X277323750Y-132204250D01*
X278276250Y-132204250D01*
X278296250Y-132184250D01*
X278416250Y-132184250D01*
X278436250Y-132204250D01*
X279388750Y-132204250D01*
X279408750Y-132184250D01*
X279595750Y-132184250D01*
X279595750Y-132204250D01*
X279615750Y-132204250D01*
X279615750Y-132391250D01*
X279595750Y-132411250D01*
X279595750Y-133363750D01*
X279615750Y-133383750D01*
X279615750Y-133503750D01*
X279595750Y-133523750D01*
X279595750Y-134476250D01*
X279615750Y-134496250D01*
X279615750Y-134616250D01*
X279595750Y-134636250D01*
X279595750Y-135588750D01*
X279615750Y-135608750D01*
X279615750Y-135795750D01*
X279595750Y-135795750D01*
X279595750Y-135815750D01*
X279408750Y-135815750D01*
X279388750Y-135795750D01*
X278436250Y-135795750D01*
X278416250Y-135815750D01*
X278296250Y-135815750D01*
X278276250Y-135795750D01*
X277323750Y-135795750D01*
X277303750Y-135815750D01*
X277183750Y-135815750D01*
X277163750Y-135795750D01*
X276211250Y-135795750D01*
X276191250Y-135815750D01*
X276004250Y-135815750D01*
X276004250Y-135795750D01*
X275984250Y-135795750D01*
X275984250Y-135608750D01*
X276004250Y-135588750D01*
X276004250Y-134636250D01*
X275984250Y-134616250D01*
X275984250Y-134496250D01*
X276004250Y-134476250D01*
X276004250Y-133523750D01*
X275984250Y-133503750D01*
X275984250Y-133383750D01*
X276004250Y-133363750D01*
X276004250Y-132617000D01*
X276052500Y-132617000D01*
X276052500Y-133158000D01*
X276211250Y-133316750D01*
X276218725Y-133316750D01*
X276258250Y-133356276D01*
X276258250Y-133363750D01*
X276338250Y-133443750D01*
X276258250Y-133523750D01*
X276258250Y-133531224D01*
X276218725Y-133570750D01*
X276211250Y-133570750D01*
X276052500Y-133729500D01*
X276052500Y-134270500D01*
X276211250Y-134429250D01*
X276218725Y-134429250D01*
X276258250Y-134468776D01*
X276258250Y-134476250D01*
X276338250Y-134556250D01*
X276258250Y-134636250D01*
X276258250Y-134643724D01*
X276218725Y-134683250D01*
X276211250Y-134683250D01*
X276052500Y-134842000D01*
X276052500Y-135383000D01*
X276211250Y-135541750D01*
X276218725Y-135541750D01*
X276258250Y-135581276D01*
X276258250Y-135588750D01*
X276417000Y-135747500D01*
X276958000Y-135747500D01*
X277116750Y-135588750D01*
X277116750Y-135581276D01*
X277156275Y-135541750D01*
X277163750Y-135541750D01*
X277243750Y-135461750D01*
X277323750Y-135541750D01*
X277331225Y-135541750D01*
X277370750Y-135581276D01*
X277370750Y-135588750D01*
X277529500Y-135747500D01*
X278070500Y-135747500D01*
X278229250Y-135588750D01*
X278229250Y-135581276D01*
X278268775Y-135541750D01*
X278276250Y-135541750D01*
X278356250Y-135461750D01*
X278436250Y-135541750D01*
X278443725Y-135541750D01*
X278483250Y-135581276D01*
X278483250Y-135588750D01*
X278642000Y-135747500D01*
X279183000Y-135747500D01*
X279341750Y-135588750D01*
X279341750Y-135581276D01*
X279381275Y-135541750D01*
X279388750Y-135541750D01*
X279547500Y-135383000D01*
X279547500Y-134842000D01*
X279388750Y-134683250D01*
X279381275Y-134683250D01*
X279341750Y-134643724D01*
X279341750Y-134636250D01*
X279261750Y-134556250D01*
X279341750Y-134476250D01*
X279341750Y-134468776D01*
X279381275Y-134429250D01*
X279388750Y-134429250D01*
X279547500Y-134270500D01*
X279547500Y-133729500D01*
X279388750Y-133570750D01*
X279381275Y-133570750D01*
X279341750Y-133531224D01*
X279341750Y-133523750D01*
X279261750Y-133443750D01*
X279341750Y-133363750D01*
X279341750Y-133356276D01*
X279381275Y-133316750D01*
X279388750Y-133316750D01*
X279547500Y-133158000D01*
X279547500Y-132617000D01*
X279388750Y-132458250D01*
X279381275Y-132458250D01*
X279341750Y-132418724D01*
X279341750Y-132411250D01*
X279183000Y-132252500D01*
X278642000Y-132252500D01*
X278483250Y-132411250D01*
X278483250Y-132418724D01*
X278443725Y-132458250D01*
X278436250Y-132458250D01*
X278356250Y-132538250D01*
X278276250Y-132458250D01*
X278268775Y-132458250D01*
X278229250Y-132418724D01*
X278229250Y-132411250D01*
X278070500Y-132252500D01*
X277529500Y-132252500D01*
X277370750Y-132411250D01*
X277370750Y-132418724D01*
X277331225Y-132458250D01*
X277323750Y-132458250D01*
X277243750Y-132538250D01*
X277163750Y-132458250D01*
X277156275Y-132458250D01*
X277116750Y-132418724D01*
X277116750Y-132411250D01*
X276958000Y-132252500D01*
X276417000Y-132252500D01*
X276258250Y-132411250D01*
X276258250Y-132418724D01*
X276218725Y-132458250D01*
X276211250Y-132458250D01*
X276052500Y-132617000D01*
X276004250Y-132617000D01*
X276004250Y-132411250D01*
X275984250Y-132391250D01*
X275984250Y-132204250D01*
X276004250Y-132204250D01*
X276004250Y-132184250D01*
X276191250Y-132184250D01*
X276211250Y-132204250D01*
G36*
X278436250Y-134429250D02*
X278443725Y-134429250D01*
X278483250Y-134468776D01*
X278483250Y-134476250D01*
X278563250Y-134556250D01*
X278483250Y-134636250D01*
X278483250Y-134643724D01*
X278443725Y-134683250D01*
X278436250Y-134683250D01*
X278356250Y-134763250D01*
X278276250Y-134683250D01*
X278268775Y-134683250D01*
X278229250Y-134643724D01*
X278229250Y-134636250D01*
X278149250Y-134556250D01*
X278229250Y-134476250D01*
X278229250Y-134468776D01*
X278268775Y-134429250D01*
X278276250Y-134429250D01*
X278356250Y-134349250D01*
X278436250Y-134429250D01*
X278436250Y-134429250D01*
G37*
X278436250Y-134429250D02*
X278443725Y-134429250D01*
X278483250Y-134468776D01*
X278483250Y-134476250D01*
X278563250Y-134556250D01*
X278483250Y-134636250D01*
X278483250Y-134643724D01*
X278443725Y-134683250D01*
X278436250Y-134683250D01*
X278356250Y-134763250D01*
X278276250Y-134683250D01*
X278268775Y-134683250D01*
X278229250Y-134643724D01*
X278229250Y-134636250D01*
X278149250Y-134556250D01*
X278229250Y-134476250D01*
X278229250Y-134468776D01*
X278268775Y-134429250D01*
X278276250Y-134429250D01*
X278356250Y-134349250D01*
X278436250Y-134429250D01*
G36*
X277323750Y-134429250D02*
X277331225Y-134429250D01*
X277370750Y-134468776D01*
X277370750Y-134476250D01*
X277450750Y-134556250D01*
X277370750Y-134636250D01*
X277370750Y-134643724D01*
X277331225Y-134683250D01*
X277323750Y-134683250D01*
X277243750Y-134763250D01*
X277163750Y-134683250D01*
X277156275Y-134683250D01*
X277116750Y-134643724D01*
X277116750Y-134636250D01*
X277036750Y-134556250D01*
X277116750Y-134476250D01*
X277116750Y-134468776D01*
X277156275Y-134429250D01*
X277163750Y-134429250D01*
X277243750Y-134349250D01*
X277323750Y-134429250D01*
X277323750Y-134429250D01*
G37*
X277323750Y-134429250D02*
X277331225Y-134429250D01*
X277370750Y-134468776D01*
X277370750Y-134476250D01*
X277450750Y-134556250D01*
X277370750Y-134636250D01*
X277370750Y-134643724D01*
X277331225Y-134683250D01*
X277323750Y-134683250D01*
X277243750Y-134763250D01*
X277163750Y-134683250D01*
X277156275Y-134683250D01*
X277116750Y-134643724D01*
X277116750Y-134636250D01*
X277036750Y-134556250D01*
X277116750Y-134476250D01*
X277116750Y-134468776D01*
X277156275Y-134429250D01*
X277163750Y-134429250D01*
X277243750Y-134349250D01*
X277323750Y-134429250D01*
G36*
X277323750Y-133316750D02*
X277331225Y-133316750D01*
X277370750Y-133356276D01*
X277370750Y-133363750D01*
X277450750Y-133443750D01*
X277370750Y-133523750D01*
X277370750Y-133531224D01*
X277331225Y-133570750D01*
X277323750Y-133570750D01*
X277243750Y-133650750D01*
X277163750Y-133570750D01*
X277156275Y-133570750D01*
X277116750Y-133531224D01*
X277116750Y-133523750D01*
X277036750Y-133443750D01*
X277116750Y-133363750D01*
X277116750Y-133356276D01*
X277156275Y-133316750D01*
X277163750Y-133316750D01*
X277243750Y-133236750D01*
X277323750Y-133316750D01*
X277323750Y-133316750D01*
G37*
X277323750Y-133316750D02*
X277331225Y-133316750D01*
X277370750Y-133356276D01*
X277370750Y-133363750D01*
X277450750Y-133443750D01*
X277370750Y-133523750D01*
X277370750Y-133531224D01*
X277331225Y-133570750D01*
X277323750Y-133570750D01*
X277243750Y-133650750D01*
X277163750Y-133570750D01*
X277156275Y-133570750D01*
X277116750Y-133531224D01*
X277116750Y-133523750D01*
X277036750Y-133443750D01*
X277116750Y-133363750D01*
X277116750Y-133356276D01*
X277156275Y-133316750D01*
X277163750Y-133316750D01*
X277243750Y-133236750D01*
X277323750Y-133316750D01*
G36*
X278436250Y-133316750D02*
X278443725Y-133316750D01*
X278483250Y-133356276D01*
X278483250Y-133363750D01*
X278563250Y-133443750D01*
X278483250Y-133523750D01*
X278483250Y-133531224D01*
X278443725Y-133570750D01*
X278436250Y-133570750D01*
X278356250Y-133650750D01*
X278276250Y-133570750D01*
X278268775Y-133570750D01*
X278229250Y-133531224D01*
X278229250Y-133523750D01*
X278149250Y-133443750D01*
X278229250Y-133363750D01*
X278229250Y-133356276D01*
X278268775Y-133316750D01*
X278276250Y-133316750D01*
X278356250Y-133236750D01*
X278436250Y-133316750D01*
X278436250Y-133316750D01*
G37*
X278436250Y-133316750D02*
X278443725Y-133316750D01*
X278483250Y-133356276D01*
X278483250Y-133363750D01*
X278563250Y-133443750D01*
X278483250Y-133523750D01*
X278483250Y-133531224D01*
X278443725Y-133570750D01*
X278436250Y-133570750D01*
X278356250Y-133650750D01*
X278276250Y-133570750D01*
X278268775Y-133570750D01*
X278229250Y-133531224D01*
X278229250Y-133523750D01*
X278149250Y-133443750D01*
X278229250Y-133363750D01*
X278229250Y-133356276D01*
X278268775Y-133316750D01*
X278276250Y-133316750D01*
X278356250Y-133236750D01*
X278436250Y-133316750D01*
G36*
X272900280Y-134497250D02*
X273347000Y-134497250D01*
X273347000Y-134649275D01*
X273327000Y-134649275D01*
X273327000Y-134696580D01*
X273073000Y-134696580D01*
X273073000Y-134649275D01*
X272424030Y-134649275D01*
X272346305Y-134727000D01*
X272327000Y-134727000D01*
X272327000Y-134746305D01*
X272326305Y-134747000D01*
X272073000Y-134747000D01*
X272073000Y-134727000D01*
X272066481Y-134727000D01*
X272159747Y-134587418D01*
X272167699Y-134547440D01*
X272650000Y-134547440D01*
X272897765Y-134498157D01*
X272899388Y-134497073D01*
X272900280Y-134497250D01*
X272900280Y-134497250D01*
G37*
X272900280Y-134497250D02*
X273347000Y-134497250D01*
X273347000Y-134649275D01*
X273327000Y-134649275D01*
X273327000Y-134696580D01*
X273073000Y-134696580D01*
X273073000Y-134649275D01*
X272424030Y-134649275D01*
X272346305Y-134727000D01*
X272327000Y-134727000D01*
X272327000Y-134746305D01*
X272326305Y-134747000D01*
X272073000Y-134747000D01*
X272073000Y-134727000D01*
X272066481Y-134727000D01*
X272159747Y-134587418D01*
X272167699Y-134547440D01*
X272650000Y-134547440D01*
X272897765Y-134498157D01*
X272899388Y-134497073D01*
X272900280Y-134497250D01*
G36*
X294776161Y-133889418D02*
X294976335Y-134189000D01*
X293746830Y-134189000D01*
X293746830Y-133964575D01*
X293764153Y-133953000D01*
X293898855Y-133953000D01*
X293898855Y-133973000D01*
X294474800Y-133973000D01*
X294633550Y-133814250D01*
X294633550Y-133673970D01*
X294589533Y-133567703D01*
X294691822Y-133465414D01*
X294776161Y-133889418D01*
X294776161Y-133889418D01*
G37*
X294776161Y-133889418D02*
X294976335Y-134189000D01*
X293746830Y-134189000D01*
X293746830Y-133964575D01*
X293764153Y-133953000D01*
X293898855Y-133953000D01*
X293898855Y-133973000D01*
X294474800Y-133973000D01*
X294633550Y-133814250D01*
X294633550Y-133673970D01*
X294589533Y-133567703D01*
X294691822Y-133465414D01*
X294776161Y-133889418D01*
G36*
X297415001Y-129411976D02*
X297384698Y-129381673D01*
X297151309Y-129285000D01*
X296460750Y-129285000D01*
X296302000Y-129443750D01*
X296302000Y-130643000D01*
X296322000Y-130643000D01*
X296322000Y-130897000D01*
X296302000Y-130897000D01*
X296302000Y-130917000D01*
X296048000Y-130917000D01*
X296048000Y-130897000D01*
X294848750Y-130897000D01*
X294690000Y-131055750D01*
X294690000Y-131589840D01*
X293827011Y-131589840D01*
X293697485Y-131503293D01*
X293449720Y-131454010D01*
X292850280Y-131454010D01*
X292602515Y-131503293D01*
X292472989Y-131589840D01*
X291909789Y-131589840D01*
X291839768Y-131575912D01*
X291769747Y-131589840D01*
X291769742Y-131589840D01*
X291562350Y-131631093D01*
X291503451Y-131670448D01*
X291497877Y-131642425D01*
X291488324Y-131628128D01*
X291534720Y-131516119D01*
X291534720Y-131448865D01*
X291375970Y-131290115D01*
X291137842Y-131290115D01*
X290899720Y-131242750D01*
X290300280Y-131242750D01*
X290062158Y-131290115D01*
X289887021Y-131290115D01*
X289799720Y-131272750D01*
X289353000Y-131272750D01*
X289353000Y-131120725D01*
X289373000Y-131120725D01*
X289373000Y-130544780D01*
X289627000Y-130544780D01*
X289627000Y-131120725D01*
X290275970Y-131120725D01*
X290305970Y-131090725D01*
X290473000Y-131090725D01*
X290473000Y-130514780D01*
X290727000Y-130514780D01*
X290727000Y-131090725D01*
X291375970Y-131090725D01*
X291534720Y-130931975D01*
X291534720Y-130864721D01*
X291438047Y-130631332D01*
X291259419Y-130452703D01*
X291026030Y-130356030D01*
X290885750Y-130356030D01*
X290727000Y-130514780D01*
X290473000Y-130514780D01*
X290314250Y-130356030D01*
X290173970Y-130356030D01*
X290013787Y-130422380D01*
X289926030Y-130386030D01*
X289785750Y-130386030D01*
X289627000Y-130544780D01*
X289373000Y-130544780D01*
X289214250Y-130386030D01*
X289165000Y-130386030D01*
X289165000Y-130382998D01*
X289006252Y-130382998D01*
X289165000Y-130224250D01*
X289165000Y-130083691D01*
X289068327Y-129850302D01*
X289011716Y-129793690D01*
X294690000Y-129793690D01*
X294690000Y-130484250D01*
X294848750Y-130643000D01*
X296048000Y-130643000D01*
X296048000Y-129443750D01*
X295889250Y-129285000D01*
X295198691Y-129285000D01*
X294965302Y-129381673D01*
X294786673Y-129560301D01*
X294690000Y-129793690D01*
X289011716Y-129793690D01*
X288889699Y-129671673D01*
X288656310Y-129575000D01*
X288563750Y-129575000D01*
X288459000Y-129679750D01*
X288459000Y-129623167D01*
X288323658Y-129296422D01*
X288073578Y-129046342D01*
X287746833Y-128911000D01*
X287393167Y-128911000D01*
X287066422Y-129046342D01*
X286816342Y-129296422D01*
X286681000Y-129623167D01*
X286681000Y-129649728D01*
X286646119Y-129635280D01*
X286578865Y-129635280D01*
X286420115Y-129794030D01*
X286420115Y-130032158D01*
X286372750Y-130270280D01*
X286372750Y-130869720D01*
X286407615Y-131045000D01*
X286372750Y-131220280D01*
X286372750Y-131617244D01*
X286173420Y-131417915D01*
X286173420Y-131393275D01*
X286173695Y-131393000D01*
X286220725Y-131393000D01*
X286220725Y-130697000D01*
X286173695Y-130697000D01*
X286061975Y-130585280D01*
X285994721Y-130585280D01*
X285761332Y-130681953D01*
X285746285Y-130697000D01*
X285704236Y-130697000D01*
X285683158Y-130675922D01*
X285356413Y-130540580D01*
X285002747Y-130540580D01*
X284676002Y-130675922D01*
X284425922Y-130926002D01*
X284290580Y-131252747D01*
X284290580Y-131471636D01*
X284187729Y-131540359D01*
X284087398Y-131607398D01*
X284047731Y-131666764D01*
X283806762Y-131907733D01*
X283747399Y-131947398D01*
X283707734Y-132006761D01*
X283707732Y-132006763D01*
X283623663Y-132132582D01*
X283590254Y-132182582D01*
X283549000Y-132389974D01*
X283549000Y-132389979D01*
X283535072Y-132460000D01*
X283549000Y-132530021D01*
X283549000Y-132975494D01*
X283435495Y-133089000D01*
X281847440Y-133089000D01*
X281847440Y-132900000D01*
X281827549Y-132800000D01*
X281847440Y-132700000D01*
X281847440Y-132500000D01*
X281827549Y-132400000D01*
X281847440Y-132300000D01*
X281847440Y-132100000D01*
X281827549Y-132000000D01*
X281847440Y-131900000D01*
X281847440Y-131700000D01*
X281798157Y-131452235D01*
X281668025Y-131257480D01*
X281953238Y-130972267D01*
X281957469Y-130969440D01*
X282262000Y-130969440D01*
X282509765Y-130920157D01*
X282719809Y-130779809D01*
X282860157Y-130569765D01*
X282909440Y-130322000D01*
X282909440Y-130143970D01*
X285486030Y-130143970D01*
X285486030Y-130284250D01*
X285644780Y-130443000D01*
X286220725Y-130443000D01*
X286220725Y-129794030D01*
X286061975Y-129635280D01*
X285994721Y-129635280D01*
X285761332Y-129731953D01*
X285582703Y-129910581D01*
X285486030Y-130143970D01*
X282909440Y-130143970D01*
X282909440Y-128798000D01*
X282860157Y-128550235D01*
X282719809Y-128340191D01*
X282509765Y-128199843D01*
X282331310Y-128164347D01*
X282684320Y-127811337D01*
X282897000Y-127297881D01*
X282897000Y-126742119D01*
X282684320Y-126228663D01*
X282640657Y-126185000D01*
X297415001Y-126185000D01*
X297415001Y-129411976D01*
X297415001Y-129411976D01*
G37*
X297415001Y-129411976D02*
X297384698Y-129381673D01*
X297151309Y-129285000D01*
X296460750Y-129285000D01*
X296302000Y-129443750D01*
X296302000Y-130643000D01*
X296322000Y-130643000D01*
X296322000Y-130897000D01*
X296302000Y-130897000D01*
X296302000Y-130917000D01*
X296048000Y-130917000D01*
X296048000Y-130897000D01*
X294848750Y-130897000D01*
X294690000Y-131055750D01*
X294690000Y-131589840D01*
X293827011Y-131589840D01*
X293697485Y-131503293D01*
X293449720Y-131454010D01*
X292850280Y-131454010D01*
X292602515Y-131503293D01*
X292472989Y-131589840D01*
X291909789Y-131589840D01*
X291839768Y-131575912D01*
X291769747Y-131589840D01*
X291769742Y-131589840D01*
X291562350Y-131631093D01*
X291503451Y-131670448D01*
X291497877Y-131642425D01*
X291488324Y-131628128D01*
X291534720Y-131516119D01*
X291534720Y-131448865D01*
X291375970Y-131290115D01*
X291137842Y-131290115D01*
X290899720Y-131242750D01*
X290300280Y-131242750D01*
X290062158Y-131290115D01*
X289887021Y-131290115D01*
X289799720Y-131272750D01*
X289353000Y-131272750D01*
X289353000Y-131120725D01*
X289373000Y-131120725D01*
X289373000Y-130544780D01*
X289627000Y-130544780D01*
X289627000Y-131120725D01*
X290275970Y-131120725D01*
X290305970Y-131090725D01*
X290473000Y-131090725D01*
X290473000Y-130514780D01*
X290727000Y-130514780D01*
X290727000Y-131090725D01*
X291375970Y-131090725D01*
X291534720Y-130931975D01*
X291534720Y-130864721D01*
X291438047Y-130631332D01*
X291259419Y-130452703D01*
X291026030Y-130356030D01*
X290885750Y-130356030D01*
X290727000Y-130514780D01*
X290473000Y-130514780D01*
X290314250Y-130356030D01*
X290173970Y-130356030D01*
X290013787Y-130422380D01*
X289926030Y-130386030D01*
X289785750Y-130386030D01*
X289627000Y-130544780D01*
X289373000Y-130544780D01*
X289214250Y-130386030D01*
X289165000Y-130386030D01*
X289165000Y-130382998D01*
X289006252Y-130382998D01*
X289165000Y-130224250D01*
X289165000Y-130083691D01*
X289068327Y-129850302D01*
X289011716Y-129793690D01*
X294690000Y-129793690D01*
X294690000Y-130484250D01*
X294848750Y-130643000D01*
X296048000Y-130643000D01*
X296048000Y-129443750D01*
X295889250Y-129285000D01*
X295198691Y-129285000D01*
X294965302Y-129381673D01*
X294786673Y-129560301D01*
X294690000Y-129793690D01*
X289011716Y-129793690D01*
X288889699Y-129671673D01*
X288656310Y-129575000D01*
X288563750Y-129575000D01*
X288459000Y-129679750D01*
X288459000Y-129623167D01*
X288323658Y-129296422D01*
X288073578Y-129046342D01*
X287746833Y-128911000D01*
X287393167Y-128911000D01*
X287066422Y-129046342D01*
X286816342Y-129296422D01*
X286681000Y-129623167D01*
X286681000Y-129649728D01*
X286646119Y-129635280D01*
X286578865Y-129635280D01*
X286420115Y-129794030D01*
X286420115Y-130032158D01*
X286372750Y-130270280D01*
X286372750Y-130869720D01*
X286407615Y-131045000D01*
X286372750Y-131220280D01*
X286372750Y-131617244D01*
X286173420Y-131417915D01*
X286173420Y-131393275D01*
X286173695Y-131393000D01*
X286220725Y-131393000D01*
X286220725Y-130697000D01*
X286173695Y-130697000D01*
X286061975Y-130585280D01*
X285994721Y-130585280D01*
X285761332Y-130681953D01*
X285746285Y-130697000D01*
X285704236Y-130697000D01*
X285683158Y-130675922D01*
X285356413Y-130540580D01*
X285002747Y-130540580D01*
X284676002Y-130675922D01*
X284425922Y-130926002D01*
X284290580Y-131252747D01*
X284290580Y-131471636D01*
X284187729Y-131540359D01*
X284087398Y-131607398D01*
X284047731Y-131666764D01*
X283806762Y-131907733D01*
X283747399Y-131947398D01*
X283707734Y-132006761D01*
X283707732Y-132006763D01*
X283623663Y-132132582D01*
X283590254Y-132182582D01*
X283549000Y-132389974D01*
X283549000Y-132389979D01*
X283535072Y-132460000D01*
X283549000Y-132530021D01*
X283549000Y-132975494D01*
X283435495Y-133089000D01*
X281847440Y-133089000D01*
X281847440Y-132900000D01*
X281827549Y-132800000D01*
X281847440Y-132700000D01*
X281847440Y-132500000D01*
X281827549Y-132400000D01*
X281847440Y-132300000D01*
X281847440Y-132100000D01*
X281827549Y-132000000D01*
X281847440Y-131900000D01*
X281847440Y-131700000D01*
X281798157Y-131452235D01*
X281668025Y-131257480D01*
X281953238Y-130972267D01*
X281957469Y-130969440D01*
X282262000Y-130969440D01*
X282509765Y-130920157D01*
X282719809Y-130779809D01*
X282860157Y-130569765D01*
X282909440Y-130322000D01*
X282909440Y-130143970D01*
X285486030Y-130143970D01*
X285486030Y-130284250D01*
X285644780Y-130443000D01*
X286220725Y-130443000D01*
X286220725Y-129794030D01*
X286061975Y-129635280D01*
X285994721Y-129635280D01*
X285761332Y-129731953D01*
X285582703Y-129910581D01*
X285486030Y-130143970D01*
X282909440Y-130143970D01*
X282909440Y-128798000D01*
X282860157Y-128550235D01*
X282719809Y-128340191D01*
X282509765Y-128199843D01*
X282331310Y-128164347D01*
X282684320Y-127811337D01*
X282897000Y-127297881D01*
X282897000Y-126742119D01*
X282684320Y-126228663D01*
X282640657Y-126185000D01*
X297415001Y-126185000D01*
X297415001Y-129411976D01*
G36*
X273202750Y-129749720D02*
X273250115Y-129987842D01*
X273250115Y-130225970D01*
X273400422Y-130376277D01*
X272677000Y-131110942D01*
X272677000Y-130323532D01*
X272824721Y-130384720D01*
X272891975Y-130384720D01*
X273050725Y-130225970D01*
X273050725Y-129577000D01*
X273003420Y-129577000D01*
X273003420Y-129323000D01*
X273050725Y-129323000D01*
X273050725Y-129303000D01*
X273202750Y-129303000D01*
X273202750Y-129749720D01*
X273202750Y-129749720D01*
G37*
X273202750Y-129749720D02*
X273250115Y-129987842D01*
X273250115Y-130225970D01*
X273400422Y-130376277D01*
X272677000Y-131110942D01*
X272677000Y-130323532D01*
X272824721Y-130384720D01*
X272891975Y-130384720D01*
X273050725Y-130225970D01*
X273050725Y-129577000D01*
X273003420Y-129577000D01*
X273003420Y-129323000D01*
X273050725Y-129323000D01*
X273050725Y-129303000D01*
X273202750Y-129303000D01*
X273202750Y-129749720D01*
G36*
X288405000Y-130383000D02*
X288427000Y-130383000D01*
X288427000Y-130637000D01*
X288405000Y-130637000D01*
X288405000Y-130657000D01*
X288155000Y-130657000D01*
X288155000Y-130637000D01*
X288133000Y-130637000D01*
X288133000Y-130494236D01*
X288264236Y-130363000D01*
X288405000Y-130363000D01*
X288405000Y-130383000D01*
X288405000Y-130383000D01*
G37*
X288405000Y-130383000D02*
X288427000Y-130383000D01*
X288427000Y-130637000D01*
X288405000Y-130637000D01*
X288405000Y-130657000D01*
X288155000Y-130657000D01*
X288155000Y-130637000D01*
X288133000Y-130637000D01*
X288133000Y-130494236D01*
X288264236Y-130363000D01*
X288405000Y-130363000D01*
X288405000Y-130383000D01*
G36*
X280315680Y-126228663D02*
X280103000Y-126742119D01*
X280103000Y-127297881D01*
X280136277Y-127378218D01*
X279906762Y-127607733D01*
X279847399Y-127647398D01*
X279807734Y-127706761D01*
X279807732Y-127706763D01*
X279690254Y-127882582D01*
X279635072Y-128160000D01*
X279649001Y-128230025D01*
X279649000Y-129425494D01*
X279146762Y-129927733D01*
X279109606Y-129952560D01*
X279100000Y-129952560D01*
X279000000Y-129972451D01*
X278900000Y-129952560D01*
X278749500Y-129952560D01*
X278749500Y-129875861D01*
X278757809Y-129870309D01*
X278898157Y-129660265D01*
X278947440Y-129412500D01*
X278947440Y-129225092D01*
X279036199Y-129188327D01*
X279214827Y-129009698D01*
X279311500Y-128776309D01*
X279311500Y-128733750D01*
X279152750Y-128575000D01*
X278900199Y-128575000D01*
X278898157Y-128564735D01*
X278854902Y-128500000D01*
X278898157Y-128435265D01*
X278900199Y-128425000D01*
X279152750Y-128425000D01*
X279311500Y-128266250D01*
X279311500Y-128223691D01*
X279214827Y-127990302D01*
X279036199Y-127811673D01*
X278947440Y-127774908D01*
X278947440Y-127587500D01*
X278898157Y-127339735D01*
X278757809Y-127129691D01*
X278547765Y-126989343D01*
X278300000Y-126940060D01*
X278217107Y-126940060D01*
X278136960Y-126886507D01*
X277885053Y-126836400D01*
X277885049Y-126836400D01*
X277800000Y-126819483D01*
X277714951Y-126836400D01*
X276548034Y-126836400D01*
X276496735Y-126802123D01*
X276248970Y-126752840D01*
X275850190Y-126752840D01*
X275602425Y-126802123D01*
X275600000Y-126803743D01*
X275597575Y-126802123D01*
X275349810Y-126752840D01*
X274951030Y-126752840D01*
X274703265Y-126802123D01*
X274654061Y-126835000D01*
X274457630Y-126835000D01*
X274299720Y-126803590D01*
X273700280Y-126803590D01*
X273544481Y-126834580D01*
X273345310Y-126834580D01*
X273296735Y-126802123D01*
X273048970Y-126752840D01*
X272677000Y-126752840D01*
X272677000Y-126185000D01*
X280359343Y-126185000D01*
X280315680Y-126228663D01*
X280315680Y-126228663D01*
G37*
X280315680Y-126228663D02*
X280103000Y-126742119D01*
X280103000Y-127297881D01*
X280136277Y-127378218D01*
X279906762Y-127607733D01*
X279847399Y-127647398D01*
X279807734Y-127706761D01*
X279807732Y-127706763D01*
X279690254Y-127882582D01*
X279635072Y-128160000D01*
X279649001Y-128230025D01*
X279649000Y-129425494D01*
X279146762Y-129927733D01*
X279109606Y-129952560D01*
X279100000Y-129952560D01*
X279000000Y-129972451D01*
X278900000Y-129952560D01*
X278749500Y-129952560D01*
X278749500Y-129875861D01*
X278757809Y-129870309D01*
X278898157Y-129660265D01*
X278947440Y-129412500D01*
X278947440Y-129225092D01*
X279036199Y-129188327D01*
X279214827Y-129009698D01*
X279311500Y-128776309D01*
X279311500Y-128733750D01*
X279152750Y-128575000D01*
X278900199Y-128575000D01*
X278898157Y-128564735D01*
X278854902Y-128500000D01*
X278898157Y-128435265D01*
X278900199Y-128425000D01*
X279152750Y-128425000D01*
X279311500Y-128266250D01*
X279311500Y-128223691D01*
X279214827Y-127990302D01*
X279036199Y-127811673D01*
X278947440Y-127774908D01*
X278947440Y-127587500D01*
X278898157Y-127339735D01*
X278757809Y-127129691D01*
X278547765Y-126989343D01*
X278300000Y-126940060D01*
X278217107Y-126940060D01*
X278136960Y-126886507D01*
X277885053Y-126836400D01*
X277885049Y-126836400D01*
X277800000Y-126819483D01*
X277714951Y-126836400D01*
X276548034Y-126836400D01*
X276496735Y-126802123D01*
X276248970Y-126752840D01*
X275850190Y-126752840D01*
X275602425Y-126802123D01*
X275600000Y-126803743D01*
X275597575Y-126802123D01*
X275349810Y-126752840D01*
X274951030Y-126752840D01*
X274703265Y-126802123D01*
X274654061Y-126835000D01*
X274457630Y-126835000D01*
X274299720Y-126803590D01*
X273700280Y-126803590D01*
X273544481Y-126834580D01*
X273345310Y-126834580D01*
X273296735Y-126802123D01*
X273048970Y-126752840D01*
X272677000Y-126752840D01*
X272677000Y-126185000D01*
X280359343Y-126185000D01*
X280315680Y-126228663D01*
G36*
X276652500Y-128627002D02*
X276759248Y-128627002D01*
X276656053Y-128730198D01*
X276615970Y-128690115D01*
X276377842Y-128690115D01*
X276161891Y-128647160D01*
X276248970Y-128647160D01*
X276496735Y-128597877D01*
X276548034Y-128563600D01*
X276652500Y-128563600D01*
X276652500Y-128627002D01*
X276652500Y-128627002D01*
G37*
X276652500Y-128627002D02*
X276759248Y-128627002D01*
X276656053Y-128730198D01*
X276615970Y-128690115D01*
X276377842Y-128690115D01*
X276161891Y-128647160D01*
X276248970Y-128647160D01*
X276496735Y-128597877D01*
X276548034Y-128563600D01*
X276652500Y-128563600D01*
X276652500Y-128627002D01*
G36*
X275828019Y-128642750D02*
X275693000Y-128642750D01*
X275693000Y-128615893D01*
X275828019Y-128642750D01*
X275828019Y-128642750D01*
G37*
X275828019Y-128642750D02*
X275693000Y-128642750D01*
X275693000Y-128615893D01*
X275828019Y-128642750D01*
G04 #@! TD*
M02*
